<ttFont>
<head>
    <!-- Most of this table will be recalculated by the compiler -->
    <tableVersion value="1.0"/>
    <fontRevision value="1.0"/>
    <checkSumAdjustment value="0xe52c0eaf"/>
    <magicNumber value="0x5f0f3cf5"/>
    <flags value="00000000 00000011"/>
    <unitsPerEm value="2048"/>
    <created value="Thu Aug 15 19:10:13 2019"/>
    <modified value="Fri Aug 16 02:19:19 2019"/>
    <xMin value="-411"/>
    <yMin value="-526"/>
    <xMax value="3403"/>
    <yMax value="1959"/>
<macStyle value="00000000 00000010"/>
    <lowestRecPPEM value="3"/>
    <fontDirectionHint value="2"/>
    <indexToLocFormat value="0"/>
    <glyphDataFormat value="0"/>
  </head>
          <CharString index="0">
            80 105 39 54 44 hvcurveto
            17 return
          </CharString>
          <CharString index="1">
            80 rlineto
            -35 -41 -58 -12 -32 hhcurveto
            return
          </CharString>
          <CharString index="2">
            80 105 39 54 43 hvcurveto
            17 return
          </CharString>
          <CharString index="3">
            -46 callsubr
            109 hhcurveto
            return
          </CharString>
          <CharString index="4">
            rmoveto
            -365 -48 -16 -73 return
          </CharString>
          <CharString index="5">
            rmoveto
            -243 126 -123 142 return
          </CharString>
          <CharString index="6">
            rmoveto
            63 50 49 63 -1 hvcurveto
            56 -44 43 -62 -62 -51 -49 -62 1 vhcurveto
            -58 44 -42 62 vhcurveto
            endchar
          </CharString>
          <CharString index="7">
            rmoveto
            -56 -48 -46 -59 -53 40 -41 57 57 47 46 59 54 -41 40 -56 hvcurveto
            endchar
          </CharString>
          <CharString index="8">
            rmoveto
            -13 callsubr
            36 callsubr
            endchar
          </CharString>
          <CharString index="9">
            96 -13 rlineto
            48 -7 10 -19 -9 -44 return
          </CharString>
          <CharString index="10">
            1849 -104 callgsubr
            return
          </CharString>
          <CharString index="11">
            35 callsubr
            endchar
          </CharString>
          <CharString index="12">
            -101 -476 rcurveline
            -6 callsubr
            return
          </CharString>
          <CharString index="13">
            99 callsubr
            endchar
          </CharString>
          <CharString index="14">
            -225 -1056 -18 -87 -18 -17 -161 -14 rlinecurve
            -16 -76 return
          </CharString>
          <CharString index="15">
            rmoveto
            321 195 295 106 callsubr
            endchar
          </CharString>
          <CharString index="16">
            1529 4 callgsubr
            return
          </CharString>
          <CharString index="17">
            155 -14 10 -17 -18 -87 rlinecurve
            return
          </CharString>
          <CharString index="18">
            -364 -48 -17 -73 95 -13 rlineto
            50 -8 return
          </CharString>
          <CharString index="19">
            rmoveto
            -1025 2 callsubr
            -23 callsubr
            1067 -24 callsubr
            endchar
          </CharString>
          <CharString index="20">
            10 -18 -10 -44 -130 -612 rcurveline
            -142 -31 41 -72 115 hhcurveto
            return
          </CharString>
          <CharString index="21">
            -73 callsubr
            -71 callsubr
            -3 callsubr
            endchar
          </CharString>
          <CharString index="22">
            1610 37 callsubr
            return
          </CharString>
          <CharString index="23">
            rmoveto
            113 126 0 callsubr
            -12 callsubr
            34 callsubr
            endchar
          </CharString>
          <CharString index="24">
            rmoveto
            309 236 201 358 79 hvcurveto
            156 703 21 96 23 20 137 20 rlinecurve
            16 76 -445 0 -16 -76 rlineto
            153 30 callsubr
            rlineto
            129 -20 16 -20 -21 -96 -140 -657 rcurveline
            -1 callsubr
            endchar
          </CharString>
          <CharString index="25">
            rmoveto
            225 1056 18 87 18 17 161 14 rlinecurve
            16 76 -552 0 -16 -76 return
          </CharString>
          <CharString index="26">
            41 callsubr
            endchar
          </CharString>
          <CharString index="27">
            rmoveto
            503 hlineto
            24 116 rlineto
            -503 hlineto
            endchar
          </CharString>
          <CharString index="28">
            1878 -62 callgsubr
            return
          </CharString>
          <CharString index="29">
            1570 -61 callgsubr
            return
          </CharString>
          <CharString index="30">
            1230 130 callsubr
            return
          </CharString>
          <CharString index="31">
            -71 callsubr
            endchar
          </CharString>
          <CharString index="32">
            rmoveto
            144 101 66 119 106 -75 69 -95 -59 -43 -17 -35 -41 hvcurveto
            -15 -68 rlineto
            5 14 30 5 28 hhcurveto
            61 39 -34 -47 -52 -49 -32 -67 -48 -42 16 18 -31 hvcurveto
            -16 -70 rlineto
            -27 36 62 -22 66 hhcurveto
            endchar
          </CharString>
          <CharString index="33">
            1165 rmoveto
            228 204 135 -204 88 0 -130 364 -132 0 -287 -364 rlineto
            return
          </CharString>
          <CharString index="34">
            80 rlineto
            -35 -40 -59 -12 -32 hhcurveto
            return
          </CharString>
          <CharString index="35">
            -172 -810 192 0 115 550 rlineto
            return
          </CharString>
          <CharString index="36">
            -47 -12 34 48 10 hvcurveto
            return
          </CharString>
          <CharString index="37">
            -101 -477 rlineto
            -142 -29 39 -100 callgsubr
            -35 -41 -59 -12 -32 hhcurveto
            -47 -12 34 48 11 hvcurveto
            103 479 rlineto
            -41 callgsubr
            return
          </CharString>
          <CharString index="38">
            1529 rmoveto
            -228 -203 -135 203 -88 0 130 -364 132 0 286 364 rlineto
            return
          </CharString>
          <CharString index="39">
            -364 -48 -17 -73 96 -13 49 -8 10 -19 -9 -43 rlinecurve
            -274 -1288 return
          </CharString>
          <CharString index="40">
            1612 -103 callgsubr
            return
          </CharString>
          <CharString index="41">
            rmoveto
            211 183 126 -183 82 0 -123 327 -123 0 -265 -327 rlineto
            endchar
          </CharString>
          <CharString index="42">
            rmoveto
            291 114 243 -114 18 84 -208 165 -50 0 -276 -165 rlineto
            return
          </CharString>
          <CharString index="43">
            1237 rmoveto
            -30 callgsubr
            412 hmoveto
            -30 callgsubr
            return
          </CharString>
          <CharString index="44">
            -16 -76 rlineto
            20 hlineto
            84 48 -33 -57 -50 return
          </CharString>
          <CharString index="45">
            rmoveto
            534 hlineto
            22 105 rlineto
            -534 hlineto
            return
          </CharString>
          <CharString index="46">
            194 344 -102 callsubr
            return
          </CharString>
          <CharString index="47">
            -46 -13 34 48 11 hvcurveto
            return
          </CharString>
          <CharString index="48">
            rmoveto
            -325 -48 -14 -73 90 -13 52 -8 16 -17 3 -44 rlinecurve
            49 -840 -123 -126 -195 -175 -146 -116 rlinecurve
            -14 219 vlineto
            124 139 108 128 96 116 50 60 47 59 44 55 rrcurveto
            330 418 129 245 129 vvcurveto
            81 -52 -95 callgsubr
            -2 callgsubr
            endchar
          </CharString>
          <CharString index="49">
            229 138 254 233 -2 hvcurveto
            172 -83 160 -182 -229 -138 -255 -233 2 vhcurveto
            -171 82 -160 183 vhcurveto
            return
          </CharString>
          <CharString index="50">
            1529 rmoveto
            -205 -12 hlineto
            241 -352 rlineto
            83 hlineto
            return
          </CharString>
          <CharString index="51">
            1646 rmoveto
            488 hlineto
            25 118 rlineto
            -487 hlineto
            return
          </CharString>
          <CharString index="52">
            -354 80 callsubr
            return
          </CharString>
          <CharString index="53">
            100 403 rlineto
            -67 hlineto
            return
          </CharString>
          <CharString index="54">
            rmoveto
            106 497 693 0 -106 -497 -18 -87 -22 -18 -152 -13 rlinecurve
            -16 -76 549 0 16 76 -151 14 -17 21 19 87 rlinecurve
            224 1048 19 87 24 21 158 14 rlinecurve
            15 76 -549 0 -16 -76 146 -13 14 -18 -18 -87 rlinecurve
            -99 -464 -693 0 99 464 18 87 26 18 148 13 rlinecurve
            16 76 -550 0 -15 -76 154 -14 13 -21 -18 -87 rlinecurve
            -224 -1048 -19 -87 -21 -21 -161 -14 rlinecurve
            -16 -76 return
          </CharString>
          <CharString index="55">
            1211 rmoveto
            92 67 71 212 24 hvcurveto
            -83 hlineto
            -119 -17 -26 -27 -37 hhcurveto
            -27 -23 15 29 -30 hvcurveto
            -34 32 rlineto
            37 -40 -41 22 -54 hhcurveto
            -90 -69 -71 -212 -23 hvcurveto
            83 hlineto
            119 17 26 27 36 hhcurveto
            28 22 -15 -29 31 hvcurveto
            33 -32 rlineto
            -36 39 43 -23 53 hhcurveto
            return
          </CharString>
          <CharString index="56">
            rmoveto
            47 43 32 42 9 hvcurveto
            41 10 -30 33 -47 hhcurveto
            -9 hlineto
            -48 -43 -33 -41 -9 hvcurveto
            -42 -9 29 -32 48 hhcurveto
            322 hmoveto
            48 43 32 42 9 hvcurveto
            41 9 -29 33 -48 hhcurveto
            -9 hlineto
            -47 -43 -33 -41 -10 hvcurveto
            -42 -9 29 -32 48 hhcurveto
            return
          </CharString>
          <CharString index="57">
            rmoveto
            50 47 38 49 11 hvcurveto
            49 10 -30 39 -50 hhcurveto
            -9 hlineto
            -50 -47 -39 -49 -10 hvcurveto
            -49 -11 31 -38 50 hhcurveto
            338 45 callsubr
            -49 hhcurveto
            -9 hlineto
            -50 -47 -39 -49 -10 hvcurveto
            -49 -11 31 -38 49 hhcurveto
            return
          </CharString>
          <CharString index="58">
            rmoveto
            -365 -48 -17 -73 96 -13 49 -8 10 -18 -9 -44 rlinecurve
            -154 -722 -57 -270 -53 -153 -199 -80 rlinecurve
            25 -67 323 104 85 152 59 271 rlinecurve
            endchar
          </CharString>
          <CharString index="59">
            rmoveto
            202 -539 -95 -448 -18 -86 -20 -16 -180 -16 rlinecurve
            -16 -75 593 0 16 75 151 callsubr
            endchar
          </CharString>
          <CharString index="60">
            1225 rmoveto
            -31 callgsubr
            return
          </CharString>
          <CharString index="61">
            135 114 81 155 71 vhcurveto
            -1 -1 -8 -34 -1 vvcurveto
            -121 -30 37 -73 return
          </CharString>
          <CharString index="62">
            1268 rmoveto
            541 hlineto
            27 129 rlineto
            -541 hlineto
            return
          </CharString>
          <CharString index="63">
            rmoveto
            84 83 48 111 23 hvcurveto
            -83 hlineto
            -43 -8 -30 -18 return
          </CharString>
          <CharString index="64">
            rmoveto
            -324 -48 -15 -73 91 -13 rlineto
            51 -7 return
          </CharString>
          <CharString index="65">
            rmoveto
            531 -76 15 70 -522 125 rlineto
            return
          </CharString>
          <CharString index="66">
            110 hhcurveto
            79 105 39 54 44 hvcurveto
            17 return
          </CharString>
          <CharString index="67">
            rmoveto
            294 96 253 -96 15 70 -219 140 -51 0 -277 -140 rlineto
            return
          </CharString>
          <CharString index="68">
            1849 rmoveto
            -165 -9 hlineto
            215 -269 rlineto
            68 hlineto
            return
          </CharString>
          <CharString index="69">
            rmoveto
            26 119 -574 -125 -14 -70 rlineto
            return
          </CharString>
          <CharString index="70">
            1612 158 callsubr
            return
          </CharString>
          <CharString index="71">
            101 -64 67 -111 17 hvcurveto
            return
          </CharString>
          <CharString index="72">
            1176 rmoveto
            178 108 132 207 10 hvcurveto
            -77 hlineto
            -119 -21 -68 -69 -121 hhcurveto
            -104 -68 65 82 15 2 16 2 10 hvcurveto
            -77 hlineto
            -12 -29 -9 -39 -34 vvcurveto
            -139 106 -98 151 vhcurveto
            return
          </CharString>
          <CharString index="73">
            1535 rmoveto
            -80 -76 -36 -43 -38 hvcurveto
            -16 -71 rlineto
            23 32 46 16 52 hhcurveto
            76 34 -30 -45 -62 -70 -63 -94 -59 hvcurveto
            99 hlineto
            126 57 96 67 93 vvcurveto
            84 -68 69 -119 vhcurveto
            return
          </CharString>
          <CharString index="74">
            -232 7 74 callsubr
            126 callsubr
            return
          </CharString>
          <CharString index="75">
            -490 rmoveto
            157 93 78 111 return
          </CharString>
          <CharString index="76">
            1521 -93 callgsubr
            return
          </CharString>
          <CharString index="77">
            192 -51 callgsubr
            return
          </CharString>
          <CharString index="78">
            rmoveto
            240 241 122 195 135 -85 87 -186 38 hvcurveto
            -191 39 rlineto
            -91 19 -16 25 -1 34 -1 42 44 37 66 21 rrcurveto
            -8 35 38 -5 41 hhcurveto
            254 141 179 197 68 -20 63 -37 50 hvcurveto
            231 -17 21 107 -333 -14 rlineto
            36 -58 -74 21 -89 hhcurveto
            -253 -1 -141 -178 -197 vvcurveto
            -122 63 -102 112 -53 vhcurveto
            -134 -39 -66 -59 2 -86 1 -61 32 -52 74 -34 rrcurveto
            -174 -37 -120 -87 -106 vvcurveto
            -169 200 -88 234 vhcurveto
            -32 1069 rmoveto
            152 67 171 139 110 53 -98 -112 -152 -69 -170 -138 -111 -51 97 112 vhcurveto
            -239 -795 rmoveto
            81 69 60 140 46 vhcurveto
            5 -1 5 -1 5 -1 180 -35 rcurveline
            125 -23 53 -56 -72 vvcurveto
            -113 -140 -65 -153 -175 -114 73 107 vhcurveto
            endchar
          </CharString>
          <CharString index="79">
            rmoveto
            213 998 18 87 18 17 160 14 rlinecurve
            16 76 -551 91 callsubr
            -18 -87 rlinecurve
            -206 -967 -75 -352 -110 -117 -236 -143 rlinecurve
            22 -66 340 156 179 116 80 375 rlinecurve
            return
          </CharString>
          <CharString index="80">
            1529 rmoveto
            -182 -8 hlineto
            236 -356 rlineto
            91 hlineto
            206 364 rmoveto
            -174 -8 hlineto
            159 -356 rlineto
            86 hlineto
            return
          </CharString>
          <CharString index="81">
            -38 -63 -91 callgsubr
            116 549 118 callsubr
            -118 -559 rlineto
            -205 -43 84 -133 179 hhcurveto
            return
          </CharString>
          <CharString index="82">
            rmoveto
            457 266 281 314 232 120 -124 -228 10 vhcurveto
            -65 callgsubr
            return
          </CharString>
          <CharString index="83">
            0 -54 callsubr
            163 callsubr
            63 -43 2 -212 rlinecurve
            66 hlineto
            return
          </CharString>
          <CharString index="84">
            -18 -87 rlinecurve
            -226 -1056 -19 -87 -18 -17 -160 -14 rlinecurve
            -16 -76 return
          </CharString>
          <CharString index="85">
            684 1492 -103 callsubr
            65 callsubr
            return
          </CharString>
          <CharString index="86">
            1521 rmoveto
            515 -89 17 83 -503 146 rlineto
            return
          </CharString>
          <CharString index="87">
            1897 176 callsubr
            return
          </CharString>
          <CharString index="88">
            1836 -38 callsubr
            return
          </CharString>
          <CharString index="89">
            1592 172 callsubr
            return
          </CharString>
          <CharString index="90">
            1529 39 callsubr
            return
          </CharString>
          <CharString index="91">
            rmoveto
            -412 272 -268 387 180 193 63 67 81 vhcurveto
            84 390 19 89 14 16 143 13 rlinecurve
            16 75 -536 0 -16 -75 rlineto
            173 -16 11 -12 -19 -89 -74 -351 rcurveline
            -39 -55 -102 -22 -89 hhcurveto
            -271 -180 228 322 457 267 281 314 232 119 -124 -228 10 hvcurveto
            67 -5 54 301 rlineto
            80 -85 -24 callgsubr
            endchar
          </CharString>
          <CharString index="92">
            rmoveto
            86 62 64 191 21 hvcurveto
            -78 hlineto
            -107 -15 -24 -25 -34 hhcurveto
            -25 -22 14 26 -28 hvcurveto
            -32 29 rlineto
            33 -37 -38 20 -50 hhcurveto
            -84 -64 -64 -191 -20 hvcurveto
            77 hlineto
            107 15 24 24 34 hhcurveto
            26 20 -13 -26 29 hvcurveto
            31 -29 rlineto
            -32 37 40 -21 49 hhcurveto
            endchar
          </CharString>
          <CharString index="93">
            rmoveto
            82 83 56 131 27 hvcurveto
            -81 hlineto
            -50 -10 -30 -21 -37 hhcurveto
            -24 -24 7 16 -36 hvcurveto
            -23 11 rlineto
            18 -38 -36 10 -44 hhcurveto
            -80 -84 -56 -130 -28 hvcurveto
            81 hlineto
            50 11 30 20 38 hhcurveto
            24 22 -7 -16 36 hvcurveto
            25 -11 rlineto
            -17 37 35 -11 44 hhcurveto
            return
          </CharString>
          <CharString index="94">
            -152 1177 -164 0 -650 -1171 -88 -158 -29 -24 -132 -15 rlinecurve
            -16 -76 451 0 16 76 -151 20 -11 26 78 146 rlinecurve
            123 232 480 0 26 -232 return
          </CharString>
          <CharString index="95">
            -97 -18 -66 hhcurveto
            -151 -101 110 197 -6 hvcurveto
            44 12 rlineto
            332 94 217 119 174 vvcurveto
            132 -109 82 -162 -263 -258 -257 -361 return
          </CharString>
          <CharString index="96">
            1307 1558 1444 rmoveto
            -1196 hlineto
            -88 -360 rlineto
            67 hlineto
            42 callsubr
            73 callsubr
            77 callsubr
            71 callsubr
            return
          </CharString>
          <CharString index="97">
            rmoveto
            164 135 81 125 19 hvcurveto
            -83 hlineto
            -58 -13 -91 -39 -108 hhcurveto
            -107 -75 39 58 13 hvcurveto
            -83 hlineto
            -125 -36 101 -81 164 hhcurveto
            return
          </CharString>
          <CharString index="98">
            rmoveto
            160 135 96 147 24 hvcurveto
            -81 hlineto
            -68 -15 -91 -46 -105 hhcurveto
            -104 -72 46 68 15 hvcurveto
            -81 hlineto
            -147 -40 95 -96 160 hhcurveto
            return
          </CharString>
          <CharString index="99">
            -38 hhcurveto
            -25 -25 7 13 -37 hvcurveto
            -25 10 rlineto
            14 43 callsubr
            26 23 -6 -14 37 hvcurveto
            26 -9 rlineto
            -15 39 36 -9 45 hhcurveto
            return
          </CharString>
          <CharString index="100">
            -413 -1 268 -267 381 hhcurveto
            182 175 53 68 80 hvcurveto
            67 305 rlineto
            -54 callgsubr
          </CharString>
          <CharString index="101">
            -211 -44 92 -145 194 hhcurveto
            135 122 80 156 78 2 callgsubr
            return
          </CharString>
          <CharString index="102">
            195 42 136 153 124 92 callsubr
            -70 callsubr
            endchar
          </CharString>
          <CharString index="103">
            107 435 rlineto
            -67 hlineto
            -125 -297 -89 -34 -216 -8 rrcurveto
            -225 -8 return
          </CharString>
          <CharString index="104">
            177 822 -366 -56 127 callsubr
            -7 callgsubr
            return
          </CharString>
          <CharString index="105">
            1540 826 32 callsubr
            return
          </CharString>
          <CharString index="106">
            -386 -82 221 -219 317 hhcurveto
            return
          </CharString>
          <CharString index="107">
            43 93 73 hvcurveto
            18 84 rlineto
            -77 -86 return
          </CharString>
          <CharString index="108">
            1153 -43 callgsubr
            return
          </CharString>
          <CharString index="109">
            hlineto
            -16 -76 154 -14 12 -17 return
          </CharString>
          <CharString index="110">
            rmoveto
            109 511 163 0 297 -705 287 0 15 70 -74 21 -52 54 -88 206 rlinecurve
            -207 480 321 299 179 165 53 51 129 22 rlinecurve
            16 76 -481 0 -16 -76 158 -12 11 -38 -132 -131 rlinecurve
            -398 -393 -162 0 97 456 18 87 20 18 147 13 rlinecurve
            16 76 -540 0 -16 -76 -90 callsubr
            -93 callsubr
            540 0 15 76 -140 13 -12 18 18 87 rlinecurve
            endchar
          </CharString>
          <CharString index="111">
            rmoveto
            103 -1177 164 0 566 1118 78 -1118 164 0 603 1172 82 159 35 22 131 15 rlinecurve
            16 76 -450 0 -16 -76 150 -19 7 -25 -72 -147 rlinecurve
            -474 -973 -62 973 -9 146 15 25 161 20 rlinecurve
            16 76 168 callsubr
            endchar
          </CharString>
          <CharString index="112">
            1456 rmoveto
            82 82 56 130 28 hvcurveto
            -81 hlineto
            -50 -10 -30 -20 -37 hhcurveto
            -25 -23 7 16 -36 hvcurveto
            -24 11 rlineto
            17 -37 -36 10 -44 hhcurveto
            -80 -85 -56 -130 -27 hvcurveto
            81 hlineto
            50 11 30 20 37 hhcurveto
            24 23 -7 -16 36 hvcurveto
            25 -11 rlineto
            -17 37 35 -10 44 hhcurveto
            return
          </CharString>
          <CharString index="113">
            1334 rmoveto
            -121 96 -78 139 156 108 92 134 121 -97 78 -139 -155 -108 -92 -134 vhcurveto
            141 -6 rmoveto
            86 58 61 64 59 36 -41 -67 -87 -59 -61 -63 -60 -35 42 67 vhcurveto
            return
          </CharString>
          <CharString index="114">
            1515 rmoveto
            -178 -109 -133 -206 -10 hvcurveto
            77 hlineto
            118 22 68 69 121 hhcurveto
            104 67 -65 -81 -16 -1 -16 -2 -9 hvcurveto
            77 hlineto
            12 29 9 39 34 vvcurveto
            139 -107 98 -150 vhcurveto
            return
          </CharString>
          <CharString index="115">
            247 1163 18 86 19 17 173 15 rlinecurve
            16 75 -565 0 -16 -76 rlineto
            155 -13 10 -17 -18 -88 -225 -1056 rcurveline
            -18 -86 -18 -17 -161 -15 -16 -76 rcurveline
            return
          </CharString>
          <CharString index="116">
            rmoveto
            114 125 0 callsubr
            81 callsubr
            109 callsubr
            -285 191 -142 185 vhcurveto
            endchar
          </CharString>
          <CharString index="117">
            276 1300 -89 callsubr
            9 -19 -9 -43 -72 -339 rcurveline
            -14 callgsubr
            return
          </CharString>
          <CharString index="118">
            rmoveto
            -346 80 callsubr
            -172 -810 192 0 107 callsubr
            endchar
          </CharString>
          <CharString index="119">
            1135 1073 hmoveto
            -4 callsubr
            8 callsubr
            return
          </CharString>
          <CharString index="120">
            1106 rmoveto
            240 423 -179 0 -134 -423 rlineto
            return
          </CharString>
          <CharString index="121">
            1813 rmoveto
            547 hlineto
            19 89 rlineto
            -547 hlineto
            return
          </CharString>
          <CharString index="122">
            670 480 194 -82 callsubr
            return
          </CharString>
          <CharString index="123">
            -39 hhcurveto
            -25 -24 6 14 -37 hvcurveto
            -25 9 rlineto
            return
          </CharString>
          <CharString index="124">
            710 482 -18 82 callsubr
            return
          </CharString>
          <CharString index="125">
            1881 171 callsubr
            return
          </CharString>
          <CharString index="126">
            1850 -72 callgsubr
            return
          </CharString>
          <CharString index="127">
            -36 callsubr
            102 116 return
          </CharString>
          <CharString index="128">
            -41 -34 -70 -107 callgsubr
            return
          </CharString>
          <CharString index="129">
            rmoveto
            -136 -163 -44 -22 -128 -12 rrcurveto
            -16 -76 465 0 15 76 -158 21 4 29 99 124 rlinecurve
            310 389 166 -389 52 -122 -14 -31 -168 -21 rlinecurve
            -16 -76 558 0 16 76 -100 19 -38 21 -47 108 rlinecurve
            -221 517 371 440 128 151 42 24 129 12 rlinecurve
            16 76 -465 0 -16 -76 158 -21 -3 -28 -100 -125 rlinecurve
            -295 -371 -158 371 -53 122 14 31 168 21 rlinecurve
            16 76 -558 0 -16 -76 rlineto
            105 -19 34 -21 46 -108 213 -498 rcurveline
            endchar
          </CharString>
          <CharString index="130">
            256 hlineto
            15 70 rlineto
            -79 17 -38 42 -93 224 -131 314 rcurveline
            216 62 161 133 215 vvcurveto
            231 -189 136 -309 vhcurveto
            -516 hlineto
            -16 -76 153 -14 14 -39 callgsubr
            540 0 16 76 rlineto
            -142 13 -12 17 19 87 92 433 rcurveline
            117 hlineto
            42 42 2 4 41 hvcurveto
            347 441 rmoveto
            -238 -179 -110 -252 -7 vhcurveto
            -139 -4 136 641 117 -3 rlineto
            204 -7 113 -95 -177 vvcurveto
            return
          </CharString>
          <CharString index="131">
            16 76 rlineto
            -174 15 -9 29 18 85 75 353 rcurveline
            132 hlineto
            366 326 148 338 249 -184 151 -346 hvcurveto
            -489 hlineto
            -16 -76 rlineto
            156 -14 13 -21 -19 -87 -224 -1048 rcurveline
            -19 -87 -21 -21 -161 -14 -16 -76 rcurveline
            672 1356 rmoveto
            102 -4 rlineto
            208 -8 126 -99 -196 vvcurveto
            -271 -195 -119 -274 -9 vhcurveto
            -119 -4 rlineto
            endchar
          </CharString>
          <CharString index="132">
            rmoveto
            -387 hlineto
            -16 -76 143 -13 11 -27 -24 -104 rlinecurve
            -233 -1012 -22 -96 -24 -20 -146 -20 rlinecurve
            -16 -76 443 0 16 76 -142 20 -11 20 20 96 rlinecurve
            214 1026 211 -1238 99 0 144 249 574 986 -204 -1042 -17 -88 -18 -15 -161 -14 rlinecurve
            -16 -76 -86 callgsubr
            endchar
          </CharString>
          <CharString index="133">
            309 234 201 358 81 hvcurveto
            198 871 rlineto
            -1 8 7 0 8 hhcurveto
            156 101 75 136 67 -28 67 -35 43 hvcurveto
            -68 hlineto
            5 -15 2 -24 -23 vvcurveto
            -151 -110 -130 -211 vhcurveto
            -125 hlineto
            -16 -76 rlineto
            153 30 callsubr
            129 -20 16 -20 -21 -96 rlinecurve
            endchar
          </CharString>
          <CharString index="134">
            rmoveto
            71 -64 130 152 1 1 66 -44 rlineto
            -87 130 72 -20 85 hhcurveto
            107 113 61 181 91 hvcurveto
            -51 42 rlineto
            -94 -59 -62 -29 -54 hhcurveto
            -87 -54 26 61 -101 hvcurveto
            -72 44 579 657 16 73 -710 0 -74 -302 rlineto
            66 hlineto
            124 49 24 17 93 hhcurveto
            326 hlineto
            return
          </CharString>
          <CharString index="135">
            rmoveto
            -364 2 231 -300 398 hhcurveto
            462 288 414 414 243 -105 215 -188 115 hvcurveto
            -5 32 36 -3 37 hhcurveto
            171 155 69 161 74 -33 69 -38 45 hvcurveto
            -69 hlineto
            5 -15 2 -24 -23 vvcurveto
            165 callsubr
            endchar
          </CharString>
          <CharString index="136">
            rmoveto
            -245 134 -192 254 321 195 295 312 157 -57 138 -123 72 vhcurveto
            -13 46 56 -9 54 hhcurveto
            169 114 75 144 68 -24 67 -35 -92 callgsubr
            -88 callgsubr
            endchar
          </CharString>
          <CharString index="137">
            -20 10 -20 -20 -96 -141 -685 rcurveline
            -308 -65 -195 -127 -194 hhcurveto
            -231 -152 148 333 72 hvcurveto
            138 639 21 96 24 20 157 20 rlinecurve
            15 76 -532 0 -16 -76 return
          </CharString>
          <CharString index="138">
            -106 -269 -96 -24 -269 -10 rrcurveto
            -318 -12 1030 1286 15 70 -960 0 -88 -360 rlineto
            67 hlineto
            83 212 59 39 247 9 rrcurveto
            323 12 -1029 -1286 -15 -70 rlineto
            return
          </CharString>
          <CharString index="139">
            rmoveto
            364 -265 254 -459 vhcurveto
            -450 hlineto
            -16 -76 rlineto
            153 -14 13 -16 -18 -88 87 callsubr
            -160 -14 -16 -76 rcurveline
            510 hlineto
            570 401 349 477 hvcurveto
            return
          </CharString>
          <CharString index="140">
            127 hlineto
            36 176 125 0 25 118 -125 0 103 490 -93 0 -516 -529 -17 -79 rlineto
            371 hlineto
            27 118 rmoveto
            -250 hlineto
            320 328 rlineto
            endchar
          </CharString>
          <CharString index="141">
            -285 180 -142 196 vhcurveto
            127 949 rmoveto
            77 38 -44 -84 -134 -153 -94 -221 -65 hvcurveto
            -43 -13 rlineto
            264 19 133 170 150 hhcurveto
            return
          </CharString>
          <CharString index="142">
            -48 -12 34 48 11 hvcurveto
            174 809 -99 0 -78 -89 rlineto
            62 -36 -77 49 -118 hhcurveto
            -316 -211 -327 -352 hvcurveto
            177 callsubr
            return
          </CharString>
          <CharString index="143">
            16 -145 -22 -27 -161 -20 46 callsubr
            -118 15 -25 24 -19 152 rlinecurve
            -675 327 rmoveto
            346 649 73 -649 rlineto
            return
          </CharString>
          <CharString index="144">
            rmoveto
            56 48 45 60 53 -40 40 -57 -57 -47 -45 -60 -53 41 -40 56 hvcurveto
            return
          </CharString>
          <CharString index="145">
            79 rlineto
            -35 -40 -59 -12 -32 hhcurveto
            -47 -12 160 callsubr
            endchar
          </CharString>
          <CharString index="146">
            rmoveto
            -182 -383 108 0 278 371 rlineto
            12 vlineto
            return
          </CharString>
          <CharString index="147">
            rmoveto
            120 hlineto
            1217 1444 rlineto
            -120 hlineto
            return
          </CharString>
          <CharString index="148">
            552 0 16 76 -155 14 -10 17 18 87 rlinecurve
            return
          </CharString>
          <CharString index="149">
            84 226 78 35 275 9 rrcurveto
            60 2 return
          </CharString>
          <CharString index="150">
            -39 -37 9 -105 callgsubr
            18 38 hhcurveto
            return
          </CharString>
          <CharString index="151">
            -47 -39 -49 -11 hvcurveto
            -49 -10 30 -38 50 hhcurveto
            return
          </CharString>
          <CharString index="152">
            hmoveto
            50 47 38 49 10 hvcurveto
            49 11 -31 39 return
          </CharString>
          <CharString index="153">
            rlinecurve
            -16 -76 548 0 16 76 return
          </CharString>
          <CharString index="154">
            rmoveto
            -63 45 -47 69 85 61 55 220 133 vhcurveto
            74 125 40 -124 rlineto
            -199 64 57 -74 110 hhcurveto
            81 57 34 54 38 hvcurveto
            16 79 rlineto
            -26 -26 -34 -17 -36 hhcurveto
            -56 -47 38 178 -55 hvcurveto
            -61 191 119 190 52 83 37 52 30 32 rlinecurve
            -42 14 40 -30 46 hhcurveto
            61 48 52 62 63 -45 47 -69 -85 -66 -54 -221 -127 hvcurveto
            -83 -143 -129 407 -292 -46 -14 -73 94 -13 53 -7 14 -15 16 -47 rlinecurve
            110 -342 -110 -171 -53 -82 -37 -51 -30 -33 rlinecurve
            42 -15 -39 30 -46 hhcurveto
            -61 -48 -52 -62 hvcurveto
            endchar
          </CharString>
          <CharString index="155">
            rmoveto
            274 242 164 270 164 -80 119 -188 120 hvcurveto
            -78 49 rlineto
            -157 100 -55 82 104 vvcurveto
            138 117 85 157 188 111 -106 -196 12 vhcurveto
            66 hlineto
            43 305 rlineto
            60 -76 -171 46 -162 hhcurveto
            -294 -192 -156 -239 -162 94 -119 183 -117 hvcurveto
            78 -49 rlineto
            153 -98 50 -83 -112 vvcurveto
            -165 -143 -95 -161 -200 -133 112 205 -13 vhcurveto
            -66 hlineto
            -51 -301 rlineto
            -66 79 209 -59 164 hhcurveto
            return
          </CharString>
          <CharString index="156">
            rmoveto
            3 -122 -172 -25 -122 -13 -13 -63 rcurveline
            2 13 20 3 23 hhcurveto
            137 49 -74 -67 hvcurveto
            -116 2 -90 -56 -93 hhcurveto
            -50 -35 10 15 -24 hvcurveto
            16 14 9 20 23 vvcurveto
            40 -28 33 -42 -42 -33 -32 -45 -96 123 -59 123 149 159 88 164 vhcurveto
            -2 98 -62 72 -102 29 109 15 119 64 -2 114 rrcurveto
            114 -107 60 -117 -126 -104 -78 -121 -41 vhcurveto
            45 -21 rlineto
            73 38 59 41 75 hhcurveto
            91 44 -55 -49 1 hvcurveto
            endchar
          </CharString>
          <CharString index="157">
            rmoveto
            281 212 231 397 58 hvcurveto
            265 36 -70 152 -140 hhcurveto
            -69 -67 -57 -105 8 hvcurveto
            138 -43 53 -155 -26 -182 rrcurveto
            -219 -32 -127 -160 -174 hhcurveto
            -141 -51 87 170 36 hvcurveto
            2 10 79 327 15 74 rrcurveto
            170 36 -68 72 -130 hhcurveto
            -71 -72 -26 -30 -45 hvcurveto
            -16 -75 rlineto
            5 12 18 6 28 hhcurveto
            71 56 -37 -99 -21 hvcurveto
            -19 -90 -75 -327 -3 -10 rrcurveto
            -206 -44 85 -145 237 hhcurveto
            endchar
          </CharString>
          <CharString index="158">
            rmoveto
            -67 67 127 -41 138 hhcurveto
            197 163 129 173 115 -44 88 -140 89 hvcurveto
            -64 40 rlineto
            -97 62 -36 43 72 vvcurveto
            81 61 55 108 125 76 -82 -140 -5 vhcurveto
            66 hlineto
            52 244 rlineto
            48 -64 -100 28 -150 hhcurveto
            -219 -130 -127 -161 -109 58 -90 128 -81 hvcurveto
            64 -40 rlineto
            100 -64 31 -49 -76 vvcurveto
            -91 -64 -59 -116 -128 -92 87 162 -1 vhcurveto
            -66 hlineto
            return
          </CharString>
          <CharString index="159">
            rmoveto
            242 -127 123 -142 -134 -113 -80 -154 -71 vhcurveto
            49 225 -55 callsubr
            -234 -1103 -11 -54 -23 -13 -137 -22 rlinecurve
            -16 -78 538 0 16 78 rlineto
            -164 23 -23 11 12 56 74 347 rcurveline
            -45 41 69 -32 94 124 callsubr
            -223 hhcurveto
            -90 -63 43 49 -13 hvcurveto
            87 405 rlineto
            215 46 112 108 107 hhcurveto
            99 57 -74 -183 -1 hvcurveto
            endchar
          </CharString>
          <CharString index="160">
            rmoveto
            -338 hlineto
            -16 -76 143 -13 10 -27 -23 -104 rlinecurve
            -223 -1012 -21 -100 -24 -20 -137 -16 rlinecurve
            -16 -76 447 0 16 76 -154 17 -10 19 20 100 rlinecurve
            197 1001 561 -1213 177 0 271 1232 22 100 23 20 137 16 rlinecurve
            16 76 -446 0 -16 -76 rlineto
            154 -16 9 -20 -20 -100 -197 -1004 rcurveline
            return
          </CharString>
          <CharString index="161">
            1492 776 -30 rmoveto
            309 236 201 358 79 hvcurveto
            156 703 21 96 23 20 137 20 rlinecurve
            16 76 -445 0 -16 -76 rlineto
            153 30 callsubr
            rlineto
            129 -20 16 -20 -21 -96 -140 -657 rcurveline
            -1 callsubr
            return
          </CharString>
          <CharString index="162">
            1639 931 -31 rmoveto
            430 342 349 471 369 -272 319 -416 -422 -350 -351 -469 -371 282 -317 406 hvcurveto
            -2 76 rmoveto
            -349 -251 277 334 439 330 306 358 357 242 -279 -332 -441 -321 -304 -366 hvcurveto
            return
          </CharString>
          <CharString index="163">
            31 138 -387 0 198 136 rlineto
            210 148 64 74 114 vvcurveto
            126 -107 65 -118 -135 -95 -81 -121 -45 vhcurveto
            43 -21 rlineto
            79 43 60 38 67 hhcurveto
            92 44 -54 -67 2 hvcurveto
            2 -90 -56 -64 -156 -127 rrcurveto
            -237 -191 -22 -103 rlineto
            endchar
          </CharString>
          <CharString index="164">
            1918 rmoveto
            -68 -63 -22 -21 -37 hvcurveto
            -13 -60 rlineto
            13 27 50 13 47 hhcurveto
            58 31 -20 -34 -8 hvcurveto
            -7 -33 -37 -19 -75 -18 rrcurveto
            56 -45 106 28 76 34 15 74 rlinecurve
            73 15 -83 37 -90 hhcurveto
            -588 -432 -40 callsubr
            return
          </CharString>
          <CharString index="165">
            rmoveto
            167 -130 126 -198 28 vhcurveto
            209 29 165 115 4 194 rrcurveto
            201 4 -170 128 -347 hhcurveto
            -474 hlineto
            -16 -76 rlineto
            154 -14 12 -17 -18 -87 87 callsubr
            149 callsubr
            endchar
          </CharString>
          <CharString index="166">
            1172 rmoveto
            147 153 86 179 65 hvcurveto
            -79 33 rlineto
            -141 -56 -106 -70 -117 hhcurveto
            -43 -37 13 19 -29 hvcurveto
            44 10 34 43 52 vvcurveto
            63 -48 48 -60 -69 -51 -53 -72 -127 115 -83 137 vhcurveto
            return
          </CharString>
          <CharString index="167">
            1595 rmoveto
            164 131 95 180 61 hvcurveto
            -81 26 rlineto
            -132 -49 -97 -82 -122 hhcurveto
            -35 -31 9 15 -24 hvcurveto
            36 12 27 36 43 vvcurveto
            60 -42 47 -57 -62 -45 -49 -67 -105 92 -88 134 vhcurveto
            return
          </CharString>
          <CharString index="168">
            1652 rmoveto
            -68 -66 -24 -26 -38 hvcurveto
            -16 -20 callgsubr
            -38 -22 -78 -21 rrcurveto
            56 -53 110 32 77 41 19 87 rlinecurve
            86 18 -84 42 -92 hhcurveto
            -561 -515 -65 callsubr
            return
          </CharString>
          <CharString index="169">
            99 0 76 89 rlineto
            -62 36 77 -49 118 124 callsubr
            -223 hhcurveto
            -89 -64 43 49 -13 hvcurveto
            87 405 rlineto
            215 46 112 108 107 hhcurveto
            99 57 -74 -183 -1 hvcurveto
            return
          </CharString>
          <CharString index="170">
            rmoveto
            -142 -717 rlineto
            -218 -43 93 -88 149 hhcurveto
            98 97 41 59 65 hvcurveto
            15 71 rlineto
            -31 -42 -56 -12 -62 hhcurveto
            -112 -47 60 142 32 hvcurveto
            159 693 rlineto
            endchar
          </CharString>
          <CharString index="171">
            1172 595 1014 rmoveto
            -55 callsubr
            -72 callsubr
            195 42 136 153 124 92 callsubr
            -70 callsubr
            return
          </CharString>
          <CharString index="172">
            95 -13 rlineto
            49 -8 10 -19 -9 -43 -232 -1090 rcurveline
            -142 -31 41 -72 115 hhcurveto
            -107 callsubr
            -106 callsubr
            -71 callsubr
            return
          </CharString>
          <CharString index="173">
            1529 rmoveto
            -152 -383 103 0 244 371 rlineto
            12 vlineto
            -491 -314 rmoveto
            -29 callgsubr
            565 hmoveto
            -29 callgsubr
            return
          </CharString>
          <CharString index="174">
            1529 rmoveto
            -189 -364 101 0 266 356 rlineto
            8 vlineto
            179 hmoveto
            -252 -364 101 0 351 356 rlineto
            8 vlineto
            return
          </CharString>
          <CharString index="175">
            hhcurveto
            322 hmoveto
            48 42 32 41 10 hvcurveto
            42 9 -29 33 -48 hhcurveto
            -9 hlineto
            -48 -42 -33 -42 -10 hvcurveto
            -41 -9 29 -32 48 hhcurveto
            return
          </CharString>
          <CharString index="176">
            1784 rmoveto
            48 43 32 41 9 hvcurveto
            42 10 -30 33 -48 hhcurveto
            -8 hlineto
            -48 -43 -33 -42 -9 hvcurveto
            -41 -10 30 -32 return
          </CharString>
          <CharString index="177">
            1420 rmoveto
            55 43 41 54 53 -43 43 -55 -55 -42 -43 -53 -54 42 -41 55 hvcurveto
            return
          </CharString>
          <CharString index="178">
            247 1163 60 -2 270 -9 63 -35 -12 -226 rlinecurve
            67 hlineto
            return
          </CharString>
          <CharString index="179">
            25 24 -7 -96 callgsubr
            -449 -275 -40 callsubr
            return
          </CharString>
          <CharString index="180">
            -247 -1163 -18 -86 -21 -16 -179 -16 rlinecurve
            -16 -75 return
          </CharString>
          <CharString index="181">
            rmoveto
            -432 -294 -290 -438 -18 vhcurveto
            -118 -5 return
          </CharString>
          <CharString index="182">
            rmoveto
            -216 -162 -166 -333 -10 vhcurveto
            -125 -4 return
          </CharString>
          <CharString index="183">
            1518 697 1444 53 callsubr
            return
          </CharString>
          <CharString index="184">
            593 0 16 75 -174 16 -12 16 18 86 rlinecurve
            return
          </CharString>
          <CharString index="185">
            550 0 15 76 -141 13 -18 18 18 87 rlinecurve
            return
          </CharString>
          <CharString index="186">
            50 47 38 49 10 hvcurveto
            49 11 -31 39 -50 hhcurveto
            return
          </CharString>
          <CharString index="187">
            -48 -16 -73 95 -13 49 -8 10 -18 -9 -44 rlinecurve
            return
          </CharString>
          <CharString index="188">
            -92 -18 -67 hhcurveto
            -157 -105 127 197 return
          </CharString>
          <CharString index="189">
            rmoveto
            98 101 37 62 50 hvcurveto
            16 80 rlineto
            -36 return
          </CharString>
          <CharString index="190">
            1053 919 -16 97 callsubr
            return
          </CharString>
          <CharString index="191">
            704 1445 105 callsubr
            return
          </CharString>
          <CharString index="192">
            10 callsubr
            177 callsubr
            return
          </CharString>
          <CharString index="193">
            -50 hhcurveto
            -9 hlineto
            -49 44 callsubr
            return
          </CharString>
          <CharString index="194">
            -226 -1056 rcurveline
            -19 -87 -18 -17 return
          </CharString>
          <CharString index="195">
            200 18 108 callsubr
          </CharString>
          <CharString index="196">
            194 147 callsubr
            endchar
          </CharString>
          <CharString index="197">
            0 589 -31 callsubr
            return
          </CharString>
          <CharString index="198">
            0 -16 -76 154 -14 12 -17 return
          </CharString>
          <CharString index="199">
            hhcurveto
            99 49 -80 -143 -31 hvcurveto
            return
          </CharString>
          <CharString index="200">
            rmoveto
            -62 48 -45 59 60 48 49 58 39 -21 34 -30 17 vhcurveto
            24 42 56 15 66 hhcurveto
            146 87 -94 -205 -26 hvcurveto
            -7 -51 -147 -11 rlineto
            -322 -25 -178 -110 -194 vvcurveto
            -151 123 -98 169 189 112 125 153 47 vhcurveto
            -179 45 127 -99 174 hhcurveto
            131 114 55 83 65 hvcurveto
            18 81 rlineto
            -66 -77 -82 -30 -85 hhcurveto
            -169 -93 124 197 20 1 20 1 19 hvcurveto
            83 5 rlineto
            384 23 143 129 155 vvcurveto
            142 -115 88 -185 -124 -119 -61 -103 -91 vhcurveto
            100 -46 -108 64 -165 hhcurveto
            -186 -162 -104 -131 hvcurveto
            987 136 rmoveto
            79 54 -44 -78 -112 -88 -95 -258 -24 hvcurveto
            -74 -6 rlineto
            212 34 110 147 143 hhcurveto
            -913 -670 rmoveto
            127 105 72 218 18 vhcurveto
            120 10 -2 -12 rlineto
            -270 -35 -99 -96 -139 hhcurveto
            -99 -69 51 100 hvcurveto
            endchar
          </CharString>
          <CharString index="201">
            rmoveto
            -993 hlineto
            -837 -1217 -80 -118 -34 -20 -138 -13 rlinecurve
            -15 -76 478 0 16 76 -163 17 -7 18 76 116 rlinecurve
            226 339 460 0 -63 -344 -21 -116 -4 -15 -158 -15 rlinecurve
            -16 -76 1058 0 102 403 rlineto
            -63 hlineto
            -99 -253 -94 -39 -272 -12 rrcurveto
            -252 -11 110 602 rlineto
            261 hlineto
            69 18 -30 -170 -9 hvcurveto
            64 hlineto
            105 497 rlineto
            -64 hlineto
            -174 -70 -27 -25 -65 hhcurveto
            -263 hlineto
            104 568 243 -11 247 -11 34 -44 8 -206 rlinecurve
            64 hlineto
            -888 262 rmoveto
            85 hlineto
            -126 -682 rlineto
            -413 hlineto
            endchar
          </CharString>
          <CharString index="202">
            1329 480 194 rmoveto
            109 511 163 0 297 -705 287 0 15 70 -74 21 -52 54 -88 206 rlinecurve
            -207 480 321 299 179 165 53 51 129 22 rlinecurve
            16 76 -481 0 -16 -76 158 -12 11 -38 -132 -131 rlinecurve
            -398 -393 -162 0 97 456 18 87 20 18 147 13 rlinecurve
            16 76 -540 0 -16 -76 -90 callsubr
            -93 callsubr
            540 0 15 76 -140 13 -12 18 18 87 rlinecurve
            return
          </CharString>
          <CharString index="203">
            rmoveto
            -135 74 -71 86 81 66 48 85 39 vhcurveto
            -1 -3 -4 -16 -4 vvcurveto
            -68 -13 26 -39 65 hhcurveto
            54 64 27 36 30 hvcurveto
            12 58 rlineto
            -15 -21 -30 -6 -18 hhcurveto
            -27 -9 19 34 8 hvcurveto
            88 412 -76 0 -54 -56 rlineto
            38 -22 -45 31 -72 hhcurveto
            -179 -123 -170 -205 1 hvcurveto
            146 10 rmoveto
            124 -2 58 164 119 hhcurveto
            46 32 -19 -21 7 hvcurveto
            -48 -224 rlineto
            -93 -19 -56 -49 -55 hhcurveto
            -49 -31 32 86 -2 hvcurveto
            endchar
          </CharString>
          <CharString index="204">
            rmoveto
            80 57 33 54 38 hvcurveto
            17 80 rlineto
            -27 -26 -34 -16 -35 hhcurveto
            -58 -43 39 177 -61 hvcurveto
            -104 298 161 128 171 137 63 31 92 17 rlinecurve
            13 66 -424 0 -14 -66 130 -10 9 -27 -124 -107 rlinecurve
            -329 -282 209 983 -68 callsubr
            192 0 86 403 127 102 82 -246 rlineto
            -194 65 63 -81 106 hhcurveto
            return
          </CharString>
          <CharString index="205">
            rmoveto
            188 122 153 180 144 -84 104 -154 -188 -122 -153 -180 -144 84 -104 154 hvcurveto
            6 74 rmoveto
            -57 -39 43 86 -3 hvcurveto
            126 -2 50 178 112 hhcurveto
            57 39 -43 -86 3 hvcurveto
            -126 2 -51 -178 -111 hhcurveto
            endchar
          </CharString>
          <CharString index="206">
            rmoveto
            463 287 414 413 132 callsubr
            hvcurveto
            -365 3 230 -300 398 hhcurveto
            -13 109 rmoveto
            -232 -160 176 335 393 209 370 328 231 161 -175 -336 -393 -215 -370 -322 hvcurveto
            return
          </CharString>
          <CharString index="207">
            rmoveto
            -105 3 98 -69 139 hhcurveto
            156 106 84 112 -5 hvcurveto
            105 -3 -98 69 -139 hhcurveto
            -156 -106 -83 -113 5 hvcurveto
            141 -5 rmoveto
            71 -3 56 48 63 hhcurveto
            59 37 -34 -54 3 hvcurveto
            -71 3 -56 -48 -63 hhcurveto
            -59 -38 34 54 -2 hvcurveto
            endchar
          </CharString>
          <CharString index="208">
            rmoveto
            -111 87 -70 125 141 96 84 120 110 -87 71 -125 -140 -97 -85 -119 vhcurveto
            128 -5 rmoveto
            77 51 53 58 53 33 -37 -59 -77 -52 -54 -57 -54 -32 37 60 vhcurveto
            return
          </CharString>
          <CharString index="209">
            rmoveto
            166 99 119 187 8 hvcurveto
            -71 hlineto
            -108 -19 -63 -62 -112 hhcurveto
            -97 -64 59 74 13 1 15 2 9 hvcurveto
            -72 hlineto
            -10 -27 -9 -35 1 -30 rrcurveto
            -125 100 -89 140 vhcurveto
            endchar
          </CharString>
          <CharString index="210">
            rmoveto
            59 47 46 59 hvcurveto
            54 -1 -41 39 -58 hhcurveto
            -58 -48 -45 -59 hvcurveto
            -54 1 41 -40 58 hhcurveto
            383 hmoveto
            59 47 46 59 54 -42 39 -58 -58 -48 -45 -59 1 hvcurveto
            -54 41 -40 58 vhcurveto
            endchar
          </CharString>
          <CharString index="211">
            rmoveto
            154 114 58 83 68 hvcurveto
            18 81 rlineto
            -74 -86 -96 -32 -123 hhcurveto
            -121 -83 55 82 85 45 56 177 64 hvcurveto
            30 10 rlineto
            187 66 122 80 174 vvcurveto
            160 return
          </CharString>
          <CharString index="212">
            rmoveto
            -67 hlineto
            -242 -104 -12 -57 141 30 7 1 3 -4 -1 -6 rlinecurve
            -109 -515 -11 -52 -33 -10 -118 -10 rlinecurve
            -11 -57 433 0 12 57 -112 10 -31 11 12 52 rlinecurve
            return
          </CharString>
          <CharString index="213">
            313 245 -134 192 -254 -321 -195 -295 -313 -245 133 -192 255 hvcurveto
            5 99 rmoveto
            -114 -76 97 189 125 callsubr
            hvcurveto
            return
          </CharString>
          <CharString index="214">
            135 681 rlineto
            109 77 113 56 119 hhcurveto
            34 31 -5 -7 17 hvcurveto
            13 16 11 33 26 vvcurveto
            64 -36 41 -60 -88 -75 -62 -200 -149 vhcurveto
            return
          </CharString>
          <CharString index="215">
            rmoveto
            252 1 117 311 223 hhcurveto
            89 63 -43 -48 14 hvcurveto
            -87 -406 rlineto
            -215 -46 -112 -108 -107 hhcurveto
            -99 -57 74 183 1 hvcurveto
            endchar
          </CharString>
          <CharString index="216">
            284 146 214 191 41 32 -9 -16 25 hvcurveto
            -43 -16 -31 -42 -49 vvcurveto
            -62 47 -51 65 70 51 54 66 129 -104 95 -9 callgsubr
            return
          </CharString>
          <CharString index="217">
            1790 rmoveto
            547 hlineto
            19 89 rlineto
            -547 hlineto
            222 -336 rmoveto
            51 39 35 46 44 -43 36 -52 -51 -39 -36 -44 -46 42 -35 53 hvcurveto
            return
          </CharString>
          <CharString index="218">
            rmoveto
            213 4 141 147 190 vvcurveto
            115 -61 61 -72 -89 -54 -82 -90 vhcurveto
            73 -16 47 -45 -67 vvcurveto
            -76 -69 -59 -113 -8 vhcurveto
            return
          </CharString>
          <CharString index="219">
            18 89 -265 0 39 169 -196 -18 -32 -151 -167 0 -18 -89 166 0 -256 -1204 -30 callsubr
            return
          </CharString>
          <CharString index="220">
            -61 -50 42 143 -4 hvcurveto
            212 -2 74 268 140 hhcurveto
            60 51 -42 -144 4 hvcurveto
            -211 2 -74 -268 -140 hhcurveto
            return
          </CharString>
          <CharString index="221">
            rmoveto
            -148 -280 81 0 210 274 rlineto
            6 vlineto
            143 hmoveto
            -200 -280 81 0 278 274 rlineto
            6 vlineto
            return
          </CharString>
          <CharString index="222">
            hlineto
            -16 -76 150 -14 15 -15 -19 -88 rlinecurve
            -224 -1058 -19 -88 -18 -14 -160 -15 rlinecurve
            -16 -76 570 0 return
          </CharString>
          <CharString index="223">
            805 587 1014 rmoveto
            -346 80 callsubr
            -172 -810 192 0 107 callsubr
            return
          </CharString>
          <CharString index="224">
            rmoveto
            -261 hlineto
            -13 -57 81 -8 5 -17 -13 -56 rlinecurve
            -119 -518 -11 -48 -14 -12 -82 -10 rlinecurve
            -13 -57 return
          </CharString>
          <CharString index="225">
            292 0 21 101 -292 -8 51 232 -200 -32 -44 -201 -168 -24 -14 -68 162 0 return
          </CharString>
          <CharString index="226">
            91 18 12 158 15 rlinecurve
            16 76 -548 0 -16 -76 144 -13 21 -15 -19 -90 rlinecurve
            endchar
          </CharString>
          <CharString index="227">
            1498 rmoveto
            515 -90 17 83 -503 146 rlineto
            -94 -446 -62 callsubr
            return
          </CharString>
          <CharString index="228">
            1498 rmoveto
            30 139 -566 -146 -17 -83 rlineto
            -45 -217 -62 callsubr
            return
          </CharString>
          <CharString index="229">
            199 -418 rmoveto
            55 42 41 54 53 -42 42 -55 -55 -43 -42 -53 -54 43 -41 55 hvcurveto
            return
          </CharString>
          <CharString index="230">
            493 1250 rmoveto
            -224 -1056 rlineto
            -19 -91 -24 -13 -154 -14 -16 -76 rcurveline
            return
          </CharString>
          <CharString index="231">
            hhcurveto
            316 211 327 353 hvcurveto
            -200 -19 rmoveto
            -252 -1 -117 -311 return
          </CharString>
          <CharString index="232">
            252 93 309 215 114 75 -97 -189 -252 -93 -309 -214 return
          </CharString>
          <CharString index="233">
            269 1268 87 -5 rlineto
            339 -19 155 -219 -280 vvcurveto
            return
          </CharString>
          <CharString index="234">
            -14 -65 94 -13 rlineto
            48 -8 10 -18 -9 -44 -84 -394 rcurveline
            -177 -37 return
          </CharString>
          <CharString index="235">
            rmoveto
            74 59 60 76 72 -60 60 -76 -74 -59 -60 -76 -72 60 -60 76 hvcurveto
            return
          </CharString>
          <CharString index="236">
            rmoveto
            74 59 59 77 72 -60 59 -76 -73 -60 -60 -76 -72 61 -59 75 hvcurveto
            return
          </CharString>
          <CharString index="237">
            rmoveto
            68 54 54 70 63 -47 47 -66 -67 -55 -54 -69 -64 47 -47 66 hvcurveto
            return
          </CharString>
          <CharString index="238">
            490 rmoveto
            202 -135 186 -398 vhcurveto
            -8 callgsubr
            return
          </CharString>
          <CharString index="239">
            365 -234 300 -397 -463 -290 -414 -413 3 return
          </CharString>
          <CharString index="240">
            90 19 13 158 15 rlinecurve
            16 76 -548 0 -16 -76 143 -13 return
          </CharString>
          <CharString index="241">
            rmoveto
            463 287 415 413 159 -45 147 -83 115 hvcurveto
            165 167 -68 67 -159 -161 rlineto
            106 -107 -149 65 -185 hhcurveto
            -463 -290 -415 -413 3 hvcurveto
            1 -158 45 -147 82 -115 rrcurveto
            -168 -170 68 -67 162 164 rlineto
            -107 107 149 -65 185 hhcurveto
            -405 621 rmoveto
            393 209 369 327 135 111 -60 -116 69 vhcurveto
            -816 -827 rlineto
            -23 68 -12 80 93 vvcurveto
            393 -512 rmoveto
            -136 -111 60 117 -69 hvcurveto
            817 828 rlineto
            23 -68 12 -81 -93 vvcurveto
            -394 -216 -369 -320 vhcurveto
            endchar
          </CharString>
          <CharString index="242">
            rmoveto
            -188 -2 106 -165 203 hhcurveto
            152 101 98 178 58 hvcurveto
            -192 3 132 -84 153 hhcurveto
            269 174 272 333 2 hvcurveto
            276 2 -127 164 -141 hhcurveto
            -77 -61 -62 -100 7 hvcurveto
            159 -44 116 -136 -1 -196 rrcurveto
            -204 -1 -116 -186 -148 hhcurveto
            -130 -81 89 265 57 hvcurveto
            54 248 -201 0 -49 -230 rlineto
            -263 -56 -77 -109 -120 hhcurveto
            -91 -62 64 165 1 hvcurveto
            1 290 122 236 186 109 rrcurveto
            -30 50 -322 -115 -162 -284 -3 -279 rlinecurve
            endchar
          </CharString>
          <CharString index="243">
            rmoveto
            137 121 84 184 117 hvcurveto
            2 -27 rlineto
            -173 14 69 -62 103 hhcurveto
            56 63 35 43 32 hvcurveto
            15 71 rlineto
            -10 -14 -27 -7 -23 hhcurveto
            -84 -30 26 230 -33 hvcurveto
            -9 62 304 567 rlineto
            -219 hlineto
            -31 -127 -44 -120 -41 -103 rrcurveto
            278 -18 -101 94 -171 hhcurveto
            -242 -231 -291 -393 -2 hvcurveto
            -196 -3 72 -165 218 hhcurveto
            -91 394 rmoveto
            338 2 136 207 144 hhcurveto
            119 20 -104 -422 34 hvcurveto
            -4 vlineto
            -193 -95 -98 -89 -102 hhcurveto
            -101 -60 84 183 1 hvcurveto
            endchar
          </CharString>
          <CharString index="244">
            rmoveto
            320 192 296 312 96 -21 89 -40 71 hvcurveto
            109 116 -66 62 -98 -104 rlineto
            66 -65 -90 40 -115 hhcurveto
            -320 -192 -296 -312 -98 21 -89 42 -72 hvcurveto
            -105 -111 66 -62 94 100 rlineto
            -65 65 89 -39 114 hhcurveto
            -188 386 rmoveto
            253 94 308 216 75 59 -42 -82 31 vhcurveto
            -472 -500 rlineto
            -2 20 -1 21 22 vvcurveto
            192 -289 rmoveto
            -74 -58 41 79 -32 hvcurveto
            470 499 rlineto
            2 -18 1 -20 -20 vvcurveto
            -253 -93 -308 -216 vhcurveto
            endchar
          </CharString>
          <CharString index="245">
            hmoveto
            571 hlineto
            59 279 rlineto
            -183 74 -111 148 239 vvcurveto
            365 213 259 338 271 176 -177 -284 -298 -172 -266 -320 -69 vhcurveto
            -60 -270 599 0 102 312 rlineto
            -61 hlineto
            -116 -159 -75 -23 -331 -1 15 72 rcurveline
            434 79 219 305 309 vvcurveto
            335 -274 244 -384 -486 -321 -317 -385 -277 193 -202 232 -67 vhcurveto
            -19 -96 -327 1 -37 19 -54 163 rlinecurve
            -61 hlineto
            return
          </CharString>
          <CharString index="246">
            rmoveto
            213 150 63 109 81 hvcurveto
            17 84 rlineto
            -71 -68 -160 -60 -151 hhcurveto
            -147 -73 62 95 141 124 62 262 hvcurveto
            32 hlineto
            21 143 rlineto
            -76 hlineto
            -201 -70 52 89 107 85 71 168 90 65 -17 -25 43 hvcurveto
            -39 -21 -15 -45 -29 vvcurveto
            -55 1 47 -49 64 hhcurveto
            64 49 48 72 122 -104 97 -257 -306 -142 -139 -173 -106 69 -79 123 -35 hvcurveto
            -198 -34 -107 -88 -154 vvcurveto
            -129 118 -108 228 vhcurveto
            endchar
          </CharString>
          <CharString index="247">
            rmoveto
            78 76 54 42 34 hvcurveto
            16 82 rlineto
            -30 -47 -35 -13 -30 hhcurveto
            -42 -40 23 58 -35 hvcurveto
            -223 363 124 130 91 94 53 58 45 35 rlinecurve
            -56 8 44 -39 64 hhcurveto
            61 52 50 67 61 -38 60 -88 -95 -83 -82 -185 -170 hvcurveto
            -227 -248 108 506 -366 -48 -15 -26 callgsubr
            108 504 233 -379 rlineto
            -99 59 40 -42 76 hhcurveto
            endchar
          </CharString>
          <CharString index="248">
            rmoveto
            -13 -75 -165 -20 -14 -68 163 0 -162 -917 -50 -281 -62 -70 -87 -10 rlinecurve
            9 15 5 18 19 vvcurveto
            59 -46 42 -55 -56 -45 -44 -61 -78 61 -64 120 190 160 182 485 87 vhcurveto
            125 705 240 0 22 101 -246 -7 25 143 rlineto
            221 39 66 78 89 hhcurveto
            4 hlineto
            -15 -18 -8 -22 -25 vvcurveto
            -62 46 -44 56 61 49 46 64 82 -72 71 -133 -203 -130 -167 -298 -55 vhcurveto
            endchar
          </CharString>
          <CharString index="249">
            198 hlineto
            113 537 rlineto
            233 50 115 128 139 hhcurveto
            90 85 -61 -211 -43 hvcurveto
            -30 -145 -148 -672 -57 -269 rrcurveto
            193 hlineto
            240 1133 rlineto
            242 51 -122 108 -179 hhcurveto
            -162 -115 -109 -149 -67 hvcurveto
            196 22 -75 50 -99 hhcurveto
            -67 -58 -21 -34 -51 hvcurveto
            -16 -74 rlineto
            5 14 21 5 29 hhcurveto
            63 50 -33 -133 -22 hvcurveto
            -25 -155 -99 -412 -38 -159 rrcurveto
            endchar
          </CharString>
          <CharString index="250">
            rmoveto
            74 56 29 33 31 hvcurveto
            16 75 rlineto
            -19 -24 -32 -13 -35 hhcurveto
            -60 -38 53 74 71 34 80 80 76 hvcurveto
            453 11 279 409 408 vvcurveto
            364 -234 301 -397 -463 -290 -415 -413 3 vhcurveto
            3 -347 209 -289 363 -27 rrcurveto
            -128 -83 -87 -105 -106 vvcurveto
            -98 78 -69 109 vhcurveto
            72 568 rmoveto
            -232 -161 176 336 393 209 369 327 -23 callgsubr
            hvcurveto
            endchar
          </CharString>
          <CharString index="251">
            rmoveto
            -73 57 -54 84 165 130 98 339 233 vhcurveto
            561 816 76 111 33 19 139 16 rlinecurve
            16 76 -478 0 -16 -76 184 -21 -5 -6 -78 -119 rlinecurve
            -468 -714 -163 714 -27 119 -3 6 194 21 rlinecurve
            15 76 -577 0 -15 -76 133 -16 27 -16 29 -114 rlinecurve
            232 -920 -79 -110 -78 -72 -77 -35 rlinecurve
            1 7 1 7 7 vvcurveto
            65 -53 51 -66 -70 -57 -57 -69 vhcurveto
            endchar
          </CharString>
          <CharString index="252">
            rmoveto
            -999 hlineto
            -16 -76 155 -14 11 -17 -18 -87 rlinecurve
            -226 -1056 -19 -87 -17 -17 -161 -14 rlinecurve
            -16 -76 572 0 16 75 rlineto
            -173 16 -12 16 18 86 105 496 rcurveline
            241 hlineto
            68 19 -29 -174 -9 hvcurveto
            62 hlineto
            105 495 rlineto
            -63 hlineto
            -178 -73 -26 -25 -64 hhcurveto
            -241 hlineto
            123 578 223 -8 217 -8 64 -42 1 -214 rlinecurve
            68 hlineto
            endchar
          </CharString>
          <CharString index="253">
            rmoveto
            69 65 27 35 34 hvcurveto
            16 75 rlineto
            -19 -23 -33 -13 -34 hhcurveto
            -59 -44 42 81 77 37 87 59 70 hvcurveto
            298 23 180 284 300 vvcurveto
            245 -134 192 -254 -322 -194 -295 -313 -230 118 -183 225 -22 vhcurveto
            -113 -81 -71 -106 -105 vvcurveto
            -100 74 -71 106 vhcurveto
            54 560 rmoveto
            -114 -76 97 189 125 callsubr
            hvcurveto
            endchar
          </CharString>
          <CharString index="254">
            42 130 154 118 hhcurveto
            97 46 -80 -129 -28 hvcurveto
            -147 -689 192 0 117 550 rlineto
            194 41 128 154 120 hhcurveto
            96 47 -80 -142 -81 callgsubr
            47 -85 133 -192 hhcurveto
            -143 -114 -98 -159 -72 hvcurveto
            151 8 -71 106 -173 hhcurveto
            -144 -107 -81 -181 -82 hvcurveto
            55 253 -55 callsubr
            return
          </CharString>
          <CharString index="255">
            12 -18 3 -43 63 -812 rcurveline
            118 hlineto
            166 220 124 218 62 163 38 -601 rcurveline
            114 hlineto
            282 297 248 413 179 vvcurveto
            81 -51 53 -77 -75 -53 -53 -66 -63 53 -52 67 vhcurveto
            -59 -210 -125 -199 -163 -196 rrcurveto
            -51 830 -172 -30 8 -130 -21 -212 -145 -242 -119 -204 rlinecurve
            return
          </CharString>
          <CharString index="256">
            -159 -14 -16 -76 rcurveline
            532 hlineto
            421 290 163 293 hvcurveto
            -168 652 rmoveto
            -182 -135 -127 -231 vhcurveto
            -161 hlineto
            119 557 121 -4 rlineto
            192 -6 95 -77 -161 vvcurveto
            -61 -668 rmoveto
            -221 -156 -116 -338 -11 vhcurveto
            -122 -4 132 623 161 -1 rlineto
            218 105 -105 -165 hvcurveto
            return
          </CharString>
          <CharString index="257">
            549 hlineto
            15 76 -142 13 -21 16 19 89 rlinecurve
            10 47 875 792 -179 -839 -19 -91 -18 -12 -157 -15 46 callsubr
            -144 13 -21 15 19 90 -50 callgsubr
            148 -14 16 -13 -19 -91 rlinecurve
            -13 -60 -875 -792 181 852 19 90 23 14 -106 callgsubr
            -28 callgsubr
            endchar
          </CharString>
          <CharString index="258">
            -173 16 -13 16 18 86 rlinecurve
            97 457 418 518 130 162 40 22 117 16 rlinecurve
            16 76 -440 0 -16 -76 152 -18 -3 -34 -106 -137 rlinecurve
            -341 -446 -156 446 -48 136 13 35 160 18 rlinecurve
            16 76 -542 0 -15 -76 111 -16 29 -27 54 -145 rlinecurve
            return
          </CharString>
          <CharString index="259">
            rmoveto
            -366 -48 -16 -73 94 -13 rlineto
            51 -6 10 -20 -9 -44 -84 -397 rcurveline
            -257 -54 105 -178 298 hhcurveto
            252 185 146 211 213 -174 94 -208 -64 -65 -9 -13 -38 hvcurveto
            -54 -254 rmoveto
            35 165 rlineto
            10 36 55 9 52 hhcurveto
            148 82 -75 -142 -17 callgsubr
          </CharString>
          <CharString index="260">
            151 -1177 164 0 651 1171 87 158 29 24 133 15 rlinecurve
            15 76 -450 0 -16 -76 150 -20 13 -25 -79 -147 rlinecurve
            -520 -978 -109 979 -16 144 22 27 161 20 rlinecurve
            16 76 -549 0 -15 -76 116 -15 27 -24 19 -152 rlinecurve
            return
          </CharString>
          <CharString index="261">
            262 -242 rmoveto
            113 78 42 64 14 hvcurveto
            64 14 -62 41 -112 hhcurveto
            -81 hlineto
            -110 -81 -41 -64 -13 hvcurveto
            -64 -14 64 -42 109 hhcurveto
            90 63 rmoveto
            -71 hlineto
            -41 -18 17 26 5 hvcurveto
            25 5 27 17 41 hhcurveto
            70 hlineto
            43 17 -17 -25 -5 hvcurveto
            -26 -5 -26 -17 -42 hhcurveto
            return
          </CharString>
          <CharString index="262">
            241 -330 rmoveto
            118 86 56 85 18 hvcurveto
            85 17 -61 56 -118 hhcurveto
            -86 hlineto
            -115 -89 -56 -85 -17 hvcurveto
            -85 -19 65 -56 115 hhcurveto
            98 84 rmoveto
            -75 hlineto
            -42 -19 24 33 7 hvcurveto
            33 7 30 24 42 hhcurveto
            75 hlineto
            44 17 -24 -33 -7 hvcurveto
            -33 -7 -28 -24 -44 hhcurveto
            return
          </CharString>
          <CharString index="263">
            rmoveto
            321 196 295 312 246 -132 192 -254 -321 -196 -295 -312 -246 132 -192 254 hvcurveto
            7 99 rmoveto
            -116 -73 97 190 250 105 310 201 116 73 -97 -190 -250 -104 -310 -202 hvcurveto
            endchar
          </CharString>
          <CharString index="264">
            1305 1303 456 rmoveto
            167 -130 126 -198 28 vhcurveto
            209 29 165 115 4 194 rrcurveto
            201 4 -170 128 -347 hhcurveto
            -474 hlineto
            -16 -76 rlineto
            154 -14 12 -17 -18 -87 87 callsubr
            149 callsubr
            return
          </CharString>
          <CharString index="265">
            rmoveto
            78 55 58 173 19 hvcurveto
            -72 hlineto
            -96 -13 -23 -21 -29 hhcurveto
            -23 -18 12 24 -24 hvcurveto
            -27 24 rlineto
            30 -33 -35 17 -44 hhcurveto
            -76 -58 -58 -173 -17 hvcurveto
            72 hlineto
            96 13 22 21 29 hhcurveto
            23 18 -12 -23 25 hvcurveto
            26 -25 rlineto
            -30 34 34 -17 44 hhcurveto
            return
          </CharString>
          <CharString index="266">
            507 118 -634 77 0 113 223 265 413 -99 -517 -9 -45 -10 -10 -90 -8 rlinecurve
            -13 -57 342 0 13 57 -83 8 -9 9 9 46 rlinecurve
            105 542 9 45 12 11 89 8 rlinecurve
            13 57 -278 1 -327 -550 rlineto
            return
          </CharString>
          <CharString index="267">
            35 48 10 hvcurveto
            164 768 rlineto
            -1 8 9 0 8 hhcurveto
            119 82 64 123 67 -24 67 -36 -92 callgsubr
            -150 -79 -98 -248 -35 vhcurveto
            -131 -19 127 callsubr
            -111 -130 -141 hhcurveto
            -103 -54 72 141 30 hvcurveto
            return
          </CharString>
          <CharString index="268">
            21 -16 -19 -89 rlinecurve
            -246 -1155 -582 0 246 1155 19 91 18 12 157 15 rlinecurve
            15 76 -546 0 -16 -76 144 -13 20 -15 -19 -90 rlinecurve
            -246 -1155 -583 0 246 1155 19 119 callsubr
          </CharString>
          <CharString index="269">
            1956 rmoveto
            -71 -66 -21 -21 -38 hvcurveto
            -14 -60 rlineto
            12 28 52 14 49 hhcurveto
            60 34 -20 -34 -8 hvcurveto
            -7 -33 -39 -19 -79 -18 rrcurveto
            59 -45 111 27 79 35 15 74 rlinecurve
            73 15 -86 36 -94 hhcurveto
            -65 -435 -10 callsubr
            return
          </CharString>
          <CharString index="270">
            -105 -272 -69 -24 -279 -10 rrcurveto
            -248 -9 128 608 rlineto
            264 hlineto
            68 18 -31 -173 -8 hvcurveto
            64 hlineto
            105 495 rlineto
            -63 hlineto
            -177 -73 -27 -26 -65 hhcurveto
            -264 hlineto
            122 572 249 -9 218 -8 return
          </CharString>
          <CharString index="271">
            -200 -31 -118 -558 rlineto
            -178 -37 -134 -146 -132 hhcurveto
            -96 -37 75 128 28 hvcurveto
            151 710 -201 -29 -118 -560 rlineto
            -179 -38 -134 -145 -131 hhcurveto
            -96 -37 75 128 27 hvcurveto
            return
          </CharString>
          <CharString index="272">
            -143 -89 -138 -182 vhcurveto
            -121 -84 24 -160 hhcurveto
            -463 -290 -414 -414 3 hvcurveto
            226 -43 rmoveto
            393 209 369 327 -23 callgsubr
            -233 -160 176 336 vhcurveto
            return
          </CharString>
          <CharString index="273">
            -490 rmoveto
            75 65 27 34 31 hvcurveto
            16 76 rlineto
            -20 -30 -38 -12 -42 hhcurveto
            -59 -37 27 65 80 52 90 156 96 hvcurveto
            96 58 -78 0 -97 -55 rlineto
            -203 -117 -83 -94 -103 vvcurveto
            -96 78 -56 98 vhcurveto
            endchar
          </CharString>
          <CharString index="274">
            1770 rmoveto
            52 39 35 46 hvcurveto
            45 -1 -42 36 -52 hhcurveto
            -52 -38 -36 -45 -46 43 -35 51 hvcurveto
            257 -25 rmoveto
            -300 -96 -260 96 -15 -70 225 -140 52 0 284 140 rlineto
            return
          </CharString>
          <CharString index="275">
            -528 0 -16 -76 151 -19 5 -25 -71 -147 rlinecurve
            -470 -973 -65 973 -10 146 16 25 161 20 rlinecurve
            16 76 -543 0 -15 -76 116 -15 32 -22 13 -154 rlinecurve
            return
          </CharString>
          <CharString index="276">
            -85 -360 rlineto
            66 hlineto
            100 242 63 18 221 8 rrcurveto
            110 4 -247 -1163 -18 -85 -17 -15 -180 -17 rlinecurve
            -16 -76 587 0 16 76 rlineto
            -170 17 -13 15 18 85 return
          </CharString>
          <CharString index="277">
            1652 rmoveto
            -69 -66 -24 -26 -38 hvcurveto
            -15 -20 callgsubr
            -39 -22 -78 -21 rrcurveto
            56 -53 110 32 78 41 18 87 rlinecurve
            86 18 -83 42 -92 hhcurveto
            -81 -513 -9 callsubr
            return
          </CharString>
          <CharString index="278">
            rmoveto
            -164 -98 -113 -176 -6 hvcurveto
            75 hlineto
            102 18 62 59 108 hhcurveto
            93 62 -55 -70 -14 -1 -13 -2 -9 hvcurveto
            75 hlineto
            10 25 8 33 30 vvcurveto
            118 -2 -100 83 -138 hhcurveto
            return
          </CharString>
          <CharString index="279">
            rmoveto
            163 99 113 176 6 hvcurveto
            -75 hlineto
            -101 -19 -61 -59 -108 hhcurveto
            -93 -63 55 70 13 1 14 2 8 hvcurveto
            -74 hlineto
            -10 -25 -8 -33 -29 vvcurveto
            -119 2 99 -83 139 hhcurveto
            return
          </CharString>
          <CharString index="280">
            -106 -498 rcurveline
            -194 -41 61 -140 189 hhcurveto
            112 141 57 186 103 hvcurveto
            -145 -6 68 -98 159 hhcurveto
            114 145 60 195 102 hvcurveto
            -1 -10 -46 -1 vvcurveto
            return
          </CharString>
          <CharString index="281">
            11 -18 4 -43 66 -812 rcurveline
            118 hlineto
            282 297 258 406 186 vvcurveto
            81 -51 -95 callgsubr
            2 hlineto
            -56 -204 -138 -206 -161 -195 rrcurveto
            return
          </CharString>
          <CharString index="282">
            vvcurveto
            228 157 91 160 51 44 -9 -15 33 vhcurveto
            -28 -16 -20 -30 -43 vvcurveto
            -53 35 -52 70 60 48 47 60 116 -117 99 -213 -229 -252 -143 -310 return
          </CharString>
          <CharString index="283">
            rmoveto
            -70 -67 -31 -37 -33 hvcurveto
            -14 -60 rlineto
            20 29 40 13 47 hhcurveto
            69 30 -25 -39 -52 -63 -53 -83 -51 hvcurveto
            87 hlineto
            110 48 85 59 79 vvcurveto
            71 -59 58 -108 vhcurveto
            return
          </CharString>
          <CharString index="284">
            200 18 rmoveto
            252 1 117 311 223 hhcurveto
            89 63 -43 -48 14 hvcurveto
            -87 -406 rlineto
            -215 -46 -112 -108 -107 hhcurveto
            -99 -57 74 183 1 hvcurveto
            return
          </CharString>
        <CharString name=".notdef">
          2048 29 -494 rmoveto
          141 hlineto
          519 2444 rlineto
          -141 hlineto
          -109 -25 callgsubr
          -109 -25 callgsubr
          -110 -25 callgsubr
          -109 -25 callgsubr
          endchar
        </CharString>
        <CharString name=".null">
          0 endchar
        </CharString>
        <CharString name="A">
          1362 1223 267 -99 callsubr
        </CharString>
        <CharString name="AE">
          1977 2093 1444 94 callsubr
        </CharString>
        <CharString name="AEacute">
          1977 1652 -97 callsubr
          253 -404 94 callsubr
        </CharString>
        <CharString name="AEmacron">
          1977 1292 -56 callsubr
          775 -320 94 callsubr
        </CharString>
        <CharString name="Aacute">
          1362 1135 -97 callsubr
          -100 -1581 -99 callsubr
        </CharString>
        <CharString name="Abreve">
          1362 1044 -18 callsubr
          179 -1325 -99 callsubr
        </CharString>
        <CharString name="Abreveacute">
          1362 1332 -19 callsubr
          222 -239 -10 callsubr
          231 -1254 -99 callsubr
        </CharString>
        <CharString name="Abrevecyrillic">
          1362 995 60 callsubr
          228 -1328 -99 callsubr
        </CharString>
        <CharString name="Abrevedotbelow">
          1362 1044 -18 callsubr
          179 -1325 rmoveto
          -13 callsubr
          36 callsubr
          -376 -805 -100 callsubr
        </CharString>
        <CharString name="Abrevegrave">
          1362 786 1836 -42 callsubr
          182 -434 -10 callsubr
          231 -1254 -99 callsubr
        </CharString>
        <CharString name="Abrevehookabove">
          1362 1057 162 callsubr
          231 -1254 -99 callsubr
        </CharString>
        <CharString name="Abrevetilde">
          1362 1165 1782 rmoveto
          84 83 47 111 23 hvcurveto
          -83 hlineto
          -43 -8 -30 -17 16 callsubr
          14 -39 -37 10 -105 callgsubr
          17 38 hhcurveto
          25 24 -6 -96 callgsubr
          -173 -261 -10 callsubr
          231 -1254 -99 callsubr
        </CharString>
        <CharString name="Acaron">
          1362 1230 -79 callsubr
          -94 -1611 -99 callsubr
        </CharString>
        <CharString name="Acircumflex">
          1362 843 -78 callsubr
          466 -1303 -99 callsubr
        </CharString>
        <CharString name="Acircumflexacute">
          1362 1327 1815 -38 callsubr
          -53 -253 -40 callsubr
          496 -1289 -99 callsubr
        </CharString>
        <CharString name="Acircumflexdotbelow">
          1362 843 -78 callsubr
          466 -1303 rmoveto
          -13 callsubr
          36 callsubr
          -376 -805 -100 callsubr
        </CharString>
        <CharString name="Acircumflexgrave">
          1362 781 1815 -42 callsubr
          -93 -448 -40 callsubr
          496 -1289 -99 callsubr
        </CharString>
        <CharString name="Acircumflexhookabove">
          1362 1300 57 callsubr
          496 -1289 -99 callsubr
        </CharString>
        <CharString name="Acircumflextilde">
          1362 1161 1761 -44 callsubr
          16 callsubr
          15 43 callsubr
          72 callsubr
          496 -1289 -99 callsubr
        </CharString>
        <CharString name="Acyrillic">
          1362 1223 267 -99 callsubr
        </CharString>
        <CharString name="Adblgrave">
          1362 821 19 callsubr
          63 -1303 -99 callsubr
        </CharString>
        <CharString name="Adieresis">
          1362 867 -67 callsubr
          31 -1345 -99 callsubr
        </CharString>
        <CharString name="Adieresismacron">
          1362 781 14 callsubr
          30 -353 -51 callsubr
          89 -1282 -99 callsubr
        </CharString>
        <CharString name="Adotaccent">
          1362 1029 -85 callsubr
          194 -1343 -99 callsubr
        </CharString>
        <CharString name="Adotbelow">
          1362 1223 267 rmoveto
          -13 callsubr
          36 callsubr
          -376 -805 -100 callsubr
        </CharString>
        <CharString name="Adotmacron">
          1362 776 110 callsubr
          206 -1276 -99 callsubr
        </CharString>
        <CharString name="Agrave">
          1362 946 -39 callsubr
          159 -1304 -99 callsubr
        </CharString>
        <CharString name="Ahookabove">
          1362 1055 -20 callsubr
          168 -1630 -99 callsubr
        </CharString>
        <CharString name="Ainvertedbreve">
          1362 1031 18 callsubr
          192 -1614 -99 callsubr
        </CharString>
        <CharString name="Alphagreek">
          1362 1223 267 -99 callsubr
        </CharString>
        <CharString name="Alphatonosgreek">
          1362 1223 267 rmoveto
          -13 callsubr
          16 -145 -22 -27 -161 -20 46 callsubr
          -118 15 -25 24 -19 152 rlinecurve
          -711 1177 39 callsubr
          -168 -850 rmoveto
          346 649 73 -649 rlineto
          endchar
        </CharString>
        <CharString name="Amacron">
          1362 775 -56 callsubr
          422 -1497 -99 callsubr
        </CharString>
        <CharString name="Aogonek">
          1362 1034 -56 callgsubr
          77 78 39 86 88 84 hvcurveto
          221 hlineto
          16 76 -118 15 -25 24 -19 152 rlinecurve
          -13 callsubr
          rlineto
          16 -145 -22 -27 -161 -20 -16 -76 rcurveline
          254 -18 callgsubr
          -486 1077 rmoveto
          346 649 73 -649 rlineto
          endchar
        </CharString>
        <CharString name="Aring">
          1362 818 1747 101 callsubr
          277 -1475 -99 callsubr
        </CharString>
        <CharString name="Aringacute">
          1362 1328 1820 -38 callsubr
          154 callsubr
          186 -1298 -99 callsubr
        </CharString>
        <CharString name="Aringbelow">
          1362 1223 267 rmoveto
          -13 callsubr
          36 callsubr
          -630 -915 100 callsubr
        </CharString>
        <CharString name="Atilde">
          1362 1130 -37 callsubr
          93 -1345 -99 callsubr
        </CharString>
        <CharString name="B">
          1305 1303 456 58 callsubr
        </CharString>
        <CharString name="Bdotaccent">
          1305 953 -85 callsubr
          350 -1154 58 callsubr
        </CharString>
        <CharString name="Bdotbelow">
          157 callsubr
          -525 -651 -100 callsubr
        </CharString>
        <CharString name="Becyrillic">
          1300 1316 468 rmoveto
          193 -135 177 -398 vhcurveto
          -151 hlineto
          110 517 240 -10 247 -11 35 -44 7 -206 rlinecurve
          65 hlineto
          64 360 -1037 0 -16 -76 rlineto
          169 -16 15 -13 -19 -89 -224 -1057 rcurveline
          -19 -88 -22 -1 callgsubr
          185 283 hvcurveto
          -224 -5 5 callgsubr
          138 651 rlineto
          144 hlineto
          216 122 -93 -184 hvcurveto
          endchar
        </CharString>
        <CharString name="Betagreek">
          1305 1303 456 58 callsubr
        </CharString>
        <CharString name="Blinebelow">
          157 callsubr
          -791 -808 -80 callsubr
        </CharString>
        <CharString name="C">
          1420 481 629 -25 callsubr
          -7 callsubr
        </CharString>
        <CharString name="Cacute">
          1420 1271 -97 callsubr
          -978 -1219 -25 callsubr
          -7 callsubr
        </CharString>
        <CharString name="Ccaron">
          1420 1366 -79 callsubr
          -972 -1249 -25 callsubr
          -7 callsubr
        </CharString>
        <CharString name="Ccedilla">
          1420 481 629 -25 callsubr
          -1 -387 235 -258 343 -32 rrcurveto
          -104 -117 -63 callsubr
          21 callsubr
          157 93 78 111 -36 callsubr
          -52 callgsubr
        </CharString>
        <CharString name="Ccedillaacute">
          1420 1271 -97 callsubr
          -978 -1219 -25 callsubr
          -1 -387 235 -258 343 -32 rrcurveto
          -104 -117 -63 callsubr
          21 callsubr
          157 93 78 111 -36 callsubr
          -52 callgsubr
        </CharString>
        <CharString name="Ccircumflex">
          1420 979 -78 callsubr
          -412 -941 -25 callsubr
          -7 callsubr
        </CharString>
        <CharString name="Cdotaccent">
          1420 1165 -85 callsubr
          -684 -981 -25 callsubr
          -7 callsubr
        </CharString>
        <CharString name="Checyrillic">
          1544 1151 194 rmoveto
          -19 -91 -19 -12 -158 -15 rrcurveto
          -16 -76 550 0 16 76 -145 13 -20 14 19 91 -50 callgsubr
          rlineto
          147 -14 16 -14 -19 -90 -114 -539 rcurveline
          -31 -114 -103 -23 -115 hhcurveto
          -235 -95 122 259 56 hvcurveto
          46 212 20 90 22 14 152 14 rlinecurve
          15 76 -546 0 -16 -76 rlineto
          148 -14 17 -14 -19 -90 -45 -214 rcurveline
          -323 -69 170 -153 356 hhcurveto
          133 87 24 32 114 hvcurveto
          endchar
        </CharString>
        <CharString name="Chigreek">
          1314 324 273 22 callsubr
        </CharString>
        <CharString name="D">
          1487 -2 callsubr
          -33 callsubr
          endchar
        </CharString>
        <CharString name="Dbar">
          1487 207 694 rmoveto
          172 hlineto
          -107 -500 rlineto
          -19 -87 -18 -17 -160 -14 -16 -76 rcurveline
          510 hlineto
          571 400 349 477 364 -265 254 -459 hvcurveto
          -450 hlineto
          -16 -76 rlineto
          153 -14 13 -16 -18 -88 -99 -464 rcurveline
          -172 hlineto
          1081 47 74 callsubr
          129 606 279 0 20 92 -280 0 121 570 87 -5 rlineto
          339 -19 155 -219 -280 vvcurveto
          endchar
        </CharString>
        <CharString name="Dcaron">
          1487 1144 -79 callsubr
          309 -1052 32 callsubr
          -33 callsubr
          endchar
        </CharString>
        <CharString name="Dcircumflexbelow">
          1487 -2 callsubr
          -33 callsubr
          -945 -1307 -66 callsubr
        </CharString>
        <CharString name="Dcommaaccent">
          1487 -2 callsubr
          -33 callsubr
          -772 -1323 -75 callsubr
        </CharString>
        <CharString name="Ddotaccent">
          1487 943 -85 callsubr
          597 -784 32 callsubr
          -33 callsubr
          endchar
        </CharString>
        <CharString name="Ddotbelow">
          1487 -2 callsubr
          -33 callsubr
          -744 -1044 -100 callsubr
        </CharString>
        <CharString name="Decyrillic">
          1481 639 795 rmoveto
          63 235 49 198 28 117 rrcurveto
          530 hlineto
          -267 -1246 rlineto
          -688 hlineto
          111 132 71 187 103 377 rrcurveto
          822 -696 rmoveto
          -212 hlineto
          245 1151 19 90 24 14 154 14 rlinecurve
          16 76 -1211 0 -16 -76 rlineto
          162 -18 15 -21 -36 -158 -36 -149 -34 -124 -27 -98 -92 -338 -78 -229 -153 -134 rrcurveto
          -143 hlineto
          -89 -398 rlineto
          87 hlineto
          266 131 18 33 147 hhcurveto
          773 hlineto
          154 5 -33 -266 18 hvcurveto
          87 hlineto
          endchar
        </CharString>
        <CharString name="Deltagreek">
          1139 16 1 rmoveto
          1107 hlineto
          15 77 -191 1367 -152 0 -762 -1366 rlineto
          131 16 rmoveto
          607 1129 144 -1129 rlineto
          endchar
        </CharString>
        <CharString name="Djecyrillic">
          1658 1642 413 rmoveto
          276 -169 132 -312 -97 -72 -10 -16 -70 vhcurveto
          119 561 -5 callgsubr
          68 360 -1216 0 169 callsubr
          108 506 rcurveline
          17 72 72 8 80 hhcurveto
          197 113 -100 -215 -300 -139 -297 -314 -142 hvcurveto
          25 -64 rlineto
          408 140 226 319 348 vvcurveto
          endchar
        </CharString>
        <CharString name="Dlinebelow">
          1487 -2 callsubr
          -33 callsubr
          -1010 -1201 -80 callsubr
        </CharString>
        <CharString name="Dzecyrillic">
          1121 594 -30 48 callsubr
          endchar
        </CharString>
        <CharString name="Dzhecyrillic">
          1557 123 callsubr
          531 hlineto
          88 17 -17 -282 -20 hvcurveto
          87 hlineto
          282 100 23 17 88 hhcurveto
          532 hlineto
          15 76 -150 14 -17 15 18 89 rlinecurve
          225 1056 19 90 20 13 160 15 rlinecurve
          16 76 -549 0 -15 -76 140 -13 20 -16 -19 -89 rlinecurve
          -247 -1155 -685 0 247 1155 19 119 callsubr
        </CharString>
        <CharString name="E">
          1223 1391 1444 -88 callsubr
        </CharString>
        <CharString name="Eacute">
          1223 1058 -97 callsubr
          145 -404 -88 callsubr
        </CharString>
        <CharString name="Ebreve">
          1223 967 -18 callsubr
          424 -148 -88 callsubr
        </CharString>
        <CharString name="Ecaron">
          1223 1153 -79 callsubr
          151 -434 -88 callsubr
        </CharString>
        <CharString name="Ecedilla">
          1223 514 -32 callsubr
          20 callsubr
          435 -24 callsubr
          66 360 -1025 91 callsubr
          -23 callsubr
          530 0 -127 -144 -63 callsubr
          21 callsubr
          endchar
        </CharString>
        <CharString name="Ecedillabreve">
          1223 967 -18 callsubr
          -453 -2082 rmoveto
          157 93 78 111 20 callsubr
          435 -24 callsubr
          66 360 -1025 91 callsubr
          -23 callsubr
          530 0 -127 -144 -63 callsubr
          21 callsubr
          endchar
        </CharString>
        <CharString name="Ecircumflex">
          1223 766 -78 callsubr
          711 -126 -88 callsubr
        </CharString>
        <CharString name="Ecircumflexacute">
          1223 1249 1815 -38 callsubr
          -53 -253 -40 callsubr
          742 -112 -88 callsubr
        </CharString>
        <CharString name="Ecircumflexbelow">
          1223 1391 1444 rmoveto
          -1025 2 callsubr
          -23 callsubr
          1067 -24 callsubr
          -973 -1558 -66 callsubr
        </CharString>
        <CharString name="Ecircumflexdotbelow">
          1223 766 -78 callsubr
          711 -126 rmoveto
          -1025 2 callsubr
          -23 callsubr
          1067 -24 callsubr
          -772 -1295 -100 callsubr
        </CharString>
        <CharString name="Ecircumflexgrave">
          1223 703 1815 -42 callsubr
          -93 -448 -40 callsubr
          742 -112 -88 callsubr
        </CharString>
        <CharString name="Ecircumflexhookabove">
          1223 1222 57 callsubr
          742 -112 -88 callsubr
        </CharString>
        <CharString name="Ecircumflextilde">
          1223 1083 1761 -44 callsubr
          16 callsubr
          15 43 callsubr
          72 callsubr
          742 -112 -88 callsubr
        </CharString>
        <CharString name="Ecyrillic">
          1421 481 629 rmoveto
          21 1 20 1 21 vhcurveto
          696 -5 21 105 -708 -5 rlineto
          364 54 239 217 276 hhcurveto
          232 120 -124 -228 10 hvcurveto
          -65 callgsubr
          -7 callsubr
        </CharString>
        <CharString name="Edblgrave">
          1223 744 19 callsubr
          308 -126 -88 callsubr
        </CharString>
        <CharString name="Edieresis">
          1223 790 -67 callsubr
          276 -168 -88 callsubr
        </CharString>
        <CharString name="Edotaccent">
          1223 952 -85 callsubr
          439 -166 -88 callsubr
        </CharString>
        <CharString name="Edotbelow">
          1223 1391 1444 rmoveto
          -1025 2 callsubr
          -23 callsubr
          1067 -24 callsubr
          -772 -1295 -100 callsubr
        </CharString>
        <CharString name="Efcyrillic">
          1810 227 694 rmoveto
          -277 241 -183 375 -29 vhcurveto
          -7 -33 -19 -89 -19 -13 -159 -15 rlinecurve
          -16 -76 550 0 16 76 rlineto
          -145 14 -21 14 19 89 6 30 rcurveline
          580 13 255 229 306 vvcurveto
          277 -241 184 -376 28 vhcurveto
          7 33 19 89 23 14 154 14 rlinecurve
          16 76 -549 0 -16 -76 rlineto
          149 -14 16 -14 -18 -89 -6 -30 rcurveline
          -580 -16 -254 -226 -306 vvcurveto
          229 -19 rmoveto
          274 139 182 446 16 vhcurveto
          -178 -847 rlineto
          -277 26 -130 136 213 vvcurveto
          1199 94 rmoveto
          -274 -140 -182 -447 -16 vhcurveto
          178 847 rlineto
          278 -26 131 -135 -214 vvcurveto
          endchar
        </CharString>
        <CharString name="Egrave">
          1223 869 -39 callsubr
          404 -127 -88 callsubr
        </CharString>
        <CharString name="Ehookabove">
          1223 978 -20 callsubr
          413 -453 -88 callsubr
        </CharString>
        <CharString name="Einvertedbreve">
          1223 954 18 callsubr
          437 -437 -88 callsubr
        </CharString>
        <CharString name="Elcyrillic">
          1482 204 -30 rmoveto
          202 114 189 490 132 hvcurveto
          82 304 47 188 48 208 rrcurveto
          507 hlineto
          -247 -1155 -19 -91 -18 -12 -158 -15 rlinecurve
          -15 -76 548 0 16 76 -145 13 -21 15 19 90 rlinecurve
          225 1056 19 91 24 13 153 14 rlinecurve
          16 76 -1189 -90 callgsubr
          -81 56 -59 89 hvcurveto
          endchar
        </CharString>
        <CharString name="Emacron">
          1223 698 -56 callsubr
          667 -320 -88 callsubr
        </CharString>
        <CharString name="Emacronacute">
          1223 1254 1837 -38 callsubr
          -101 callgsubr
          719 -225 -88 callsubr
        </CharString>
        <CharString name="Emacrongrave">
          1223 708 1837 -42 callsubr
          -99 callgsubr
          719 -225 -88 callsubr
        </CharString>
        <CharString name="Emcyrillic">
          1794 761 1444 25 callsubr
        </CharString>
        <CharString name="Encyrillic">
          1571 480 194 -53 callsubr
          78 callsubr
          endchar
        </CharString>
        <CharString name="Eogonek">
          1223 891 -483 rmoveto
          74 56 29 33 31 hvcurveto
          15 75 rlineto
          -19 -23 -33 -13 -34 hhcurveto
          -60 -39 53 77 78 39 86 88 84 hvcurveto
          121 hlineto
          -54 callsubr
          163 callsubr
          64 -43 1 -212 rlinecurve
          66 hlineto
          66 360 -1025 0 -16 -76 rlineto
          154 -14 12 -17 -18 -87 87 callsubr
          -160 -14 -16 -76 rcurveline
          873 -18 callgsubr
          endchar
        </CharString>
        <CharString name="Epsilongreek">
          1223 1391 1444 -88 callsubr
        </CharString>
        <CharString name="Epsilontonosgreek">
          1551 1719 1444 rmoveto
          -1025 2 callsubr
          -23 callsubr
          1067 -24 callsubr
          -1245 360 39 callsubr
          endchar
        </CharString>
        <CharString name="Ercyrillic">
          1262 632 hmoveto
          24 callsubr
        </CharString>
        <CharString name="Ereversedcyrillic">
          1456 442 1344 rmoveto
          -72 -304 rlineto
          66 hlineto
          225 96 143 101 187 hhcurveto
          283 141 -221 -327 hvcurveto
          -10 0 -10 -9 vvcurveto
          -678 4 -23 -109 693 5 rlineto
          -355 -43 -221 -260 -316 hhcurveto
          -224 -149 99 218 -13 hvcurveto
          -66 hlineto
          -38 -304 rlineto
          -47 56 223 -70 213 hhcurveto
          482 332 369 447 410 -237 278 -412 -156 -173 -59 -71 -94 hvcurveto
          endchar
        </CharString>
        <CharString name="Escyrillic">
          1420 481 629 -25 callsubr
          -7 callsubr
        </CharString>
        <CharString name="Etagreek">
          1571 480 194 -53 callsubr
          78 callsubr
          endchar
        </CharString>
        <CharString name="Etatonosgreek">
          1899 808 194 -53 callsubr
          78 callsubr
          -400 1250 39 callsubr
          endchar
        </CharString>
        <CharString name="Etilde">
          1223 1053 -37 callsubr
          338 -168 -88 callsubr
        </CharString>
        <CharString name="Etildebelow">
          1223 1391 1444 rmoveto
          -1025 2 callsubr
          -23 callsubr
          1067 -24 callsubr
          -667 -1517 -15 callsubr
        </CharString>
        <CharString name="F">
          1113 1365 1444 145 callsubr
        </CharString>
        <CharString name="Fdotaccent">
          1113 943 -85 callsubr
          422 -166 145 callsubr
        </CharString>
        <CharString name="G">
          1559 256 650 -16 callsubr
        </CharString>
        <CharString name="Gacute">
          1559 1249 -97 callsubr
          -1181 -1198 -16 callsubr
        </CharString>
        <CharString name="Gammagreek">
          1184 1426 1444 rmoveto
          -1050 hlineto
          -16 -76 169 -16 15 -13 -19 -88 rlinecurve
          -224 -1058 -19 -88 -21 -13 -175 -16 rlinecurve
          -16 -76 606 0 16 76 -188 19 -14 13 18 85 rlinecurve
          247 1163 255 -11 247 -11 34 -44 7 -206 rlinecurve
          64 hlineto
          endchar
        </CharString>
        <CharString name="Gbreve">
          1559 1158 -18 callsubr
          -902 -942 -16 callsubr
        </CharString>
        <CharString name="Gcaron">
          1559 1344 -79 callsubr
          -1175 -1228 -16 callsubr
        </CharString>
        <CharString name="Gcircumflex">
          1559 957 -78 callsubr
          -615 -920 -16 callsubr
        </CharString>
        <CharString name="Gcommaaccent">
          1559 256 650 rmoveto
          -412 272 -268 387 180 193 63 67 81 vhcurveto
          84 390 19 89 14 16 143 13 rlinecurve
          16 75 -536 0 -16 -75 rlineto
          173 -16 11 -12 -19 -89 -74 -351 rcurveline
          -39 -55 -102 -22 -89 hhcurveto
          -271 -180 228 322 457 267 281 314 232 119 -124 -228 10 hvcurveto
          67 -5 54 301 rlineto
          80 -85 -24 callgsubr
          533 -1140 -75 callsubr
        </CharString>
        <CharString name="Gdotaccent">
          1559 1143 -85 callsubr
          -887 -960 -16 callsubr
        </CharString>
        <CharString name="Geacutecyrillic">
          1133 1029 -97 callsubr
          158 -404 rmoveto
          -1012 115 callsubr
          -77 callgsubr
        </CharString>
        <CharString name="Gecyrillic">
          1133 1375 1444 rmoveto
          -1012 115 callsubr
          -77 callgsubr
        </CharString>
        <CharString name="Germandbls">
          1473 469 hmoveto
          287 1356 190 -6 rlineto
          260 -9 104 -83 -169 vvcurveto
          -139 -94 -104 -189 -32 vhcurveto
          -27 -122 rlineto
          181 -77 78 -118 -163 vvcurveto
          -162 -94 -94 -144 -137 -101 102 211 6 vhcurveto
          -69 hlineto
          -58 -304 rlineto
          -66 69 127 -51 157 hhcurveto
          227 214 136 270 176 -77 153 -186 97 hvcurveto
          164 15 141 112 182 vvcurveto
          210 -153 123 -293 vhcurveto
          -661 hlineto
          -17 -76 rlineto
          157 -14 16 -15 -19 -88 -224 -1058 rcurveline
          -19 -89 -20 -13 -165 -15 -15 -76 rcurveline
          endchar
        </CharString>
        <CharString name="Geupturncyrillic">
          1112 1336 1349 rmoveto
          80 395 rlineto
          -87 hlineto
          -266 -120 -17 -34 -152 hhcurveto
          -677 115 callsubr
          15 76 rlineto
          -167 17 -16 15 18 85 245 1156 rcurveline
          endchar
        </CharString>
        <CharString name="Gmacron">
          1559 889 -56 callsubr
          -659 -1114 -16 callsubr
        </CharString>
        <CharString name="H">
          1571 480 194 -53 callsubr
          78 callsubr
          endchar
        </CharString>
        <CharString name="Hacyrillic">
          1314 324 273 22 callsubr
        </CharString>
        <CharString name="Hardsigncyrillic">
          1467 1537 131 callsubr
          15 76 -792 0 -86 -360 rlineto
          66 hlineto
          100 240 53 21 206 7 rrcurveto
          55 2 -246 -1161 rlineto
          -19 -88 -17 -46 callgsubr
          -224 -5 75 callsubr
          -32 callgsubr
        </CharString>
        <CharString name="Hbar">
          1571 480 194 rmoveto
          106 497 693 0 -106 -497 -18 -87 -17 -18 -152 -13 rlinecurve
          -16 -76 542 0 15 76 -151 14 -14 17 18 87 rlinecurve
          180 847 174 0 19 91 -173 0 25 118 19 87 22 17 157 14 rlinecurve
          16 76 -542 0 -16 -76 146 -13 9 -18 -18 -87 rlinecurve
          -25 -118 -693 0 25 118 18 87 21 18 148 13 rlinecurve
          16 76 -542 0 -16 -76 -90 callsubr
          -25 -118 -172 0 -19 -91 171 0 -180 -847 -18 -87 -18 -17 -161 -14 rlinecurve
          -16 -76 542 0 16 76 -142 13 -13 18 18 87 rlinecurve
          126 592 rmoveto
          54 255 693 0 -54 -255 rlineto
          endchar
        </CharString>
        <CharString name="Hbrevebelow">
          1571 480 194 -53 callsubr
          78 callsubr
          244 -657 102 callsubr
        </CharString>
        <CharString name="Hcaron">
          1571 1347 -79 callsubr
          -954 -1684 -53 callsubr
          78 callsubr
          endchar
        </CharString>
        <CharString name="Hcedilla">
          1571 480 194 -53 callsubr
          236 0 -127 -144 -16 -76 rlineto
          -13 callgsubr
          157 93 78 111 20 callsubr
          212 0 15 76 -141 13 -18 18 18 87 rlinecurve
          endchar
        </CharString>
        <CharString name="Hcircumflex">
          1571 960 -78 callsubr
          -394 -1376 -53 callsubr
          78 callsubr
          endchar
        </CharString>
        <CharString name="Hdieresis">
          1571 984 -67 callsubr
          -829 -1418 -53 callsubr
          78 callsubr
          endchar
        </CharString>
        <CharString name="Hdotaccent">
          1571 1146 -85 callsubr
          -666 -1416 -53 callsubr
          78 callsubr
          endchar
        </CharString>
        <CharString name="Hdotbelow">
          1571 480 194 -53 callsubr
          78 callsubr
          242 -405 -100 callsubr
        </CharString>
        <CharString name="I">
          15 callsubr
          -90 callsubr
          -93 callsubr
          -81 callsubr
        </CharString>
        <CharString name="IAcyrillic">
          1394 405 980 rmoveto
          -167 97 -109 166 -47 vhcurveto
          -189 -205 -154 -168 -175 -187 -95 -27 rlinecurve
          -17 -70 265 0 567 621 rlineto
          -1 23 25 -1 25 hhcurveto
          148 hlineto
          -91 -425 -18 -91 -24 -13 -152 -14 46 callsubr
          rlineto
          -148 14 -17 13 19 91 224 1057 rcurveline
          19 89 17 13 160 15 16 76 rcurveline
          -535 hlineto
          -467 -237 -184 -280 hvcurveto
          223 hmoveto
          234 156 127 338 11 vhcurveto
          125 3 -135 -637 rlineto
          -147 hlineto
          -215 -122 91 171 hvcurveto
          endchar
        </CharString>
        <CharString name="IJ">
          1341 1162 253 -28 callsubr
          -682 -59 -82 callsubr
          -90 callsubr
          -93 callsubr
          -81 callsubr
        </CharString>
        <CharString name="IJacute">
          1341 797 -97 callsubr
          478 1 -104 callgsubr
          -489 -1595 -28 callsubr
          -682 -59 -82 callsubr
          -90 callsubr
          -93 callsubr
          -81 callsubr
        </CharString>
        <CharString name="IUcyrillic">
          2155 56 hmoveto
          549 hlineto
          15 76 rlineto
          -142 13 -21 16 19 89 105 497 rcurveline
          274 hlineto
          -2 -24 -1 -25 -24 vvcurveto
          -361 217 -287 384 430 331 407 449 361 -217 290 -384 -3 vhcurveto
          -375 -3 -300 -308 -70 -377 rrcurveto
          -266 hlineto
          98 464 19 90 23 14 -106 callgsubr
          -28 callgsubr
          1390 -2 rmoveto
          -249 -132 189 307 367 183 433 340 249 132 -189 -307 -367 -185 -433 -338 hvcurveto
          endchar
        </CharString>
        <CharString name="Iacute">
          670 797 -97 callsubr
          -505 -1654 -82 callsubr
          -90 callsubr
          -93 callsubr
          -81 callsubr
        </CharString>
        <CharString name="Ibreve">
          670 706 -18 callsubr
          -226 -1398 -82 callsubr
          -90 callsubr
          -93 callsubr
          -81 callsubr
        </CharString>
        <CharString name="Icaron">
          670 892 -79 callsubr
          -499 -1684 -82 callsubr
          -90 callsubr
          -93 callsubr
          -81 callsubr
        </CharString>
        <CharString name="Icircumflex">
          670 505 -78 callsubr
          61 -1376 -82 callsubr
          -90 callsubr
          -93 callsubr
          -81 callsubr
        </CharString>
        <CharString name="Icyrillic">
          15 callsubr
          -90 callsubr
          -93 callsubr
          -81 callsubr
        </CharString>
        <CharString name="Idblgrave">
          670 483 19 callsubr
          -342 -1376 -82 callsubr
          -90 callsubr
          -93 callsubr
          -81 callsubr
        </CharString>
        <CharString name="Idieresis">
          670 529 -67 callsubr
          -374 -1418 -82 callsubr
          -90 callsubr
          -93 callsubr
          -81 callsubr
        </CharString>
        <CharString name="Idieresisacute">
          670 993 -19 callsubr
          60 -211 -51 callsubr
          -315 -1355 -82 callsubr
          -90 callsubr
          -93 callsubr
          -81 callsubr
        </CharString>
        <CharString name="Idotaccent">
          670 691 -85 callsubr
          -211 -1416 -82 callsubr
          -90 callsubr
          -93 callsubr
          -81 callsubr
        </CharString>
        <CharString name="Idotbelow">
          15 callsubr
          -90 callsubr
          -93 callsubr
          41 callsubr
          -211 -405 -100 callsubr
        </CharString>
        <CharString name="Iecyrillic">
          1223 1391 1444 -88 callsubr
        </CharString>
        <CharString name="Igrave">
          670 608 -39 callsubr
          -246 -1377 -82 callsubr
          -90 callsubr
          -93 callsubr
          -81 callsubr
        </CharString>
        <CharString name="Ihookabove">
          670 717 -20 callsubr
          -237 -1703 -82 callsubr
          -90 callsubr
          -93 callsubr
          -81 callsubr
        </CharString>
        <CharString name="Iicyrillic">
          1576 56 hmoveto
          150 callsubr
        </CharString>
        <CharString name="Iinvertedbreve">
          670 693 18 callsubr
          -213 -1687 -82 callsubr
          -90 callsubr
          -93 callsubr
          -81 callsubr
        </CharString>
        <CharString name="Iishortcyrillic">
          1576 1126 60 callsubr
          -1070 -1595 rmoveto
          150 callsubr
        </CharString>
        <CharString name="Imacron">
          670 437 -56 callsubr
          17 -1570 -82 callsubr
          -90 callsubr
          -93 callsubr
          -81 callsubr
        </CharString>
        <CharString name="Iocyrillic">
          1223 790 -67 callsubr
          276 -168 -88 callsubr
        </CharString>
        <CharString name="Iogonek">
          15 callsubr
          rlineto
          155 -14 10 -17 -18 -87 -225 -1056 rcurveline
          -18 -87 -18 -17 -161 -14 -16 -76 rcurveline
          252 hlineto
          -135 -87 -94 -113 -116 vvcurveto
          -98 78 -69 110 73 56 29 33 31 vhcurveto
          16 75 rlineto
          -19 -24 -32 -13 -35 hhcurveto
          -60 -38 53 77 78 38 86 89 84 hvcurveto
          227 hlineto
          16 76 -155 14 -10 17 18 87 rlinecurve
          endchar
        </CharString>
        <CharString name="Iotadieresisgreek">
          670 529 -67 callsubr
          -374 -1418 -82 callsubr
          -90 callsubr
          -93 callsubr
          -81 callsubr
        </CharString>
        <CharString name="Iotagreek">
          15 callsubr
          -90 callsubr
          -93 callsubr
          -81 callsubr
        </CharString>
        <CharString name="Iotatonosgreek">
          999 808 194 -82 callsubr
          -90 callsubr
          -93 callsubr
          41 callsubr
          -400 1250 39 callsubr
          endchar
        </CharString>
        <CharString name="Itilde">
          670 792 -37 callsubr
          -312 -1418 -82 callsubr
          -90 callsubr
          -93 callsubr
          -81 callsubr
        </CharString>
        <CharString name="Itildebelow">
          15 callsubr
          -90 callsubr
          -93 callsubr
          41 callsubr
          -106 -627 -15 callsubr
        </CharString>
        <CharString name="J">
          670 492 253 -28 callsubr
          endchar
        </CharString>
        <CharString name="Jacute">
          670 793 -97 callsubr
          -489 -1595 -28 callsubr
          endchar
        </CharString>
        <CharString name="Jcircumflex">
          670 501 -78 callsubr
          77 -1317 -28 callsubr
          endchar
        </CharString>
        <CharString name="Jecyrillic">
          670 492 253 -28 callsubr
          endchar
        </CharString>
        <CharString name="K">
          1329 480 194 3 callsubr
        </CharString>
        <CharString name="Kaacutecyrillic">
          1329 1236 -97 callsubr
          -944 -1654 3 callsubr
        </CharString>
        <CharString name="Kacute">
          1329 1236 -97 callsubr
          -944 -1654 3 callsubr
        </CharString>
        <CharString name="Kacyrillic">
          1329 480 194 3 callsubr
        </CharString>
        <CharString name="Kappagreek">
          1329 480 194 3 callsubr
        </CharString>
        <CharString name="Kcaron">
          1329 1331 -79 callsubr
          -938 -1684 3 callsubr
        </CharString>
        <CharString name="Kcommaaccent">
          95 callsubr
          244 -684 -75 callsubr
        </CharString>
        <CharString name="Kdotbelow">
          95 callsubr
          272 -405 -100 callsubr
        </CharString>
        <CharString name="Klinebelow">
          95 callsubr
          6 -562 -80 callsubr
        </CharString>
        <CharString name="L">
          12 callsubr
          endchar
        </CharString>
        <CharString name="Lacute">
          1135 806 -97 callsubr
          79 -1848 rmoveto
          -4 callsubr
          8 callsubr
          endchar
        </CharString>
        <CharString name="Lambdagreek">
          1417 1259 225 rmoveto
          -169 1219 -156 0 -669 -1201 -74 -132 -27 -21 -142 -14 rlinecurve
          -16 -76 475 0 16 76 -176 20 -5 18 108 200 rlinecurve
          491 912 125 -1001 14 -113 -17 -19 -167 -17 rlinecurve
          -16 -76 557 0 16 76 -138 13 -15 23 -15 113 rlinecurve
          endchar
        </CharString>
        <CharString name="Lcaron">
          1135 1135 13 callsubr
          11 -1106 rmoveto
          -4 callsubr
          8 callsubr
          endchar
        </CharString>
        <CharString name="Lcircumflexbelow">
          12 callsubr
          259 -474 -66 callsubr
        </CharString>
        <CharString name="Lcommaaccent">
          12 callsubr
          432 -490 -75 callsubr
        </CharString>
        <CharString name="Ldot">
          12 callsubr
          1037 725 130 callsubr
          endchar
        </CharString>
        <CharString name="Ldotbelow">
          12 callsubr
          460 -211 -100 callsubr
        </CharString>
        <CharString name="Ldotbelowmacron">
          1135 446 -56 callsubr
          601 -1764 rmoveto
          -4 callsubr
          8 callsubr
          460 -211 -100 callsubr
        </CharString>
        <CharString name="Ljecyrillic">
          1995 59 110 rmoveto
          -81 56 -59 89 202 114 189 490 132 vhcurveto
          82 304 47 188 48 208 rrcurveto
          452 hlineto
          -245 -1156 rlineto
          -19 -88 -21 -1 callgsubr
          193 297 202 -135 186 -398 hvcurveto
          -8 callgsubr
          16 76 -1137 -90 callgsubr
          hvcurveto
          1782 375 75 callsubr
          -32 callgsubr
        </CharString>
        <CharString name="Llinebelow">
          12 callsubr
          194 -368 -80 callsubr
        </CharString>
        <CharString name="Lslash">
          1135 184 596 rmoveto
          185 56 -97 -458 -18 -86 -18 -17 -161 -15 rlinecurve
          -16 -76 1014 0 -4 callsubr
          134 630 397 119 23 98 -399 -119 92 435 18 86 19 17 173 15 rlinecurve
          16 75 -565 0 -16 -76 155 -13 10 -17 -18 -88 rlinecurve
          -107 -500 -183 -55 rlineto
          endchar
        </CharString>
        <CharString name="M">
          1794 761 1444 25 callsubr
        </CharString>
        <CharString name="Macute">
          1794 1367 -97 callsubr
          -794 -404 25 callsubr
        </CharString>
        <CharString name="Mdotaccent">
          1794 1261 -85 callsubr
          -500 -166 25 callsubr
        </CharString>
        <CharString name="Mdotbelow">
          1794 761 1444 rmoveto
          -387 hlineto
          -16 -76 143 -13 11 -27 -24 -104 rlinecurve
          -233 -1012 -22 -96 -24 -20 -146 -20 rlinecurve
          -16 -76 443 0 16 76 -142 20 -11 20 20 96 rlinecurve
          214 1026 211 -1238 99 0 144 249 574 986 -204 -1042 -17 -88 -18 -15 -161 -14 rlinecurve
          -16 -76 -86 callgsubr
          -168 -483 -100 callsubr
        </CharString>
        <CharString name="Mugreek">
          1794 761 1444 25 callsubr
        </CharString>
        <CharString name="N">
          1518 697 1444 53 callsubr
          endchar
        </CharString>
        <CharString name="Nacute">
          1518 1174 -97 callsubr
          -665 -404 53 callsubr
          endchar
        </CharString>
        <CharString name="Ncaron">
          1518 1269 -79 callsubr
          -659 -434 53 callsubr
          endchar
        </CharString>
        <CharString name="Ncircumflexbelow">
          76 callsubr
          -761 -702 -66 callsubr
        </CharString>
        <CharString name="Ncommaaccent">
          76 callsubr
          -588 -718 -75 callsubr
        </CharString>
        <CharString name="Ndotaccent">
          1518 1068 -85 callsubr
          -371 -166 53 callsubr
          endchar
        </CharString>
        <CharString name="Ndotbelow">
          76 callsubr
          -560 -439 -100 callsubr
        </CharString>
        <CharString name="Ngrave">
          1518 985 -39 callsubr
          -406 -127 53 callsubr
          endchar
        </CharString>
        <CharString name="Njecyrillic">
          2086 508 194 rmoveto
          113 535 621 0 -114 -536 rlineto
          -19 -88 -18 -14 -160 -15 -15 -76 rcurveline
          535 hlineto
          412 293 185 283 188 -135 172 -398 hvcurveto
          -154 hlineto
          90 422 19 90 24 13 154 15 rlinecurve
          16 76 -550 0 -16 -76 148 -14 17 -15 -19 -89 rlinecurve
          -89 -422 -621 0 90 422 20 90 22 14 -106 callgsubr
          17 -14 -19 -90 rlinecurve
          -224 -1056 -19 -90 -19 -13 -158 -15 46 callsubr
          -143 14 -21 14 19 90 rlinecurve
          1424 269 5 callgsubr
          137 641 rlineto
          146 hlineto
          215 122 -90 -177 hvcurveto
          endchar
        </CharString>
        <CharString name="Nlinebelow">
          76 callsubr
          -826 -596 -80 callsubr
        </CharString>
        <CharString name="Ntilde">
          1518 1169 -37 callsubr
          -472 -168 53 callsubr
          endchar
        </CharString>
        <CharString name="Nugreek">
          1518 697 1444 53 callsubr
          endchar
        </CharString>
        <CharString name="O">
          1570 879 -24 -94 callsubr
        </CharString>
        <CharString name="OE">
          2025 263 661 rmoveto
          -357 236 -334 438 vhcurveto
          142 89 30 147 hhcurveto
          611 hlineto
          102 403 rlineto
          -63 hlineto
          -100 -254 -93 -39 -272 -11 rrcurveto
          -270 -11 129 602 rlineto
          301 hlineto
          69 18 -30 -170 -9 hvcurveto
          63 hlineto
          106 497 rlineto
          -64 hlineto
          -174 -70 -27 -25 -65 hhcurveto
          -301 hlineto
          120 568 261 -11 246 -10 35 -45 7 -206 rlinecurve
          64 hlineto
          64 360 rlineto
          -716 hlineto
          -121 -77 30 -160 hhcurveto
          -515 -325 -360 -453 hvcurveto
          228 -17 rmoveto
          368 208 358 419 72 60 -8 -15 43 vhcurveto
          -269 -1268 rlineto
          -4 -22 -21 -1 -24 hhcurveto
          -318 -148 269 301 hvcurveto
          endchar
        </CharString>
        <CharString name="Oacute">
          1570 1191 -97 callsubr
          -500 -1872 -94 callsubr
        </CharString>
        <CharString name="Obreve">
          1570 1100 -18 callsubr
          -221 -1616 -94 callsubr
        </CharString>
        <CharString name="Ocaron">
          1570 1286 -79 callsubr
          -494 -1902 -94 callsubr
        </CharString>
        <CharString name="Ocircumflex">
          1570 899 -78 callsubr
          66 -1594 -94 callsubr
        </CharString>
        <CharString name="Ocircumflexacute">
          1570 1383 1815 -38 callsubr
          -53 -253 -40 callsubr
          96 -1580 -94 callsubr
        </CharString>
        <CharString name="Ocircumflexdotbelow">
          1570 899 -78 callsubr
          66 -1594 99 callsubr
          -71 -296 -100 callsubr
        </CharString>
        <CharString name="Ocircumflexgrave">
          1570 837 1815 -42 callsubr
          -93 -448 -40 callsubr
          96 -1580 -94 callsubr
        </CharString>
        <CharString name="Ocircumflexhookabove">
          1570 1356 57 callsubr
          96 -1580 -94 callsubr
        </CharString>
        <CharString name="Ocircumflextilde">
          1570 1217 1761 -44 callsubr
          16 callsubr
          15 43 callsubr
          72 callsubr
          96 -1580 -94 callsubr
        </CharString>
        <CharString name="Ocyrillic">
          1570 879 -24 -94 callsubr
        </CharString>
        <CharString name="Odblgrave">
          1570 877 19 callsubr
          -337 -1594 -94 callsubr
        </CharString>
        <CharString name="Odieresis">
          1570 923 -67 callsubr
          -369 -1636 -94 callsubr
        </CharString>
        <CharString name="Odieresismacron">
          1570 837 14 callsubr
          30 -353 -51 callsubr
          -311 -1573 -94 callsubr
        </CharString>
        <CharString name="Odotaccent">
          1570 1085 -85 callsubr
          -206 -1634 -94 callsubr
        </CharString>
        <CharString name="Odotaccentmacron">
          1570 832 110 callsubr
          -194 -1567 -94 callsubr
        </CharString>
        <CharString name="Odotbelow">
          1570 879 -24 99 callsubr
          -71 -296 -100 callsubr
        </CharString>
        <CharString name="Ograve">
          1570 1002 -39 callsubr
          -241 -1595 -94 callsubr
        </CharString>
        <CharString name="Ohookabove">
          1570 1111 -20 callsubr
          -232 -1921 -94 callsubr
        </CharString>
        <CharString name="Ohorn">
          1577 248 640 28 callsubr
        </CharString>
        <CharString name="Ohornacute">
          1577 1191 -97 callsubr
          -1131 -1208 28 callsubr
        </CharString>
        <CharString name="Ohorndotbelow">
          1577 248 640 rmoveto
          -364 2 231 -300 398 hhcurveto
          462 288 414 414 243 -105 215 -188 115 hvcurveto
          -5 32 36 -3 37 hhcurveto
          171 155 69 161 74 -33 69 -38 45 hvcurveto
          -69 hlineto
          5 -15 2 -24 -23 vvcurveto
          165 callsubr
          326 -808 -100 callsubr
        </CharString>
        <CharString name="Ohorngrave">
          1577 1002 -39 callsubr
          -872 -931 28 callsubr
        </CharString>
        <CharString name="Ohornhookabove">
          1577 1111 -20 callsubr
          -863 -1257 28 callsubr
        </CharString>
        <CharString name="Ohorntilde">
          1577 1186 -37 callsubr
          -938 -972 28 callsubr
        </CharString>
        <CharString name="Ohungarumlaut">
          1570 1038 1850 114 callsubr
          -604 -1874 -94 callsubr
        </CharString>
        <CharString name="Oinvertedbreve">
          1570 1087 18 callsubr
          -208 -1905 -94 callsubr
        </CharString>
        <CharString name="Omacron">
          1570 831 -56 callsubr
          22 -1788 -94 callsubr
        </CharString>
        <CharString name="Omacronacute">
          1570 1388 1837 -38 callsubr
          -101 callgsubr
          73 -1693 -94 callsubr
        </CharString>
        <CharString name="Omacrongrave">
          1570 842 1837 -42 callsubr
          -99 callgsubr
          73 -1693 -94 callsubr
        </CharString>
        <CharString name="Omegagreek">
          1668 159 138 callsubr
          endchar
        </CharString>
        <CharString name="Omegatonosgreek">
          1871 363 138 callsubr
          15 1132 39 callsubr
          endchar
        </CharString>
        <CharString name="Omicrongreek">
          1570 879 -24 -94 callsubr
        </CharString>
        <CharString name="Omicrontonosgreek">
          1737 1046 -24 rmoveto
          463 287 414 413 132 callsubr
          hvcurveto
          -365 3 230 -300 398 hhcurveto
          -638 1468 39 callsubr
          421 -1359 -85 callgsubr
        </CharString>
        <CharString name="Oogonek">
          1570 795 -483 143 callsubr
        </CharString>
        <CharString name="Oogonekmacron">
          1570 831 -56 callsubr
          -62 -2247 143 callsubr
        </CharString>
        <CharString name="Oslash">
          1570 879 -24 134 callsubr
        </CharString>
        <CharString name="Oslashacute">
          1570 1191 -97 callsubr
          -500 -1872 134 callsubr
        </CharString>
        <CharString name="Otilde">
          1570 1186 -37 callsubr
          -307 -1636 -94 callsubr
        </CharString>
        <CharString name="Otildeacute">
          1570 1388 -19 callsubr
          345 -212 -44 callsubr
          -8 callsubr
          -292 -1572 -94 callsubr
        </CharString>
        <CharString name="Otildedieresis">
          1570 935 69 callsubr
          48 68 callsubr
          -69 -236 -44 callsubr
          -8 callsubr
          -292 -1572 -94 callsubr
        </CharString>
        <CharString name="Otildemacron">
          1570 837 14 callsubr
          315 -354 -44 callsubr
          -8 callsubr
          -292 -1572 -94 callsubr
        </CharString>
        <CharString name="P">
          1262 632 hmoveto
          24 callsubr
        </CharString>
        <CharString name="Pacute">
          1262 1045 -97 callsubr
          -601 -1848 rmoveto
          24 callsubr
        </CharString>
        <CharString name="Pdotaccent">
          1262 939 -85 callsubr
          -307 -1610 rmoveto
          24 callsubr
        </CharString>
        <CharString name="Pecyrillic">
          1558 1371 194 rmoveto
          224 1056 19 91 24 13 154 14 rlinecurve
          16 76 -1445 0 -16 -76 151 -15 17 -14 -19 -89 rlinecurve
          -225 -1056 -19 -90 -19 -12 -161 -16 rlinecurve
          -16 -76 549 0 15 76 -140 13 -20 16 19 89 rlinecurve
          247 1155 685 0 -247 -1155 -19 -91 -18 -12 -158 -15 rlinecurve
          -16 -76 549 0 15 76 -144 13 -21 15 19 90 rlinecurve
          endchar
        </CharString>
        <CharString name="Phigreek">
          1778 247 719 rmoveto
          -43 -309 216 -173 411 -22 rrcurveto
          -5 -23 -18 -88 -19 -17 -142 -13 rlinecurve
          -16 -75 518 0 16 75 rlineto
          -140 13 -9 17 18 88 4 21 rcurveline
          438 8 316 184 45 322 42 309 -219 171 -408 23 rrcurveto
          5 22 18 88 19 17 142 12 rlinecurve
          15 75 -518 0 -15 -75 140 -12 9 -17 -18 -88 rlinecurve
          -4 -20 -435 -7 -319 -181 -44 -325 rlinecurve
          237 8 rmoveto
          33 244 161 156 346 8 rrcurveto
          -173 -822 -299 21 -103 142 35 251 rlinecurve
          1116 -8 rmoveto
          -35 -244 -160 -157 -346 -8 rrcurveto
          173 822 300 -21 102 -141 -34 -251 rlinecurve
          endchar
        </CharString>
        <CharString name="Pigreek">
          1637 1419 194 rmoveto
          224 1056 19 90 27 13 169 15 rlinecurve
          16 76 -1498 0 -16 -76 167 -16 17 -12 -19 -90 rlinecurve
          -224 -1056 -19 -90 -23 -12 -173 -16 rlinecurve
          -16 -76 586 0 16 76 -162 15 -21 13 19 90 rlinecurve
          244 1152 703 0 -243 -1152 -19 -90 -22 -12 -173 -16 rlinecurve
          -16 -76 586 0 16 76 -163 15 -21 13 19 90 rlinecurve
          endchar
        </CharString>
        <CharString name="Psigreek">
          1706 559 hmoveto
          588 hlineto
          16 75 rlineto
          -169 15 -14 17 19 86 66 310 rcurveline
          314 14 194 127 129 351 75 203 rcurveline
          47 127 29 26 96 7 16 76 rcurveline
          4 -24 -46 4 -57 hhcurveto
          -131 -64 -29 -172 -62 hvcurveto
          -84 -230 -96 -264 -108 -127 -208 -21 rlinecurve
          138 652 19 87 17 18 136 12 rlinecurve
          16 76 -504 0 -16 -76 rlineto
          132 -12 9 -18 -19 -87 -138 -652 rcurveline
          -199 22 -51 126 18 264 15 211 rcurveline
          173 11 -54 47 -140 hhcurveto
          -48 -52 -4 -4 -26 hvcurveto
          -16 -76 95 -7 26 -26 -8 -127 rlinecurve
          -14 -203 -23 -352 137 -126 309 -14 rlinecurve
          -66 -310 -19 -86 -19 -17 -176 -15 rlinecurve
          endchar
        </CharString>
        <CharString name="Q">
          1574 1257 -371 rmoveto
          79 71 17 23 56 hvcurveto
          14 68 rlineto
          -129 6 -74 27 -137 118 -118 101 rcurveline
          380 74 230 370 370 vvcurveto
          132 callsubr
          vhcurveto
          3 -322 179 -272 317 -59 181 -174 rcurveline
          -145 151 84 -40 94 hhcurveto
          -391 456 -85 callgsubr
        </CharString>
        <CharString name="R">
          1340 1073 hmoveto
          23 callsubr
          endchar
        </CharString>
        <CharString name="Racute">
          1340 1085 -97 callsubr
          -200 -1848 rmoveto
          23 callsubr
          endchar
        </CharString>
        <CharString name="Rcaron">
          1340 1180 -79 callsubr
          -194 -1878 rmoveto
          23 callsubr
          endchar
        </CharString>
        <CharString name="Rcommaaccent">
          1340 1073 hmoveto
          23 callsubr
          -521 -1563 -75 callsubr
        </CharString>
        <CharString name="Rdblgrave">
          1340 771 19 callsubr
          -37 -1570 rmoveto
          23 callsubr
          endchar
        </CharString>
        <CharString name="Rdotaccent">
          1340 979 -85 callsubr
          94 -1610 rmoveto
          23 callsubr
          endchar
        </CharString>
        <CharString name="Rdotbelow">
          1340 1073 hmoveto
          23 callsubr
          -493 -1284 -100 callsubr
        </CharString>
        <CharString name="Rdotbelowmacron">
          1340 725 -56 callsubr
          322 -1764 rmoveto
          23 callsubr
          -493 -1284 -100 callsubr
        </CharString>
        <CharString name="Rhogreek">
          1262 632 hmoveto
          24 callsubr
        </CharString>
        <CharString name="Rinvertedbreve">
          1340 981 18 callsubr
          92 -1881 rmoveto
          23 callsubr
          endchar
        </CharString>
        <CharString name="Rlinebelow">
          1340 1073 hmoveto
          23 callsubr
          -759 -1441 -80 callsubr
        </CharString>
        <CharString name="S">
          1121 594 -30 48 callsubr
          endchar
        </CharString>
        <CharString name="Sacute">
          1121 1000 -97 callsubr
          -594 -1878 48 callsubr
          endchar
        </CharString>
        <CharString name="Sacutedotaccent">
          1121 925 -89 callgsubr
          8 -1564 48 callsubr
          endchar
        </CharString>
        <CharString name="Scaron">
          1121 1095 -79 callsubr
          -588 -1908 48 callsubr
          endchar
        </CharString>
        <CharString name="Scarondotaccent">
          1121 929 167 callsubr
          -578 -1705 48 callsubr
          endchar
        </CharString>
        <CharString name="Scedilla">
          1121 469 -32 callsubr
          -36 callsubr
          76 87 rlineto
          263 10 227 162 261 vvcurveto
          164 -80 119 -188 120 vhcurveto
          -78 49 rlineto
          -157 100 -55 82 104 vvcurveto
          138 117 85 157 188 111 -106 -196 12 vhcurveto
          66 hlineto
          43 305 rlineto
          60 -76 -171 46 -162 hhcurveto
          -294 -192 -156 -239 -162 94 -119 183 -117 hvcurveto
          78 -49 rlineto
          153 -98 50 -83 -112 vvcurveto
          -165 -143 -95 -161 -200 -133 112 205 -13 vhcurveto
          -66 hlineto
          -51 -301 68 -56 163 -52 148 -13 rlinecurve
          -104 -118 -63 callsubr
          21 callsubr
          endchar
        </CharString>
        <CharString name="Schwa">
          1475 765 -30 rmoveto
          442 291 382 435 406 -206 281 -418 -173 -166 -47 -68 -93 hvcurveto
          -73 -305 rlineto
          67 hlineto
          236 97 146 75 192 hhcurveto
          278 120 -220 -327 -43 -2 -41 -4 -41 hvcurveto
          -1018 hlineto
          -20 -72 -11 -71 -65 vvcurveto
          -292 179 -223 372 vhcurveto
          -355 483 rmoveto
          49 5 48 10 45 vhcurveto
          826 hlineto
          -302 -52 -164 -219 -270 hhcurveto
          -238 -117 150 229 hvcurveto
          endchar
        </CharString>
        <CharString name="Scircumflex">
          1121 708 -78 callsubr
          -28 -1600 48 callsubr
          endchar
        </CharString>
        <CharString name="Scommaaccent">
          1121 594 -30 48 callsubr
          -114 -460 -75 callsubr
        </CharString>
        <CharString name="Sdotaccent">
          1121 894 -85 callsubr
          -300 -1640 48 callsubr
          endchar
        </CharString>
        <CharString name="Sdotbelow">
          1121 594 -30 48 callsubr
          -86 -181 -100 callsubr
        </CharString>
        <CharString name="Sdotbelowdotaccent">
          1121 894 -85 callsubr
          -300 -1640 48 callsubr
          -86 -181 -100 callsubr
        </CharString>
        <CharString name="Shacyrillic">
          2242 493 1250 rmoveto
          -224 -1056 -19 -91 -24 -13 -154 -14 rlinecurve
          -16 -76 2130 0 16 76 -148 14 -17 15 19 89 rlinecurve
          224 1056 19 133 callsubr
          161 callsubr
        </CharString>
        <CharString name="Shchacyrillic">
          2266 123 callsubr
          1855 hlineto
          154 3 -33 -266 19 hvcurveto
          87 hlineto
          72 394 -212 0 246 1155 19 133 callsubr
          161 callsubr
        </CharString>
        <CharString name="Sigmagreek">
          -11 callgsubr
          -70 338 -659 -594 -645 -14 -70 1082 0 107 429 rlineto
          -71 hlineto
          -244 -96 -78 -29 -288 hhcurveto
          -433 hlineto
          563 604 7 34 -286 563 427 -11 227 -6 51 -55 6 -201 rlinecurve
          69 hlineto
          endchar
        </CharString>
        <CharString name="Softsigncyrillic">
          1227 1297 131 callsubr
          -73 callgsubr
          -224 -5 75 callsubr
          -33 callgsubr
        </CharString>
        <CharString name="T">
          -11 callsubr
          endchar
        </CharString>
        <CharString name="Taugreek">
          -11 callsubr
          endchar
        </CharString>
        <CharString name="Tbar">
          1307 453 694 rmoveto
          244 hlineto
          -106 -501 -18 -86 -21 -16 -179 -16 rlinecurve
          -16 -75 77 callsubr
          106 501 245 0 19 92 -244 0 121 570 60 -2 270 -9 63 -35 -12 -226 rlinecurve
          67 hlineto
          65 360 -1196 0 -88 -360 rlineto
          67 hlineto
          42 callsubr
          -121 -570 rlineto
          -244 hlineto
          endchar
        </CharString>
        <CharString name="Tcaron">
          1307 1209 -79 callsubr
          262 -434 rmoveto
          -1196 hlineto
          -88 -360 rlineto
          67 hlineto
          42 callsubr
          73 callsubr
          77 callsubr
          71 callsubr
          endchar
        </CharString>
        <CharString name="Tcedilla">
          1307 552 -32 callsubr
          20 callsubr
          221 0 16 75 -174 16 -12 16 18 86 rlinecurve
          71 callsubr
          65 360 -1196 0 -88 -360 rlineto
          67 hlineto
          42 callsubr
          73 callsubr
          270 0 -127 -144 -16 -76 rlineto
          -13 callgsubr
          endchar
        </CharString>
        <CharString name="Tcircumflexbelow">
          -11 callsubr
          -1103 -1558 -66 callsubr
        </CharString>
        <CharString name="Tcommaaccent">
          -11 callsubr
          -930 -1574 -75 callsubr
        </CharString>
        <CharString name="Tdotaccent">
          1307 1008 -85 callsubr
          550 -166 rmoveto
          -1196 hlineto
          -88 -360 rlineto
          67 hlineto
          42 callsubr
          73 callsubr
          77 callsubr
          71 callsubr
          endchar
        </CharString>
        <CharString name="Tdotbelow">
          -11 callsubr
          -902 -1295 -100 callsubr
        </CharString>
        <CharString name="Tecyrillic">
          -11 callsubr
          endchar
        </CharString>
        <CharString name="Thetagreek">
          1620 878 -30 rmoveto
          435 336 406 447 2 hvcurveto
          3 365 -224 289 -389 -3 -435 -3 -337 -403 -2 -447 rrcurveto
          -365 -2 224 -286 389 hhcurveto
          10 103 rmoveto
          -260 -135 195 312 2 hvcurveto
          368 2 187 423 346 hhcurveto
          260 136 -195 -312 -2 hvcurveto
          -368 -2 -190 -423 -344 hhcurveto
          -313 388 rmoveto
          64 hlineto
          171 67 31 31 71 hhcurveto
          246 hlineto
          70 19 -31 -171 -7 hvcurveto
          64 hlineto
          106 496 rlineto
          -64 hlineto
          -176 -74 -28 -26 -66 hhcurveto
          -247 hlineto
          -66 -17 26 176 2 hvcurveto
          -65 hlineto
          endchar
        </CharString>
        <CharString name="Thorn">
          1301 299 193 rmoveto
          -19 -89 -19 -13 -158 -15 rrcurveto
          -16 -76 549 0 16 76 rlineto
          -144 13 -21 15 19 89 29 136 rcurveline
          160 hlineto
          381 297 169 269 235 -205 129 -299 hvcurveto
          -164 hlineto
          25 120 19 89 23 14 155 14 rlinecurve
          15 76 -549 0 -16 -76 148 -14 17 -14 -19 -89 rlinecurve
          627 -478 rmoveto
          -166 -96 -177 -361 -9 vhcurveto
          -139 -3 132 624 141 -3 rlineto
          192 -4 131 -97 -165 vvcurveto
          endchar
        </CharString>
        <CharString name="Tlinebelow">
          -11 callsubr
          -1168 -1452 -80 callsubr
        </CharString>
        <CharString name="Tsecyrillic">
          1579 123 callsubr
          1168 hlineto
          154 4 -33 -266 18 hvcurveto
          87 hlineto
          72 394 -212 0 246 1155 19 133 callsubr
          20 -16 -19 -89 rlinecurve
          -246 -1155 -685 0 246 1155 19 119 callsubr
        </CharString>
        <CharString name="Tshecyrillic">
          1780 1575 1444 rmoveto
          -1216 hlineto
          169 callsubr
          107 505 rcurveline
          16 75 79 9 87 hhcurveto
          249 82 -130 -250 -53 hvcurveto
          -72 -343 378 0 16 76 rlineto
          -148 14 -16 13 18 91 31 149 rcurveline
          316 64 -147 160 -388 hhcurveto
          -92 -73 -10 -16 -69 hvcurveto
          119 563 -5 callgsubr
          endchar
        </CharString>
        <CharString name="U">
          1492 776 -30 -83 callsubr
        </CharString>
        <CharString name="Uacute">
          1492 1241 -97 callsubr
          -653 -1878 -83 callsubr
        </CharString>
        <CharString name="Ubreve">
          1492 1150 -18 callsubr
          -374 -1622 -83 callsubr
        </CharString>
        <CharString name="Ubrevecyrillic">
          1418 1084 60 callsubr
          -847 -1499 144 callsubr
        </CharString>
        <CharString name="Ucaron">
          1492 1336 -79 callsubr
          -647 -1908 -83 callsubr
        </CharString>
        <CharString name="Ucircumflex">
          1492 949 -78 callsubr
          -87 -1600 -83 callsubr
        </CharString>
        <CharString name="Ucircumflexbelow">
          54 callsubr
          -259 -444 -66 callsubr
        </CharString>
        <CharString name="Ucyrillic">
          1418 237 96 144 callsubr
        </CharString>
        <CharString name="Udblgrave">
          1492 927 19 callsubr
          -490 -1600 -83 callsubr
        </CharString>
        <CharString name="Udieresis">
          1492 973 -67 callsubr
          -522 -1642 -83 callsubr
        </CharString>
        <CharString name="Udieresisacute">
          1492 1438 -19 callsubr
          60 -211 -51 callsubr
          -464 -1579 -83 callsubr
        </CharString>
        <CharString name="Udieresisbelow">
          54 callsubr
          -255 -380 103 callsubr
        </CharString>
        <CharString name="Udieresiscaron">
          1492 1466 1959 rmoveto
          -293 -93 -254 93 -15 -69 220 -134 51 0 276 134 rlineto
          -515 -341 -51 callsubr
          -464 -1579 -83 callsubr
        </CharString>
        <CharString name="Udieresisgrave">
          1492 892 1836 -42 callsubr
          20 -406 -51 callsubr
          -464 -1579 -83 callsubr
        </CharString>
        <CharString name="Udieresismacron">
          1492 887 14 callsubr
          30 -353 -51 callsubr
          -464 -1579 -83 callsubr
        </CharString>
        <CharString name="Udotbelow">
          54 callsubr
          -58 -181 -100 callsubr
        </CharString>
        <CharString name="Ugrave">
          1492 1052 -39 callsubr
          -394 -1601 -83 callsubr
        </CharString>
        <CharString name="Uhookabove">
          1492 1161 -20 callsubr
          -385 -1927 -83 callsubr
        </CharString>
        <CharString name="Uhorn">
          1558 320 575 rmoveto
          -1 callsubr
          26 callsubr
        </CharString>
        <CharString name="Uhornacute">
          1558 1240 -97 callsubr
          -1108 -1273 rmoveto
          -1 callsubr
          26 callsubr
        </CharString>
        <CharString name="Uhorndotbelow">
          1558 320 575 rmoveto
          -1 callsubr
          309 234 201 358 81 hvcurveto
          198 871 rlineto
          -1 8 7 0 8 hhcurveto
          156 101 75 136 67 -28 67 -35 43 hvcurveto
          -68 hlineto
          5 -15 2 -24 -23 vvcurveto
          -151 -110 -130 -211 vhcurveto
          -125 hlineto
          -16 -76 rlineto
          153 30 callsubr
          129 -20 16 -20 -21 -96 rlinecurve
          256 -1443 -100 callsubr
        </CharString>
        <CharString name="Uhorngrave">
          1558 1051 -39 callsubr
          -849 -996 rmoveto
          -1 callsubr
          26 callsubr
        </CharString>
        <CharString name="Uhornhookabove">
          1558 1160 -20 callsubr
          -840 -1322 rmoveto
          -1 callsubr
          26 callsubr
        </CharString>
        <CharString name="Uhorntilde">
          1558 1235 -37 callsubr
          -915 -1037 rmoveto
          -1 callsubr
          26 callsubr
        </CharString>
        <CharString name="Uhungarumlaut">
          1492 1088 1850 114 callsubr
          -757 -1880 -83 callsubr
        </CharString>
        <CharString name="Uinvertedbreve">
          1492 1137 18 callsubr
          -361 -1911 -83 callsubr
        </CharString>
        <CharString name="Umacron">
          1492 881 -56 callsubr
          -131 -1794 -83 callsubr
        </CharString>
        <CharString name="Umacrondieresis">
          1492 986 69 callsubr
          47 68 callsubr
          -10 callgsubr
          -99 -1699 -83 callsubr
        </CharString>
        <CharString name="Uogonek">
          1492 718 -56 callgsubr
          74 70 34 77 76 75 hvcurveto
          290 16 219 199 76 343 rrcurveto
          156 703 21 96 23 20 137 20 rlinecurve
          16 76 -445 0 -16 -76 rlineto
          153 30 callsubr
          129 -20 16 -20 -21 -96 rlinecurve
          -140 -657 -78 -369 198 -217 295 -18 rlinecurve
          -123 -82 -81 -102 -103 vvcurveto
          -98 77 -69 110 vhcurveto
          endchar
        </CharString>
        <CharString name="Upsilondieresisgreek">
          1295 886 -67 callsubr
          -733 -432 -48 callsubr
        </CharString>
        <CharString name="Upsilongreek">
          1295 478 1180 -48 callsubr
        </CharString>
        <CharString name="Upsilontonosgreek">
          1662 844 -80 callgsubr
          -436 264 39 callsubr
          endchar
        </CharString>
        <CharString name="Uring">
          1492 924 1747 101 callsubr
          -276 -1772 -83 callsubr
        </CharString>
        <CharString name="Utilde">
          1492 1236 -37 callsubr
          -460 -1642 -83 callsubr
        </CharString>
        <CharString name="Utildeacute">
          1492 1438 -19 callsubr
          345 -212 -44 callsubr
          -8 callsubr
          -445 -1578 -83 callsubr
        </CharString>
        <CharString name="Utildebelow">
          54 callsubr
          47 -403 -15 callsubr
        </CharString>
        <CharString name="V">
          -12 callgsubr
          endchar
        </CharString>
        <CharString name="Vdotbelow">
          -12 callgsubr
          176 -1388 -100 callsubr
        </CharString>
        <CharString name="Vecyrillic">
          1305 1303 456 58 callsubr
        </CharString>
        <CharString name="Vtilde">
          1362 1200 -37 callsubr
          -754 -435 rmoveto
          153 callsubr
          endchar
        </CharString>
        <CharString name="W">
          2072 445 1177 4 callsubr
        </CharString>
        <CharString name="Wacute">
          2072 1561 -97 callsubr
          -1304 -671 4 callsubr
        </CharString>
        <CharString name="Wcircumflex">
          2072 1269 -78 callsubr
          -738 -393 4 callsubr
        </CharString>
        <CharString name="Wdieresis">
          2072 1293 -67 callsubr
          -1173 -435 4 callsubr
        </CharString>
        <CharString name="Wdotaccent">
          2072 1455 -85 callsubr
          -1010 -433 4 callsubr
        </CharString>
        <CharString name="Wdotbelow">
          2072 445 1177 rmoveto
          103 -1177 164 0 566 1118 78 -1118 164 0 603 1172 82 159 35 22 131 15 rlinecurve
          16 76 -450 0 -16 -76 150 -19 7 -25 -72 -147 rlinecurve
          -474 -973 -62 973 -9 146 15 25 161 20 rlinecurve
          16 76 168 callsubr
          534 -1388 -100 callsubr
        </CharString>
        <CharString name="Wgrave">
          2072 1372 -39 callsubr
          -1045 -394 4 callsubr
        </CharString>
        <CharString name="X">
          1314 324 273 22 callsubr
        </CharString>
        <CharString name="Xdieresis">
          1314 911 -67 callsubr
          -912 -1339 22 callsubr
        </CharString>
        <CharString name="Xdotaccent">
          1314 1073 -85 callsubr
          -749 -1337 22 callsubr
        </CharString>
        <CharString name="Xigreek">
          1309 1571 1444 rmoveto
          -1168 hlineto
          1 callgsubr
          348 hlineto
          228 71 -43 -189 4 hvcurveto
          70 hlineto
          -814 -374 rmoveto
          277 -69 callgsubr
          -277 -70 callgsubr
          576 -685 rmoveto
          -4 callgsubr
          -250 hlineto
          -289 -63 30 246 7 hvcurveto
          -70 hlineto
          -74 -429 rlineto
          endchar
        </CharString>
        <CharString name="Xigreek.1">
          1363 99 hmoveto
          1165 hlineto
          -4 callgsubr
          -81 hlineto
          113 532 rlineto
          95 -69 callgsubr
          -94 hlineto
          109 513 rlineto
          130 hlineto
          228 71 -43 -189 4 hvcurveto
          70 hlineto
          69 385 -1168 0 1 callgsubr
          129 hlineto
          -109 -513 rlineto
          -94 -70 callgsubr
          94 hlineto
          -113 -532 rlineto
          -81 hlineto
          -289 -63 30 246 7 hvcurveto
          -70 hlineto
          endchar
        </CharString>
        <CharString name="Y">
          1296 478 1180 -48 callsubr
        </CharString>
        <CharString name="Yacute">
          1295 1154 -97 callsubr
          -864 -668 -48 callsubr
        </CharString>
        <CharString name="Ycircumflex">
          1295 862 -78 callsubr
          -298 -390 -48 callsubr
        </CharString>
        <CharString name="Ydieresis">
          1295 886 -67 callsubr
          -733 -432 -48 callsubr
        </CharString>
        <CharString name="Ydotaccent">
          1295 1048 -85 callsubr
          -570 -430 -48 callsubr
        </CharString>
        <CharString name="Ydotbelow">
          1295 478 -80 callgsubr
          102 -1391 -100 callsubr
        </CharString>
        <CharString name="Yericyrillic">
          1853 1297 131 callsubr
          -73 callgsubr
          369 -296 -82 callsubr
          -90 callsubr
          -93 callsubr
          41 callsubr
          -593 291 75 callsubr
          -33 callgsubr
        </CharString>
        <CharString name="Ygrave">
          1295 965 -39 callsubr
          -605 -391 -48 callsubr
        </CharString>
        <CharString name="Yhookabove">
          1295 1074 -20 callsubr
          -596 -717 -48 callsubr
        </CharString>
        <CharString name="Yicyrillic">
          670 529 -67 callsubr
          -374 -1418 -82 callsubr
          -90 callsubr
          -93 callsubr
          -81 callsubr
        </CharString>
        <CharString name="Ymacron">
          1295 794 -56 callsubr
          -342 -584 -48 callsubr
        </CharString>
        <CharString name="Ytilde">
          1295 1149 -37 callsubr
          -671 -432 -48 callsubr
        </CharString>
        <CharString name="Z">
          1181 1095 hmoveto
          -54 callsubr
          31 callsubr
          endchar
        </CharString>
        <CharString name="Zacute">
          1181 1040 -97 callsubr
          -133 -1848 rmoveto
          -54 callsubr
          31 callsubr
          endchar
        </CharString>
        <CharString name="Zcaron">
          1181 1135 -79 callsubr
          -127 -1878 rmoveto
          -54 callsubr
          31 callsubr
          endchar
        </CharString>
        <CharString name="Zcircumflex">
          1181 748 -78 callsubr
          433 -1570 rmoveto
          -54 callsubr
          31 callsubr
          endchar
        </CharString>
        <CharString name="Zdotaccent">
          1181 934 -85 callsubr
          161 -1610 rmoveto
          -54 callsubr
          31 callsubr
          endchar
        </CharString>
        <CharString name="Zdotbelow">
          1181 1095 hmoveto
          -54 callsubr
          31 callsubr
          449 -211 -100 callsubr
        </CharString>
        <CharString name="Zecyrillic">
          1260 658 -30 rmoveto
          368 234 188 288 164 -123 112 -191 28 hvcurveto
          211 40 165 119 221 vvcurveto
          205 -161 139 -288 -158 -172 -60 -70 -94 vhcurveto
          -73 -304 rlineto
          66 hlineto
          226 97 141 99 186 hhcurveto
          153 84 -97 -141 -220 -148 -121 -237 hvcurveto
          -154 hlineto
          -20 -95 rlineto
          154 hlineto
          216 122 -81 -191 -179 -107 -160 -272 -4 hvcurveto
          -181 -3 -150 98 -14 220 rrcurveto
          -66 hlineto
          -38 -304 rlineto
          -47 58 181 -70 211 hhcurveto
          endchar
        </CharString>
        <CharString name="Zetagreek">
          1181 1095 hmoveto
          -54 callsubr
          31 callsubr
          endchar
        </CharString>
        <CharString name="Zhecyrillic">
          2037 266 hmoveto
          675 693 127 0 -106 -500 -19 -89 -23 -12 -173 -16 rlinecurve
          -16 -76 588 0 16 76 -164 15 -20 13 18 89 rlinecurve
          106 500 131 0 361 -693 270 0 15 70 -69 26 -48 56 -109 199 rlinecurve
          -253 462 315 292 219 204 60 39 142 20 rlinecurve
          16 76 -485 0 -16 -76 164 -13 -5 -31 -176 -171 rlinecurve
          -374 -362 -137 0 98 460 19 89 26 13 169 15 rlinecurve
          16 76 -587 0 -16 -76 167 -16 17 -12 -19 -89 rlinecurve
          -97 -460 -129 0 -232 363 -117 182 50 21 151 11 rlinecurve
          16 76 -507 0 -15 -76 140 -25 44 -31 142 -206 rlinecurve
          187 -271 -472 -484 rlineto
          -189 -195 -65 -61 -76 -25 -17 -70 rcurveline
          endchar
        </CharString>
        <CharString name="Zlinebelow">
          1181 1095 hmoveto
          -54 callsubr
          31 callsubr
          183 -368 -80 callsubr
        </CharString>
        <CharString name="a">
          1113 -61 callsubr
          -104 callsubr
          -107 callsubr
          -106 callsubr
          -96 callsubr
        </CharString>
        <CharString name="a.dnum">
          709 128 193 96 callsubr
        </CharString>
        <CharString name="a.numr">
          709 268 854 96 callsubr
        </CharString>
        <CharString name="a.sups">
          709 308 1039 96 callsubr
        </CharString>
        <CharString name="aacute">
          1113 914 -91 callsubr
          -950 -1185 -102 callsubr
          -104 callsubr
          -107 callsubr
          -106 callsubr
          -96 callsubr
        </CharString>
        <CharString name="abreve">
          1113 803 -35 callsubr
          -609 -832 -102 callsubr
          -104 callsubr
          -107 callsubr
          -106 callsubr
          -96 callsubr
        </CharString>
        <CharString name="abreveacute">
          1113 1101 -31 callsubr
          206 -293 -9 callsubr
          -560 -795 -102 callsubr
          -104 callsubr
          -107 callsubr
          -106 callsubr
          -96 callsubr
        </CharString>
        <CharString name="abrevecyrillic">
          1113 769 59 callsubr
          -575 -828 -102 callsubr
          -104 callsubr
          -107 callsubr
          -106 callsubr
          -96 callsubr
        </CharString>
        <CharString name="abrevedotbelow">
          1113 803 -35 callsubr
          -609 -832 -102 callsubr
          -104 callsubr
          -107 callsubr
          -106 callsubr
          35 callsubr
          202 -777 -101 callsubr
        </CharString>
        <CharString name="abrevegrave">
          1113 568 -21 callsubr
          157 -522 -9 callsubr
          -560 -795 -102 callsubr
          -104 callsubr
          -107 callsubr
          -106 callsubr
          -96 callsubr
        </CharString>
        <CharString name="abrevehookabove">
          1113 835 170 callsubr
          -560 -795 -102 callsubr
          -104 callsubr
          -107 callsubr
          -106 callsubr
          -96 callsubr
        </CharString>
        <CharString name="abrevetilde">
          1113 936 5 callsubr
          -182 -317 -9 callsubr
          -560 -795 -102 callsubr
          -104 callsubr
          -107 callsubr
          -106 callsubr
          -96 callsubr
        </CharString>
        <CharString name="acaron">
          1113 1014 -69 callsubr
          -917 -1185 -102 callsubr
          -104 callsubr
          -107 callsubr
          -106 callsubr
          -96 callsubr
        </CharString>
        <CharString name="acircumflex">
          1113 582 -74 callsubr
          -290 -821 -102 callsubr
          -104 callsubr
          -107 callsubr
          -106 callsubr
          -96 callsubr
        </CharString>
        <CharString name="acircumflexacute">
          1113 1101 -31 callsubr
          -60 -295 -65 callsubr
          -312 -877 -102 callsubr
          -104 callsubr
          -107 callsubr
          -106 callsubr
          -96 callsubr
        </CharString>
        <CharString name="acircumflexdotbelow">
          1113 582 -74 callsubr
          -290 -821 -102 callsubr
          -104 callsubr
          -107 callsubr
          -106 callsubr
          35 callsubr
          202 -777 -101 callsubr
        </CharString>
        <CharString name="acircumflexgrave">
          1113 568 -21 callsubr
          -109 -524 -65 callsubr
          -312 -877 -102 callsubr
          -104 callsubr
          -107 callsubr
          -106 callsubr
          -96 callsubr
        </CharString>
        <CharString name="acircumflexhookabove">
          1113 1049 61 callsubr
          -312 -877 -102 callsubr
          -104 callsubr
          -107 callsubr
          -106 callsubr
          -96 callsubr
        </CharString>
        <CharString name="acircumflextilde">
          1113 936 5 callsubr
          -448 -319 -65 callsubr
          -312 -877 -102 callsubr
          -104 callsubr
          -107 callsubr
          -106 callsubr
          -96 callsubr
        </CharString>
        <CharString name="acute">
          1024 914 -91 callsubr
          endchar
        </CharString>
        <CharString name="acutecmb">
          0 402 -91 callsubr
          endchar
        </CharString>
        <CharString name="acutecmb.short">
          0 372 1406 -104 callgsubr
          endchar
        </CharString>
        <CharString name="acutedotaccentcmb">
          0 322 70 callsubr
          -16 callgsubr
          endchar
        </CharString>
        <CharString name="acutedotaccentcmb.short">
          0 391 -89 callgsubr
          endchar
        </CharString>
        <CharString name="acyrillic">
          1113 -61 callsubr
          -104 callsubr
          -107 callsubr
          -106 callsubr
          -96 callsubr
        </CharString>
        <CharString name="adblgrave">
          1113 537 -27 callsubr
          -765 -821 -102 callsubr
          -104 callsubr
          -107 callsubr
          -106 callsubr
          -96 callsubr
        </CharString>
        <CharString name="adieresis">
          1113 588 -64 callsubr
          -806 -893 -102 callsubr
          -104 callsubr
          -107 callsubr
          -106 callsubr
          -96 callsubr
        </CharString>
        <CharString name="adieresismacron">
          1113 560 1483 -62 callsubr
          -1 -432 -50 callsubr
          -708 -812 -102 callsubr
          -104 callsubr
          -107 callsubr
          -106 callsubr
          -96 callsubr
        </CharString>
        <CharString name="adotaccent">
          1113 794 -77 callsubr
          -600 -886 -102 callsubr
          -104 callsubr
          -107 callsubr
          -106 callsubr
          -96 callsubr
        </CharString>
        <CharString name="adotbelow">
          1113 -61 callsubr
          -104 callsubr
          -107 callsubr
          -106 callsubr
          35 callsubr
          202 -777 -101 callsubr
        </CharString>
        <CharString name="adotmacron">
          1113 558 1471 -62 callsubr
          122 callsubr
          -585 -814 -102 callsubr
          -104 callsubr
          -107 callsubr
          -106 callsubr
          -96 callsubr
        </CharString>
        <CharString name="ae">
          1486 273 788 93 callsubr
        </CharString>
        <CharString name="aeacute">
          1486 1148 -91 callsubr
          -1105 -741 93 callsubr
        </CharString>
        <CharString name="aemacron">
          1486 745 -45 callsubr
          -499 -609 93 callsubr
        </CharString>
        <CharString name="agrave">
          1113 733 -57 callsubr
          -658 -821 -102 callsubr
          -104 callsubr
          -107 callsubr
          -106 callsubr
          -96 callsubr
        </CharString>
        <CharString name="ahookabove">
          1113 824 -34 callsubr
          -630 -1191 -102 callsubr
          -104 callsubr
          -107 callsubr
          -106 callsubr
          -96 callsubr
        </CharString>
        <CharString name="ainvertedbreve">
          1113 795 7 callsubr
          -601 -1171 -102 callsubr
          -104 callsubr
          -107 callsubr
          -106 callsubr
          -96 callsubr
        </CharString>
        <CharString name="alphagreek">
          1212 478 -22 136 callsubr
        </CharString>
        <CharString name="alphatonosgreek">
          1212 904 -17 callsubr
          -630 -1551 136 callsubr
        </CharString>
        <CharString name="amacron">
          1113 511 -45 callsubr
          -344 -1053 -102 callsubr
          -104 callsubr
          -107 callsubr
          -106 callsubr
          -96 callsubr
        </CharString>
        <CharString name="ampersand">
          1496 163 332 rmoveto
          -207 150 -155 258 173 137 88 152 152 vhcurveto
          175 -210 271 0 14 66 -109 51 -82 104 -115 138 rlinecurve
          -11 13 170 219 131 167 48 25 125 24 rlinecurve
          16 76 -471 0 -16 -76 178 -19 12 -28 -109 -149 rlinecurve
          -133 -181 -304 365 -3 3 -2 4 -3 3 rlinecurve
          266 100 120 126 146 vvcurveto
          178 -139 119 -226 -242 -145 -160 -188 -7 vhcurveto
          -3 -92 32 -112 86 -130 rrcurveto
          -240 -95 -154 -140 -225 vvcurveto
          473 836 rmoveto
          121 79 80 122 129 60 -105 -108 -127 -71 -91 -183 -79 vhcurveto
          -106 139 -30 89 81 vvcurveto
          -284 -766 rmoveto
          165 108 91 141 73 vhcurveto
          10 -14 12 -14 12 -15 349 -419 rcurveline
          -94 -97 -85 -71 -135 hhcurveto
          -187 -128 131 167 hvcurveto
          endchar
        </CharString>
        <CharString name="anoteleiagreek">
          533 458 764 128 callsubr
          endchar
        </CharString>
        <CharString name="aogonek">
          1113 -61 callsubr
          -104 callsubr
          8 9 0 1 8 hvcurveto
          -167 -107 -71 -102 -97 vvcurveto
          -97 71 -65 102 74 57 30 32 30 vhcurveto
          -102 callgsubr
          101 91 108 183 143 hvcurveto
          17 -106 callsubr
          -96 callsubr
        </CharString>
        <CharString name="approxequal">
          1180 986 777 rmoveto
          -139 -112 203 -188 hhcurveto
          -144 -135 -99 -251 -37 hvcurveto
          121 hlineto
          146 26 83 58 77 140 110 -204 188 hhcurveto
          145 135 100 250 37 hvcurveto
          -122 hlineto
          -146 -25 -84 -57 -76 hhcurveto
          -101 -472 6 callgsubr
          -100 -250 -37 hvcurveto
          122 hlineto
          146 25 84 57 -3 callgsubr
          100 250 37 hvcurveto
          -121 hlineto
          -146 -26 -83 -57 -77 hhcurveto
          endchar
        </CharString>
        <CharString name="aring">
          1113 549 6 callsubr
          -496 -984 -102 callsubr
          -104 callsubr
          -107 callsubr
          -106 callsubr
          -96 callsubr
        </CharString>
        <CharString name="aringacute">
          1113 1102 1524 -93 callgsubr
          155 callsubr
          -608 -845 -102 callsubr
          -104 callsubr
          -107 callsubr
          -106 callsubr
          -96 callsubr
        </CharString>
        <CharString name="aringbelow">
          1113 -61 callsubr
          -104 callsubr
          -107 callsubr
          -106 callsubr
          35 callsubr
          -46 -683 100 callsubr
        </CharString>
        <CharString name="asciicircum">
          1180 841 1444 rmoveto
          -534 -597 83 -75 482 517 260 -517 101 75 -280 597 rlineto
          endchar
        </CharString>
        <CharString name="asciitilde">
          1180 938 554 6 callgsubr
          -99 -250 -37 hvcurveto
          121 hlineto
          145 26 84 58 -3 callgsubr
          99 250 37 hvcurveto
          -121 hlineto
          -145 -26 -83 -58 -77 hhcurveto
          endchar
        </CharString>
        <CharString name="asterisk">
          706 643 1472 rmoveto
          -48 -29 -33 -53 -15 1 -17 1 -29 hvcurveto
          10 -180 31 0 84 189 rlineto
          16 34 3 18 16 vvcurveto
          39 -28 31 -41 vhcurveto
          -277 -120 rmoveto
          -42 -25 -35 -34 -31 18 -30 59 -24 hvcurveto
          184 -80 18 27 -102 133 rlineto
          57 -44 -35 17 -31 hhcurveto
          495 -54 rmoveto
          -32 -24 -13 -37 -53 hvcurveto
          -143 -103 11 -29 201 31 rlineto
          77 11 35 27 47 vvcurveto
          38 -30 28 -42 vhcurveto
          -542 -361 rmoveto
          33 24 12 38 53 hvcurveto
          142 102 -11 29 -201 -30 rlineto
          -77 -11 -35 -28 -46 vvcurveto
          -38 30 -28 42 vhcurveto
          562 14 rmoveto
          32 -18 29 -58 24 vhcurveto
          -185 80 -18 -27 102 -132 rlineto
          -58 44 35 -16 31 hhcurveto
          43 24 35 33 hvcurveto
          -344 -189 rmoveto
          49 29 34 53 15 -1 17 -1 29 hvcurveto
          -11 179 -31 0 -84 -188 rlineto
          -15 -35 -4 -17 -16 vvcurveto
          -39 28 -32 41 vhcurveto
          endchar
        </CharString>
        <CharString name="at">
          1990 1441 -289 rmoveto
          4 76 rlineto
          -64 -125 -125 -24 -169 hhcurveto
          -394 -279 277 459 430 318 444 536 402 271 -221 -388 -372 -229 -197 -173 -83 -11 50 53 11 hvcurveto
          157 731 -93 0 -90 -131 rlineto
          96 -24 -76 63 -113 hhcurveto
          -262 -192 -321 -302 -209 91 -123 158 106 98 67 151 81 hvcurveto
          -6 -26 -2 -24 -25 vvcurveto
          -115 109 -46 91 292 279 263 424 418 -309 288 -487 -597 -372 -479 -515 -495 327 -330 439 178 182 48 69 81 vhcurveto
          -560 651 rmoveto
          256 124 285 175 93 54 -68 -93 3 vhcurveto
          -62 -292 rlineto
          -171 -36 -107 -129 -109 hhcurveto
          -99 -36 91 121 hvcurveto
          endchar
        </CharString>
        <CharString name="atilde">
          1113 913 -52 callsubr
          -719 -867 -102 callsubr
          -104 callsubr
          -107 callsubr
          -106 callsubr
          -96 callsubr
        </CharString>
        <CharString name="austral">
          1402 89 377 rmoveto
          243 hlineto
          -87 -155 -61 -108 -24 -26 -135 -12 rlinecurve
          -15 -76 442 0 17 76 -143 15 -15 19 60 112 rlinecurve
          84 155 573 0 18 -155 13 -115 -14 -15 -163 -16 rlinecurve
          -15 -76 511 0 16 76 -131 12 -13 25 -13 109 rlinecurve
          -19 155 254 0 16 74 -279 0 -25 208 348 0 16 74 -373 0 -87 711 -154 0 -401 -711 -367 0 -17 -74 342 0 -117 -208 rlineto
          -268 hlineto
          541 282 rmoveto
          282 520 59 -520 rlineto
          -493 -282 rmoveto
          112 208 389 0 24 -208 rlineto
          endchar
        </CharString>
        <CharString name="austral.tnum">
          1183 96 451 rmoveto
          -17 -74 202 0 -78 -155 -55 -109 -19 -27 -113 -10 rlinecurve
          -16 -76 379 0 16 76 -122 12 -10 18 57 116 rlinecurve
          76 155 472 0 9 -155 7 -116 -16 -17 -132 -13 rlinecurve
          -16 -76 463 0 16 76 -109 10 -7 25 -9 111 rlinecurve
          -12 155 202 0 16 74 -223 0 -16 207 282 0 17 74 -304 0 -54 712 -164 0 -358 -712 -304 0 -17 -74 283 0 -104 -207 rlineto
          251 281 rmoveto
          248 508 30 -508 rlineto
          -415 -281 rmoveto
          101 207 318 0 13 -207 rlineto
          endchar
        </CharString>
        <CharString name="b">
          1112 1131 658 -36 callgsubr
          162 701 -68 callsubr
          62 callsubr
          endchar
        </CharString>
        <CharString name="backslash">
          620 429 -280 rmoveto
          141 hlineto
          -103 1860 rlineto
          -141 hlineto
          endchar
        </CharString>
        <CharString name="baht">
          -79 callgsubr
          151 -106 105 -220 33 rrcurveto
          49 229 -74 0 -47 -222 rlineto
          2 -26 -28 1 -29 hhcurveto
          -455 hlineto
          -16 -76 rlineto
          154 -14 12 -17 -19 -87 -215 -996 rcurveline
          -19 -87 -18 -17 -159 -14 -16 -76 rcurveline
          515 hlineto
          8 9 0 8 hhcurveto
          -47 -219 74 0 47 222 rlineto
          340 24 226 150 249 vvcurveto
          -655 341 rmoveto
          112 532 121 -3 rlineto
          20 -1 19 -1 18 -2 -112 -524 rcurveline
          -1 -8 -9 0 -9 hhcurveto
          355 310 rmoveto
          -152 -92 -115 -161 -33 vhcurveto
          107 500 rlineto
          98 -29 48 -66 -105 vvcurveto
          -525 -395 rmoveto
          151 hlineto
          9 9 0 -1 9 hvcurveto
          -126 -590 rlineto
          -19 -1 -20 -1 -20 -1 -122 -3 rcurveline
          594 326 rmoveto
          -175 -107 -103 -230 -34 vhcurveto
          122 574 rlineto
          145 -29 70 -96 -137 vvcurveto
          endchar
        </CharString>
        <CharString name="baht.tnum">
          -76 callgsubr
          152 -94 100 -197 34 vhcurveto
          49 231 -74 0 -47 -223 rlineto
          3 -29 -31 1 -33 hhcurveto
          -442 hlineto
          -16 -76 rlineto
          153 -14 13 -17 -19 -87 -215 -996 rcurveline
          -19 -87 -18 -17 -159 -14 -16 -76 rcurveline
          504 hlineto
          11 11 0 11 hhcurveto
          -47 -219 74 0 48 223 rlineto
          319 27 213 149 246 vvcurveto
          -621 341 rmoveto
          111 532 112 -2 rlineto
          24 21 -2 -3 21 hvcurveto
          -112 -524 rlineto
          -1 -12 -12 0 -12 hhcurveto
          335 312 rmoveto
          -147 -81 -113 -141 -38 vhcurveto
          105 492 rlineto
          78 -31 39 -65 -98 vvcurveto
          -494 -397 rmoveto
          139 hlineto
          13 12 0 -1 13 hvcurveto
          -126 -591 rlineto
          -2 -22 -22 -1 -23 hhcurveto
          -114 -2 rlineto
          563 328 rmoveto
          -173 -98 -107 -208 -34 vhcurveto
          121 570 rlineto
          125 -33 60 -93 -130 vvcurveto
          endchar
        </CharString>
        <CharString name="bar">
          620 180 -280 rmoveto
          141 hlineto
          395 1860 rlineto
          -141 hlineto
          endchar
        </CharString>
        <CharString name="bdotaccent">
          1112 667 1673 130 callsubr
          464 -1015 -36 callgsubr
          162 701 -68 callsubr
          62 callsubr
          endchar
        </CharString>
        <CharString name="bdotbelow">
          1112 1131 658 -36 callgsubr
          162 701 -68 callsubr
          62 callsubr
          -368 -1054 -101 callsubr
        </CharString>
        <CharString name="becyrillic">
          1100 1107 588 rmoveto
          243 -131 189 -218 -188 -137 -118 -172 -77 vhcurveto
          32 267 107 205 300 24 rrcurveto
          114 9 237 20 95 65 35 170 rlinecurve
          -74 hlineto
          -19 -47 -55 -16 -107 -2 rrcurveto
          -574 -10 -233 -459 -493 vvcurveto
          -288 123 -197 262 312 196 296 314 vhcurveto
          -204 51 rmoveto
          -252 -103 -310 -200 -113 -73 96 187 252 104 310 200 113 72 -97 -186 vhcurveto
          endchar
        </CharString>
        <CharString name="betagreek">
          1073 21 -460 rmoveto
          195 hlineto
          104 542 rlineto
          -53 51 102 -51 112 hhcurveto
          314 186 230 258 1 hvcurveto
          2 176 -88 149 -194 39 203 50 133 144 1 196 rrcurveto
          179 2 -124 119 -210 hhcurveto
          -233 -168 -159 -331 -71 hvcurveto
          194 23 rmoveto
          225 50 64 137 152 hhcurveto
          111 56 -76 -129 -1 hvcurveto
          -211 -1 -125 -124 -228 hhcurveto
          -31 -144 223 -1 90 -96 -2 -193 rlinecurve
          -203 -1 -148 -153 -182 hhcurveto
          -90 -68 26 67 -63 hvcurveto
          endchar
        </CharString>
        <CharString name="bitcoin">
          -79 callgsubr
          123 -70 93 -145 47 rrcurveto
          55 255 -74 0 -51 -236 rlineto
          11 -57 -65 6 -74 hhcurveto
          46 219 -74 0 -47 -219 -380 91 callsubr
          -27 callgsubr
          383 0 -47 -219 74 0 47 219 rlineto
          58 hlineto
          50 47 2 5 46 hvcurveto
          -48 -226 75 0 49 237 rlineto
          272 48 174 141 219 vvcurveto
          -148 651 rmoveto
          -182 -132 -128 -223 vhcurveto
          -152 hlineto
          112 532 121 -3 rlineto
          184 -6 90 -69 -144 vvcurveto
          -60 -666 rmoveto
          -206 -148 -107 -324 -10 vhcurveto
          -122 -3 129 597 rlineto
          151 hlineto
          212 102 -106 -165 hvcurveto
          endchar
        </CharString>
        <CharString name="bitcoin.tnum">
          -76 callgsubr
          125 -63 90 -133 46 vhcurveto
          55 256 -74 0 -50 -236 rlineto
          11 -55 -64 6 -72 hhcurveto
          -6 hlineto
          46 219 -74 0 -46 -219 -362 0 -16 -76 153 -14 13 -17 -27 callgsubr
          364 0 -47 -219 74 0 47 219 rlineto
          66 hlineto
          47 45 2 5 44 hvcurveto
          -49 -226 75 0 50 237 rlineto
          260 48 168 142 218 vvcurveto
          -145 653 rmoveto
          -183 -125 -129 -210 vhcurveto
          -141 hlineto
          111 532 112 -3 rlineto
          170 -7 83 -67 -143 vvcurveto
          -61 -666 rmoveto
          -206 -142 -108 -307 -11 vhcurveto
          -114 -3 130 597 rlineto
          139 hlineto
          199 95 -106 -163 hvcurveto
          endchar
        </CharString>
        <CharString name="blinebelow">
          1112 1131 658 -36 callgsubr
          162 701 -68 callsubr
          62 callsubr
          -628 -1007 -80 callsubr
        </CharString>
        <CharString name="braceleft">
          620 611 1038 rmoveto
          55 251 rlineto
          145 32 42 70 171 hhcurveto
          16 76 rlineto
          -48 hlineto
          -203 -135 -99 -187 -41 hvcurveto
          -72 -333 rlineto
          -154 -33 -99 -67 -104 hhcurveto
          -14 -64 rlineto
          105 70 -67 -154 -33 hvcurveto
          -85 -399 rlineto
          -190 -40 83 -146 204 hhcurveto
          48 hlineto
          16 76 rlineto
          -172 -3 118 145 31 hvcurveto
          68 312 rlineto
          43 201 -62 100 -160 36 179 33 97 97 44 200 rrcurveto
          endchar
        </CharString>
        <CharString name="braceright">
          620 450 1038 rmoveto
          -41 -200 56 -97 165 -33 -177 -36 -103 -100 -42 -201 -65 -312 rcurveline
          -145 -31 -53 -118 -172 hhcurveto
          -17 -76 rlineto
          48 hlineto
          204 146 146 190 40 hvcurveto
          85 399 rlineto
          154 32 100 67 104 hhcurveto
          13 64 rlineto
          -104 -69 67 154 32 hvcurveto
          69 333 rlineto
          187 39 -92 99 -204 hhcurveto
          -48 hlineto
          -17 -76 rlineto
          172 12 -70 -145 -30 hvcurveto
          endchar
        </CharString>
        <CharString name="bracketleft">
          620 119 -280 rmoveto
          411 hlineto
          16 76 -251 0 365 1708 251 0 16 76 rlineto
          -411 hlineto
          endchar
        </CharString>
        <CharString name="bracketright">
          620 777 1580 rmoveto
          -411 hlineto
          -16 -76 251 0 -365 -1708 -251 0 -16 -76 rlineto
          411 hlineto
          endchar
        </CharString>
        <CharString name="breve">
          1024 803 -35 callsubr
          endchar
        </CharString>
        <CharString name="breveacutecmb">
          90 callsubr
          206 -293 -9 callsubr
          endchar
        </CharString>
        <CharString name="breveacutecmb.short">
          0 663 -19 callsubr
          222 -239 -10 callsubr
          endchar
        </CharString>
        <CharString name="brevebelowcmb">
          0 -61 -463 102 callsubr
        </CharString>
        <CharString name="brevecmb">
          0 291 -35 callsubr
          endchar
        </CharString>
        <CharString name="brevecmb.short">
          0 281 1149 172 callsubr
          endchar
        </CharString>
        <CharString name="brevecyrilliccmb">
          0 257 59 callsubr
          endchar
        </CharString>
        <CharString name="brevecyrilliccmb.short">
          0 326 60 callsubr
          endchar
        </CharString>
        <CharString name="brevegravecmb">
          0 56 -21 callsubr
          157 -522 -9 callsubr
          endchar
        </CharString>
        <CharString name="brevegravecmb.short">
          0 117 1836 -42 callsubr
          182 -434 -10 callsubr
          endchar
        </CharString>
        <CharString name="brevehookabovecmb">
          0 323 170 callsubr
          endchar
        </CharString>
        <CharString name="brevehookabovecmb.short">
          0 388 162 callsubr
          endchar
        </CharString>
        <CharString name="brevetildecmb">
          0 424 5 callsubr
          -182 -317 -9 callsubr
          endchar
        </CharString>
        <CharString name="brevetildecmb.short">
          0 496 1782 rmoveto
          84 83 47 111 23 hvcurveto
          -83 hlineto
          -43 -8 -30 -17 16 callsubr
          14 -39 -37 10 -105 callgsubr
          17 38 hhcurveto
          25 24 -6 -96 callgsubr
          -173 -261 -10 callsubr
          endchar
        </CharString>
        <CharString name="brokenbar">
          620 407 789 rmoveto
          141 hlineto
          168 791 rlineto
          -141 hlineto
          -395 -1860 rmoveto
          141 hlineto
          168 791 rlineto
          -141 hlineto
          endchar
        </CharString>
        <CharString name="bullet">
          811 532 395 rmoveto
          103 83 84 107 101 -85 82 -106 -103 -82 -83 -107 -102 84 -82 106 hvcurveto
          endchar
        </CharString>
        <CharString name="c">
          907 581 -22 9 callsubr
        </CharString>
        <CharString name="cacute">
          907 899 -91 callsubr
          -548 -1551 9 callsubr
        </CharString>
        <CharString name="caret">
          533 219 hmoveto
          -325 -360 61 -64 292 304 162 -304 77 64 -172 360 rlineto
          endchar
        </CharString>
        <CharString name="caron">
          1024 1014 -69 callsubr
          endchar
        </CharString>
        <CharString name="caroncmb">
          0 502 -69 callsubr
          endchar
        </CharString>
        <CharString name="caroncmb.short">
          0 467 1435 -62 callgsubr
          endchar
        </CharString>
        <CharString name="carondotaccentcmb">
          0 322 70 callsubr
          -34 callgsubr
          endchar
        </CharString>
        <CharString name="carondotaccentcmb.short">
          0 395 167 callsubr
          endchar
        </CharString>
        <CharString name="caronslovak">
          1024 709 13 callsubr
          endchar
        </CharString>
        <CharString name="caronslovakcmb">
          0 314 13 callsubr
          endchar
        </CharString>
        <CharString name="ccaron">
          907 999 -69 callsubr
          -515 -1551 9 callsubr
        </CharString>
        <CharString name="ccedilla">
          907 476 -32 callsubr
          -36 callsubr
          86 97 rlineto
          97 12 98 43 61 78 18 84 rcurveline
          -77 -86 81 callsubr
          109 callsubr
          -261 160 -141 169 -22 vhcurveto
          -110 -125 -63 callsubr
          21 callsubr
          endchar
        </CharString>
        <CharString name="ccedillaacute">
          907 899 -91 callsubr
          -653 -2019 rmoveto
          157 93 78 111 -36 callsubr
          86 97 rlineto
          97 12 98 43 61 78 18 84 rcurveline
          -77 -86 81 callsubr
          109 callsubr
          -261 160 -141 169 -22 vhcurveto
          -110 -125 -63 callsubr
          21 callsubr
          endchar
        </CharString>
        <CharString name="ccircumflex">
          907 567 -74 callsubr
          112 -1187 9 callsubr
        </CharString>
        <CharString name="cdotaccent">
          907 779 -77 callsubr
          -198 -1252 9 callsubr
        </CharString>
        <CharString name="cedi">
          1302 661 -189 rmoveto
          73 hlineto
          43 202 rlineto
          -2 24 24 -1 25 -66 callgsubr
          -19 -19 1 2 -19 hvcurveto
          257 1211 157 -3 129 -64 15 -229 rlinecurve
          67 hlineto
          42 303 -62 51 -164 42 -161 5 rlinecurve
          42 199 -73 0 -43 -200 rlineto
          -466 -26 -300 -368 -423 vvcurveto
          -304 179 -231 288 -57 vhcurveto
          -250 569 rmoveto
          356 197 338 330 38 vhcurveto
          -253 -1191 rlineto
          -170 53 -104 165 241 vvcurveto
          endchar
        </CharString>
        <CharString name="cedi.tnum">
          1183 595 -189 rmoveto
          74 hlineto
          43 203 rlineto
          -3 24 24 -1 25 -63 callgsubr
          -20 -18 1 3 -19 hvcurveto
          257 1210 127 -3 103 -61 14 -214 rlinecurve
          67 hlineto
          42 295 -54 35 -139 47 -137 5 rlinecurve
          42 200 -74 0 -43 -201 rlineto
          -430 -25 -279 -341 -450 vvcurveto
          -322 157 -212 254 -57 vhcurveto
          -193 568 rmoveto
          379 174 313 295 40 vhcurveto
          -253 -1187 rlineto
          -135 53 -81 149 253 vvcurveto
          endchar
        </CharString>
        <CharString name="cedilla">
          1024 411 -32 callsubr
          100 -64 68 -110 17 hvcurveto
          101 116 8 37 -77 0 -160 -181 -63 callsubr
          -42 -34 -69 -107 callgsubr
          endchar
        </CharString>
        <CharString name="cedillacmb">
          0 -101 -32 callsubr
          20 callsubr
          8 37 -77 0 -160 -181 -63 callsubr
          21 callsubr
          endchar
        </CharString>
        <CharString name="cent">
          1180 651 hmoveto
          41 194 rlineto
          -1 10 9 0 10 -37 callgsubr
          -33 -31 5 9 -28 hvcurveto
          174 820 rlineto
          52 -48 callgsubr
          114 -107 -22 callgsubr
          -26 -218 -270 -332 vvcurveto
          -236 137 -138 160 -41 vhcurveto
          -44 -205 rlineto
          -49 642 rmoveto
          243 122 208 170 49 vhcurveto
          -166 -778 rlineto
          -79 54 -47 98 126 vvcurveto
          endchar
        </CharString>
        <CharString name="cent.1">
          1180 670 hmoveto
          41 193 rlineto
          3 4 0 3 -37 callgsubr
          -171 -115 127 197 278 159 232 208 53 -48 callgsubr
          109 -99 96 -44 callgsubr
          -275 -339 vvcurveto
          -245 148 -139 167 -35 vhcurveto
          -43 -201 rlineto
          endchar
        </CharString>
        <CharString name="cent.1.tnum">
          1183 671 hmoveto
          41 193 rlineto
          3 4 0 3 -38 callgsubr
          -171 -115 127 197 278 160 232 207 54 -47 callgsubr
          110 -100 95 -44 callgsubr
          -276 -338 vvcurveto
          -245 149 -139 166 -35 vhcurveto
          -43 -201 rlineto
          endchar
        </CharString>
        <CharString name="cent.tnum">
          1183 652 hmoveto
          41 194 rlineto
          -1 10 9 0 10 -38 callgsubr
          -33 -31 5 9 -28 hvcurveto
          174 820 rlineto
          53 -47 callgsubr
          114 -108 -22 callgsubr
          -27 -218 -270 -331 vvcurveto
          -236 138 -138 159 -40 vhcurveto
          -44 -206 rlineto
          -49 642 rmoveto
          243 122 208 170 48 vhcurveto
          -166 -777 rlineto
          -79 54 -47 98 126 vvcurveto
          endchar
        </CharString>
        <CharString name="checyrillic">
          1123 896 -12 rmoveto
          -107 callsubr
          -40 callgsubr
          -199 -30 -71 -328 rlineto
          -113 -35 -106 -90 -107 hhcurveto
          -104 -38 78 133 28 hvcurveto
          75 354 -367 -56 -16 -73 97 -14 rlineto
          47 -7 10 -18 -9 -43 -30 -141 rcurveline
          -198 -41 62 -143 196 hhcurveto
          127 105 72 101 72 hvcurveto
          -68 -316 rlineto
          -6 -27 -3 -25 -21 vvcurveto
          -81 42 -44 97 vhcurveto
          endchar
        </CharString>
        <CharString name="chigreek">
          1001 185 -460 rmoveto
          343 629 80 -414 rlineto
          -192 38 55 -39 99 hhcurveto
          62 63 23 32 49 hvcurveto
          15 75 rlineto
          -7 -16 -20 -4 -30 hhcurveto
          -63 -24 20 104 -27 hvcurveto
          -142 546 157 216 196 253 176 219 rlinecurve
          -227 hlineto
          -328 -581 -86 358 rlineto
          189 -46 -46 45 -101 hhcurveto
          -62 -63 -24 -32 -50 hvcurveto
          -15 -75 rlineto
          7 16 20 4 31 hhcurveto
          63 20 -21 -102 31 hvcurveto
          150 -495 -173 -247 -201 -269 -170 -218 rlinecurve
          endchar
        </CharString>
        <CharString name="circumflex">
          1024 583 -74 callsubr
          endchar
        </CharString>
        <CharString name="circumflexacutecmb">
          90 callsubr
          -60 -295 -65 callsubr
          endchar
        </CharString>
        <CharString name="circumflexacutecmb.short">
          0 658 1815 -38 callsubr
          -53 -253 -40 callsubr
          endchar
        </CharString>
        <CharString name="circumflexbelowcmb">
          0 -264 -474 -66 callsubr
        </CharString>
        <CharString name="circumflexcmb">
          0 71 -74 callsubr
          endchar
        </CharString>
        <CharString name="circumflexcmb.short">
          0 80 1127 -61 callgsubr
          endchar
        </CharString>
        <CharString name="circumflexgravecmb">
          0 56 -21 callsubr
          -109 -524 -65 callsubr
          endchar
        </CharString>
        <CharString name="circumflexgravecmb.short">
          0 112 1815 -42 callsubr
          -93 -448 -40 callsubr
          endchar
        </CharString>
        <CharString name="circumflexhookabovecmb">
          0 537 61 callsubr
          endchar
        </CharString>
        <CharString name="circumflexhookabovecmb.short">
          0 631 57 callsubr
          endchar
        </CharString>
        <CharString name="circumflextildecmb">
          0 424 5 callsubr
          -448 -319 -65 callsubr
          endchar
        </CharString>
        <CharString name="circumflextildecmb.short">
          0 492 1761 -44 callsubr
          16 callsubr
          15 43 callsubr
          72 callsubr
          endchar
        </CharString>
        <CharString name="colon">
          533 445 704 129 callsubr
          -154 -726 128 callsubr
          endchar
        </CharString>
        <CharString name="colon.uc">
          533 498 951 129 callsubr
          -154 -726 128 callsubr
          endchar
        </CharString>
        <CharString name="coloncurrency">
          1302 301 -189 rmoveto
          74 hlineto
          124 294 49 -31 55 -24 61 -16 rlinecurve
          -94 -223 74 0 88 208 rlineto
          -6 37 40 -3 41 -66 callgsubr
          -28 -27 2 5 -26 hvcurveto
          483 1145 55 -45 37 -73 7 -116 rlinecurve
          67 hlineto
          42 303 -30 25 -55 23 -66 17 rlinecurve
          97 231 -76 0 -91 -216 -58 11 -64 6 -64 1 rlinecurve
          84 198 -76 0 -85 -201 rlineto
          -453 -36 -290 -363 -416 vvcurveto
          -195 74 -166 129 -108 vhcurveto
          604 1182 rmoveto
          55 52 -7 -19 45 hvcurveto
          -489 -1162 rlineto
          -59 22 -50 37 -40 49 455 1079 rcurveline
          1 10 10 0 11 hhcurveto
          -590 -736 rmoveto
          338 178 322 301 64 vhcurveto
          -420 -998 rlineto
          -38 74 -21 93 107 vvcurveto
          endchar
        </CharString>
        <CharString name="coloncurrency.tnum">
          1183 235 -189 rmoveto
          75 hlineto
          129 307 47 -36 53 -28 60 -18 rlinecurve
          -95 -225 75 0 88 209 rlineto
          -7 37 40 -3 41 -63 callgsubr
          -28 -27 3 5 -25 hvcurveto
          470 1116 29 -42 20 -61 5 -85 rlinecurve
          67 hlineto
          42 295 -22 14 -35 16 -43 14 rlinecurve
          102 242 -76 0 -94 -223 -56 14 -64 10 -62 1 rlinecurve
          83 198 -75 0 -85 -201 rlineto
          -418 -36 -269 -337 -442 vvcurveto
          -192 56 -153 99 -104 vhcurveto
          596 1162 rmoveto
          54 50 -10 -27 42 hvcurveto
          -482 -1146 rlineto
          -56 28 -47 45 -33 65 440 1044 rcurveline
          1 10 11 0 11 hhcurveto
          -533 -736 rmoveto
          358 155 299 266 66 vhcurveto
          -396 -939 rlineto
          -16 61 -9 72 83 vvcurveto
          endchar
        </CharString>
        <CharString name="combiningcircle">
          55 callsubr
          endchar
        </CharString>
        <CharString name="comma">
          533 67 -259 111 callsubr
          endchar
        </CharString>
        <CharString name="commaaccentcmb">
          0 -91 -490 -75 callsubr
        </CharString>
        <CharString name="copyright">
          55 callsubr
          -139 613 rmoveto
          199 -2 122 162 146 hhcurveto
          103 54 -56 -105 5 hvcurveto
          41 -2 28 159 rlineto
          38 -45 -96 36 -111 hhcurveto
          -234 -157 -168 -233 -3 hvcurveto
          -214 -2 143 -118 186 hhcurveto
          89 82 24 33 42 hvcurveto
          35 164 rlineto
          -42 hlineto
          -105 -45 -66 -46 -78 hhcurveto
          -116 -78 92 140 -1 hvcurveto
          endchar
        </CharString>
        <CharString name="cruzeiro">
          1303 457 593 rmoveto
          399 222 377 369 160 135 -61 -235 15 vhcurveto
          67 hlineto
          42 304 rlineto
          53 -65 -179 44 -170 hhcurveto
          -492 -3 -321 -397 -458 vvcurveto
          -375 240 -271 371 147 185 43 67 74 vhcurveto
          67 304 rlineto
          -67 hlineto
          -232 -103 -129 -77 -167 hhcurveto
          81 398 rlineto
          122 81 122 76 103 3 callgsubr
          -29 42 -61 -93 -77 -56 -199 -140 vhcurveto
          54 251 -159 -28 -143 -667 rlineto
          -151 69 -91 172 245 vvcurveto
          endchar
        </CharString>
        <CharString name="cruzeiro.tnum">
          1180 752 -30 rmoveto
          138 -1 136 36 83 40 74 295 rcurveline
          -69 hlineto
          -93 -200 -101 -63 -138 -6 82 402 rcurveline
          120 80 117 78 99 3 callgsubr
          -28 42 -62 -90 -72 -58 -197 -138 vhcurveto
          54 251 -159 -28 -145 -675 rlineto
          -115 53 -72 134 244 vvcurveto
          499 254 340 343 156 73 -68 -195 7 vhcurveto
          70 hlineto
          51 295 rlineto
          47 -107 -99 24 -152 hhcurveto
          -422 -390 -329 -575 -384 234 -214 299 hvcurveto
          endchar
        </CharString>
        <CharString name="currency">
          1183 502 168 rmoveto
          92 89 28 49 78 hvcurveto
          110 -139 114 96 -108 138 rlineto
          61 67 45 83 20 90 19 91 -11 83 -33 68 rrcurveto
          170 140 -76 95 -169 -140 rlineto
          48 -57 -77 28 -91 hhcurveto
          -90 -88 -28 -47 -78 hvcurveto
          -110 139 -115 -95 109 -139 rlineto
          -62 -68 -46 -84 -19 -91 -20 -91 10 -82 33 -67 rrcurveto
          -167 -138 76 -96 167 138 rlineto
          -48 57 77 -28 90 hhcurveto
          26 124 rmoveto
          -153 -96 120 168 37 hvcurveto
          171 36 145 117 155 hhcurveto
          153 96 -117 -171 -36 hvcurveto
          -168 -37 -146 -120 -154 hhcurveto
          endchar
        </CharString>
        <CharString name="d">
          1117 -61 callsubr
          -46 callsubr
          -41 callsubr
          -73 callsubr
          -60 callsubr
          10 callsubr
          88 callsubr
        </CharString>
        <CharString name="dagger">
          -6 callgsubr
          -20 -313 rlineto
          6 7 12 3 9 hhcurveto
          12 10 -4 -7 6 hvcurveto
          115 314 rlineto
          72 28 -37 48 -55 hhcurveto
          -472 -528 -74 callgsubr
          -353 -30 rlineto
          3 -4 3 -8 -8 vvcurveto
          -11 -4 -14 -12 -10 vhcurveto
          11 -128 rmoveto
          39 -4 41 -7 48 vhcurveto
          -97 callgsubr
          -112 -174 -18 -100 -72 -736 rrcurveto
          30 hlineto
          211 667 27 73 1 140 rrcurveto
          endchar
        </CharString>
        <CharString name="daggerdbl">
          -6 callgsubr
          -17 -294 rlineto
          6 7 11 3 9 hhcurveto
          13 9 -4 -7 6 hvcurveto
          113 295 rlineto
          72 28 -37 48 -55 hhcurveto
          -469 -509 -74 callgsubr
          -354 -30 rlineto
          3 -4 3 -8 -8 vvcurveto
          -11 -4 -14 -11 -10 vhcurveto
          -179 -447 rmoveto
          -31 2 -34 4 -37 vhcurveto
          6 7 12 3 9 hhcurveto
          12 10 -5 -7 6 hvcurveto
          89 171 33 139 140 vvcurveto
          30 -2 34 -3 38 vhcurveto
          -97 callgsubr
          -90 -171 -33 -137 -141 vvcurveto
          -332 -64 rmoveto
          -26 -124 354 30 rlineto
          -3 4 -3 7 8 vvcurveto
          11 4 16 12 10 vhcurveto
          411 38 rmoveto
          -355 -41 rlineto
          3 -4 3 -7 -9 vvcurveto
          -10 -4 -15 -12 -10 vhcurveto
          339 -28 rlineto
          -444 -385 rmoveto
          61 23 48 71 3 hvcurveto
          18 294 rlineto
          -97 callgsubr
          -112 -295 rlineto
          -72 -29 38 -48 54 hhcurveto
          endchar
        </CharString>
        <CharString name="dbar">
          1117 -61 callsubr
          -46 callsubr
          -41 callsubr
          -73 callsubr
          -60 callsubr
          215 1012 167 0 20 89 -168 0 36 169 -197 -18 -32 -151 -265 0 -18 -89 264 0 -54 -255 rlineto
          -14 callgsubr
          88 callsubr
        </CharString>
        <CharString name="dblgrave">
          1024 538 -27 callsubr
          endchar
        </CharString>
        <CharString name="dblgravecmb">
          0 26 -27 callsubr
          endchar
        </CharString>
        <CharString name="dblgravecmb.short">
          0 58 1407 -72 callgsubr
          endchar
        </CharString>
        <CharString name="dcaron">
          1117 1367 13 callsubr
          -1100 -762 -102 callsubr
          -46 callsubr
          -41 callsubr
          -73 callsubr
          -60 callsubr
          10 callsubr
          88 callsubr
        </CharString>
        <CharString name="dcircumflexbelow">
          1117 -61 callsubr
          -46 callsubr
          -41 callsubr
          -73 callsubr
          -60 callsubr
          85 callsubr
          -82 -836 -66 callsubr
        </CharString>
        <CharString name="dcommaaccent">
          1117 -61 callsubr
          -46 callsubr
          -41 callsubr
          -73 callsubr
          -60 callsubr
          85 callsubr
          91 -852 -75 callsubr
        </CharString>
        <CharString name="ddotaccent">
          1117 1159 1611 37 callsubr
          -965 -1267 -102 callsubr
          -46 callsubr
          -41 callsubr
          -73 callsubr
          -60 callsubr
          10 callsubr
          88 callsubr
        </CharString>
        <CharString name="ddotbelow">
          1117 -61 callsubr
          -46 callsubr
          -41 callsubr
          -73 callsubr
          -60 callsubr
          85 callsubr
          113 -777 -101 callsubr
        </CharString>
        <CharString name="decyrillic">
          1096 207 418 rmoveto
          -249 130 -191 269 321 184 304 506 461 -143 227 -311 -93 -78 -33 -44 -57 vhcurveto
          -18 -86 rlineto
          49 78 53 20 85 hhcurveto
          219 75 -195 -345 8 hvcurveto
          107 -42 -87 74 -141 hhcurveto
          -258 -194 -275 -330 hvcurveto
          205 -31 rmoveto
          267 108 269 181 149 57 -126 -186 -299 -139 -236 -158 -121 -77 79 232 vhcurveto
          endchar
        </CharString>
        <CharString name="degree">
          707 640 1398 rmoveto
          -191 -153 -151 -170 -150 96 -94 150 189 154 151 169 hvcurveto
          151 -1 -96 94 -148 hhcurveto
          -13 -105 rmoveto
          77 53 -56 -81 -117 -100 -101 -104 -77 -53 56 81 117 99 101 105 hvcurveto
          endchar
        </CharString>
        <CharString name="deltagreek">
          1014 526 -18 rmoveto
          300 202 217 310 226 -84 127 -148 148 hvcurveto
          -56 57 rlineto
          -123 125 -36 41 67 vvcurveto
          68 45 41 86 101 106 -62 -172 119 vhcurveto
          128 176 rlineto
          88 -79 -144 77 -173 hhcurveto
          -222 -118 -106 -156 -6 hvcurveto
          -3 -82 29 -88 162 -146 rrcurveto
          23 -20 -264 -28 -228 -201 -2 -294 rlinecurve
          -217 -2 137 -196 250 hhcurveto
          -191 366 rmoveto
          1 277 156 186 215 35 84 -100 34 -117 -1 -126 rrcurveto
          -237 -1 -121 -182 -165 hhcurveto
          -128 -75 103 161 1 hvcurveto
          endchar
        </CharString>
        <CharString name="dieresis">
          1024 588 -64 callsubr
          endchar
        </CharString>
        <CharString name="dieresisacutecmb">
          90 callsubr
          33 -276 -50 callsubr
          endchar
        </CharString>
        <CharString name="dieresisacutecmb.short">
          0 663 -19 callsubr
          60 -211 -51 callsubr
          endchar
        </CharString>
        <CharString name="dieresisbelowcmb">
          0 -260 -410 103 callsubr
        </CharString>
        <CharString name="dieresiscaroncmb">
          0 624 1677 -98 callgsubr
          -165 50 0 276 165 rlineto
          -537 -438 -50 callsubr
          endchar
        </CharString>
        <CharString name="dieresiscaroncmb.short">
          0 691 1959 rmoveto
          -293 -93 -254 93 -15 -69 220 -134 51 0 276 134 rlineto
          -515 -341 -51 callsubr
          endchar
        </CharString>
        <CharString name="dieresiscmb">
          0 76 -64 callsubr
          endchar
        </CharString>
        <CharString name="dieresiscmb.short">
          0 104 1169 -103 callgsubr
          endchar
        </CharString>
        <CharString name="dieresisgravecmb">
          0 56 -21 callsubr
          -16 -505 -50 callsubr
          endchar
        </CharString>
        <CharString name="dieresisgravecmb.short">
          0 117 1836 -42 callsubr
          20 -406 -51 callsubr
          endchar
        </CharString>
        <CharString name="dieresismacroncmb">
          0 48 1483 -62 callsubr
          -1 -432 -50 callsubr
          endchar
        </CharString>
        <CharString name="dieresismacroncmb.short">
          0 112 14 callsubr
          30 -353 -51 callsubr
          endchar
        </CharString>
        <CharString name="dieresistonosgreek">
          1024 814 66 callsubr
          endchar
        </CharString>
        <CharString name="dieresistonosgreekcmb">
          0 302 66 callsubr
          endchar
        </CharString>
        <CharString name="divide">
          1180 797 852 rmoveto
          62 50 50 66 60 -51 51 -64 -62 -50 -51 -65 -61 51 -50 64 hvcurveto
          -569 -334 -94 callgsubr
          379 -560 rmoveto
          62 50 50 65 61 -51 50 -65 -62 -50 -50 -65 -61 52 -50 64 hvcurveto
          endchar
        </CharString>
        <CharString name="djecyrillic">
          1139 799 88 rmoveto
          -57 -270 -53 -153 -199 -80 25 -67 rcurveline
          323 104 84 152 60 271 136 626 rcurveline
          -41 callgsubr
          102 443 267 0 112 callsubr
          endchar
        </CharString>
        <CharString name="dlinebelow">
          1117 -61 callsubr
          -46 callsubr
          -41 callsubr
          -73 callsubr
          -60 callsubr
          85 callsubr
          -147 -730 -80 callsubr
        </CharString>
        <CharString name="dollar">
          1180 520 -68 callgsubr
          -168 106 vhcurveto
          -38 24 105 496 136 -17 82 -76 -4 -171 rlinecurve
          66 hlineto
          47 291 -54 30 -124 -87 callgsubr
          -146 11 -116 76 -6 221 rlinecurve
          -66 hlineto
          -48 -290 75 -60 136 -52 149 -9 rlinecurve
          33 1086 rmoveto
          148 101 86 148 3 vhcurveto
          -97 -456 rlineto
          -102 -15 callgsubr
          -143 -10 vhcurveto
          107 502 rlineto
          104 -74 44 -75 -88 vvcurveto
          endchar
        </CharString>
        <CharString name="dollar.1">
          1180 224 131 rmoveto
          74 -60 137 -52 149 -9 rrcurveto
          -43 -199 75 0 42 199 rlineto
          272 11 200 162 256 vvcurveto
          153 -90 111 -168 106 vhcurveto
          -52 33 rlineto
          -136 87 -67 80 87 vvcurveto
          151 105 86 153 174 109 -71 -197 -5 vhcurveto
          66 hlineto
          47 291 -54 30 -125 36 -126 10 rlinecurve
          43 201 -75 0 -42 -198 rlineto
          -284 -3 -179 -152 -238 vvcurveto
          -147 95 -113 170 -105 vhcurveto
          56 -36 rlineto
          134 -83 56 -82 -99 vvcurveto
          -185 -128 -81 -159 -165 -139 68 242 -7 vhcurveto
          -65 hlineto
          endchar
        </CharString>
        <CharString name="dollar.1.tnum">
          1183 225 131 rmoveto
          75 -60 136 -52 149 -9 rrcurveto
          -42 -199 74 0 42 199 rlineto
          272 11 201 162 256 vvcurveto
          153 -91 111 -167 106 vhcurveto
          -53 33 -135 87 -67 80 -1 87 rlinecurve
          151 105 86 154 173 109 -71 -197 -5 vhcurveto
          67 hlineto
          47 291 -54 30 -125 36 -126 10 rlinecurve
          42 201 -74 0 -42 -198 rlineto
          -285 -3 -178 -152 -238 vvcurveto
          -147 95 -113 169 -105 vhcurveto
          57 -36 rlineto
          133 -83 56 -82 -99 vvcurveto
          -185 1 -128 -81 -159 hhcurveto
          -165 -139 68 242 -7 hvcurveto
          -66 hlineto
          endchar
        </CharString>
</ttFont>
